<?xml version="1.0" encoding="utf-8"?>
<!-- Generator: Adobe Illustrator 21.1.0, SVG Export Plug-In . SVG Version: 6.00 Build 0)  -->
<svg version="1.0" xmlns="http://www.w3.org/2000/svg" xmlns:xlink="http://www.w3.org/1999/xlink" x="0px" y="0px"
	 viewBox="0 0 364.5 98.4" style="enable-background:new 0 0 364.5 98.4;" xml:space="preserve">
<style type="text/css">
	.st0{display:none;}
	.st1{display:inline;}
	.st2{fill:#0071B8;}
	.st3{fill:#FFFFFF;stroke:#FFFFFF;stroke-width:0.5;stroke-miterlimit:10;}
	.st4{fill:#0372B8;}
</style>
<g id="Ebene_2" class="st0">
	<g id="e6E92O_1_" class="st1">
		
			<image style="overflow:visible;" width="446" height="470" id="e6E92O" xlink:href="C3289695984DA904.jpg"  transform="matrix(0.6719 0 0 0.6719 -630.7968 519.8907)">
		</image>
	</g>
</g>
<g id="Ebene_1">
</g>
<g id="Ebene_3">
	<g>
		<path class="st2" d="M3,24.7c1.4,0.5,2.6,1.3,3.7,2.3c1.6,1.5,2.6,3.4,3.8,5.5c0.4-0.6,0.5-1.1,0.5-1.8c-0.2-1.5-0.3-2.9-0.4-4.4
			c-0.4-4.2-2-7.9-4.7-11.2c-0.6-0.7-0.9-0.8-1.4,0.1c-1.4,2.5-2,5.2-2.4,8C2,23.9,2.2,24.4,3,24.7z"/>
		<path class="st2" d="M6.3,38.8c-1.2,1.3-2.3,2.7-3.4,4.1c3.7-1.5,5.4-3.5,4.7-5.2C7.1,38,6.7,38.3,6.3,38.8z"/>
		<polyline class="st2" points="44.7,98.4 97.7,98.4 97.7,1.3 1.3,1.3 1.3,98.4 43.9,98.4 		"/>
		<path class="st2" d="M10.6,22.9c0.4,1.9,0.7,3.8,1,5.8c0.8-3,1.2-6.1,1.6-9.2c0.2-1.6,0.4-3.2,0.1-4.8c-0.3-1.7-1.1-2.9-2.8-3.5
			c-1.7-0.6-3,0.2-4.2,1.4c-0.6,0.6-0.7,1-0.1,1.7C8.4,16.8,9.9,19.7,10.6,22.9z"/>
		<path class="st3" d="M52.2,70.6c1.4-8.8,1.2-17.4-1.8-25.8c-0.5-1.3-0.9-2.7-1.3-4.1c-0.3-1.1,1-4.3,2-4.9c0.9-0.5,1-1.2,1-2
			c-0.1-1.2-0.3-2.3,0-3.5c0.8-3,1.3-6,1.7-9.1c0.3-2.3,0.7-4.6,0.2-6.9c-1-4.2-5-5.5-8.2-2.5c-0.8,0.7-1.2,0.8-2,0.1
			c-2.8-2.2-5.9-3.4-9.3-1.5c-1.9,1-3.9,1.5-5.9,1.5c-2.7,0.1-4.8,1.1-6.3,3.4c-1,1.6-2.4,2.8-4,3.7c-0.5,0.3-1,0.6-1.4,1
			c-1.4,1.3-1.6,2-0.6,3.6c0.8,1.3,0.8,2.6,0.3,4c-0.4,0.9-0.7,1.8-1,2.8c-0.7,1.8-1.2,3.6-0.6,5.5c0.8,2.7,1.3,5.3,0.8,8.2
			c-0.5,2.4,1.4,4.1,3.8,4c1.3-0.1,2.6-0.4,3.8-0.8c0.5-0.2,0.9-0.4,1.4-0.2c2.2,1,4.6,1,7,0.8c0.3,0,0.6,0,0.9,0.1
			c1.9,0.7,3.8,0.3,5.4-0.8c3.1-2.3,6.6-3.7,9.4-6.4c0.6-0.6,0.8-0.3,1,0.3c0.2,1,0.5,1.9,0.8,2.8c3.4,8.5,3.6,17.4,2.2,26.3
			c-1.4,9.4-4.2,18.4-7.2,27.3c-0.1,0.2-0.2,0.5-0.3,0.7h0.8c0.1-0.3,0.2-0.7,0.3-1C48.1,88.6,50.7,79.8,52.2,70.6z M46.4,12.6
			c1.2-1.2,2.5-1.9,4.2-1.4c1.7,0.5,2.4,1.8,2.8,3.5c0.3,1.6,0.1,3.2-0.1,4.8c-0.4,3.1-0.8,6.2-1.6,9.2c-0.3-1.9-0.6-3.9-1-5.8
			c-0.7-3.3-2.2-6.1-4.4-8.6C45.6,13.6,45.8,13.2,46.4,12.6z M45.9,15.1c2.7,3.3,4.2,7,4.7,11.2c0.2,1.5,0.3,2.9,0.4,4.4
			c0.1,0.6-0.1,1.1-0.5,1.8c-1.1-2-2.2-4-3.8-5.5c-1.1-1-2.3-1.8-3.7-2.3c-0.7-0.2-1-0.7-0.9-1.4c0.4-2.8,1-5.5,2.4-8
			C44.9,14.3,45.3,14.4,45.9,15.1z M22.3,46.9c-0.8,0.2-1.5,0.5-2.3,0.5c-2.4,0.1-3.5-0.9-3.4-3.8c0.7-2.5,0.1-5.4-0.7-8.3
			c-0.4-1.5-0.2-3.2,0.5-4.7c0.5-1,0.8-2,1.1-3c0.4-1.5,0.4-3-0.4-4.4c-0.6-1.1-0.4-2,0.6-2.6c2.6-1.6,4.7-3.7,6.6-6.1
			c1.1-1.5,2.8-1.9,4.6-1.9c2.3,0,4.3-0.6,6.3-1.5c3.2-1.4,6.3-0.8,8.8,1.7c0.5,0.5,0.5,0.8,0.2,1.4c-1.5,2.7-2.3,5.5-2.6,8.5
			c-0.1,0.7-0.3,1.3-1.2,1.3c-4.9,0-8.2,2.7-10.3,6.9c-1.2,2.5-2.8,4.8-4.9,6.6c-0.8,0.7-1.5,1.5-2.1,2.2c-1.7,2-1.7,3.6-0.1,5.7
			C23.4,46.3,23.2,46.6,22.3,46.9z M35.7,46.3c-2,0.6-3.9,1-5.8-0.7c-1.1-1-2.6-0.6-4-0.1c-1,0.4-1.9,0.5-2.7-0.5
			c-0.9-1.1-1.2-2.2-0.6-3.5c0.6-1.3,1.6-2.3,2.6-3.2c2.4-1.9,4.1-4.5,5.4-7.2c1.6-3.3,4.2-5.4,7.8-6c2.2-0.4,2.5-0.2,2.8,2
			c0.1,0.5,0.2,1.1,0.3,1.6c0.1,0.5,0.6,2.9,1.1,3.1c1,1.8,2.3,3.2,4,4.3c0.4,0.3,0.5,0.6,0.1,1c-2.4,2-3.9,4.7-6.1,6.9
			C39.4,45.3,37.5,45.8,35.7,46.3z M42.9,42.8c1.1-1.4,2.3-2.7,3.4-4.1c0.4-0.4,0.8-0.8,1.3-1.2C48.2,39.3,46.5,41.3,42.9,42.8z
			 M48.5,35.6c-0.6,0.5-1.1-0.2-1.6-0.6c-3.1-2.1-4.4-5.2-4.8-8.7c-0.1-0.8,0.3-1,1-0.7c2.6,1.1,4.2,3,5.6,5.4
			c0.5,0.8,1,1.6,1.1,2.7C49.7,34.4,49.1,35.1,48.5,35.6z"/>
	</g>
	<g>
		<path class="st4" d="M127.6,65.1h-2l-0.5-6.8c-0.2-2.4-0.4-4.9-0.4-6.2l-3.3,11.3h-2L116,52.1c0,1.8-0.1,4.1-0.3,6.4l-0.5,6.7h-2
			l1.3-15.2h2.8l3.2,11l3-11h2.8L127.6,65.1z"/>
		<path class="st4" d="M140,60h-7.4c0.2,2.7,1.5,3.7,3.1,3.7c1.1,0,2-0.3,3-1l0.9,1.2c-1.1,0.9-2.4,1.5-4,1.5
			c-3.2,0-5.1-2.3-5.1-5.9c0-3.6,1.8-6.2,4.8-6.2c3.1,0,4.8,2.2,4.8,5.7C140.1,59.4,140,59.8,140,60z M138.1,58.4
			c0-2.3-0.9-3.5-2.7-3.5c-1.5,0-2.6,1.1-2.7,3.7h5.4V58.4z"/>
		<path class="st4" d="M158.2,56.8v8.3h-2v-8c0-1.7-0.7-2.2-1.6-2.2c-1.3,0-1.9,0.8-2.7,2v8.2h-2v-8c0-1.7-0.7-2.2-1.6-2.2
			c-1.3,0-2,0.8-2.7,2v8.2h-2V53.5h1.7l0.2,1.7c0.8-1.2,1.8-2,3.3-2c1.4,0,2.5,0.8,2.9,2.1c0.8-1.3,1.9-2.1,3.5-2.1
			C156.9,53.3,158.2,54.6,158.2,56.8z"/>
		<path class="st4" d="M171.8,59.3c0,3.6-1.9,6.1-5.2,6.1c-3.3,0-5.2-2.4-5.2-6.1c0-3.6,1.9-6.1,5.2-6.1
			C169.9,53.3,171.8,55.6,171.8,59.3z M163.6,59.3c0,3,1.1,4.4,3,4.4s3-1.4,3-4.4c0-3-1.1-4.4-3-4.4
			C164.7,54.9,163.6,56.3,163.6,59.3z"/>
		<path class="st4" d="M181.3,53.4l-0.4,2c-0.4-0.1-0.6-0.1-1-0.1c-1.5,0-2.3,1-2.8,3.3v6.6h-2V53.5h1.7l0.2,2.4
			c0.6-1.7,1.7-2.6,3.1-2.6C180.5,53.3,180.9,53.3,181.3,53.4z"/>
		<path class="st4" d="M186,49.3c0,0.8-0.6,1.4-1.4,1.4c-0.8,0-1.4-0.6-1.4-1.4c0-0.8,0.6-1.4,1.4-1.4C185.5,48,186,48.6,186,49.3z
			 M185.6,65.1h-2V53.5h2V65.1z"/>
		<path class="st4" d="M198.5,60h-7.4c0.2,2.7,1.5,3.7,3.1,3.7c1.1,0,2-0.3,3-1l0.9,1.2c-1.1,0.9-2.4,1.5-4,1.5
			c-3.2,0-5.1-2.3-5.1-5.9c0-3.6,1.8-6.2,4.8-6.2c3.1,0,4.8,2.2,4.8,5.7C198.6,59.4,198.5,59.8,198.5,60z M196.6,58.4
			c0-2.3-0.9-3.5-2.7-3.5c-1.5,0-2.6,1.1-2.7,3.7h5.4V58.4z"/>
		<path class="st4" d="M209,54.6l-0.9,1.3c-1-0.7-1.9-1-3-1c-1.3,0-2.1,0.6-2.1,1.5c0,0.9,0.6,1.4,2.5,1.9c2.4,0.6,3.8,1.6,3.8,3.6
			c0,2.4-2.2,3.5-4.6,3.5c-2,0-3.4-0.6-4.4-1.5l1.1-1.2c0.9,0.7,2,1.1,3.3,1.1c1.5,0,2.5-0.7,2.5-1.8c0-1.1-0.6-1.6-2.8-2.2
			c-2.5-0.7-3.5-1.7-3.5-3.4c0-1.8,1.8-3.2,4.2-3.2C206.7,53.3,207.9,53.8,209,54.6z"/>
		<path class="st4" d="M227.5,59.3c0,3.6-1.9,6.1-5.2,6.1c-3.3,0-5.2-2.4-5.2-6.1c0-3.6,1.9-6.1,5.2-6.1
			C225.7,53.3,227.5,55.6,227.5,59.3z M219.4,59.3c0,3,1.1,4.4,3,4.4s3-1.4,3-4.4c0-3-1.1-4.4-3-4.4
			C220.4,54.9,219.4,56.3,219.4,59.3z"/>
		<path class="st4" d="M233.1,51.9v1.6h2.8l-0.2,1.6h-2.6v10h-2v-10H229v-1.6h2.1v-1.6c0-1.9,1.3-3.3,3.6-3.3c1.1,0,1.8,0.2,2.8,0.6
			l-0.6,1.5c-0.7-0.3-1.4-0.4-2-0.4C233.5,50.3,233.1,50.8,233.1,51.9z"/>
		<path class="st4" d="M119.8,90.6c-0.8,0.5-1.6,0.8-2.6,0.8c-2,0-3.1-1.1-3.1-3.3v-7h-2v-1.6h2v-2.6l2-0.2v2.9h2.8l-0.2,1.6h-2.5
			V88c0,1.2,0.4,1.7,1.4,1.7c0.5,0,1-0.2,1.5-0.5L119.8,90.6z"/>
		<path class="st4" d="M130.7,82.8v8.3h-2v-8c0-1.7-0.7-2.2-1.8-2.2c-1.3,0-2.2,0.8-2.9,2v8.3h-2V74.9l2-0.2v6.5
			c0.8-1.1,2-1.9,3.4-1.9C129.4,79.3,130.7,80.6,130.7,82.8z"/>
		<path class="st4" d="M143.5,86h-7.4c0.2,2.7,1.5,3.7,3.1,3.7c1.1,0,2-0.3,3-1l0.9,1.2c-1.1,0.9-2.4,1.5-4,1.5
			c-3.2,0-5.1-2.3-5.1-5.9c0-3.6,1.8-6.2,4.8-6.2c3.1,0,4.8,2.2,4.8,5.7C143.5,85.4,143.5,85.8,143.5,86z M141.5,84.4
			c0-2.3-0.9-3.5-2.7-3.5c-1.5,0-2.6,1.1-2.7,3.7h5.4V84.4z"/>
		<path class="st4" d="M164.6,83.6c0,5-2.6,7.8-6.4,7.8c-3.8,0-6.4-2.7-6.4-7.8c0-5,2.6-7.9,6.4-7.9C162,75.7,164.6,78.5,164.6,83.6
			z M154,83.6c0,4.4,1.7,6.1,4.2,6.1c2.6,0,4.2-1.7,4.2-6.1c0-4.4-1.6-6.1-4.2-6.1C155.7,77.4,154,79.2,154,83.6z"/>
		<path class="st4" d="M175.7,80.5l-1,1.3c-0.8-0.6-1.5-0.9-2.5-0.9c-1.8,0-3,1.4-3,4.4c0,3,1.1,4.3,3,4.3c1,0,1.6-0.3,2.5-0.9
			l0.9,1.3c-1,0.8-2.2,1.3-3.5,1.3c-3.1,0-5.1-2.2-5.1-6c0-3.7,1.9-6.2,5.1-6.2C173.5,79.3,174.6,79.6,175.7,80.5z"/>
		<path class="st4" d="M186,80.5l-1,1.3c-0.8-0.6-1.5-0.9-2.5-0.9c-1.8,0-3,1.4-3,4.4c0,3,1.1,4.3,3,4.3c1,0,1.6-0.3,2.5-0.9
			l0.9,1.3c-1,0.8-2.2,1.3-3.5,1.3c-3.1,0-5.1-2.2-5.1-6c0-3.7,1.9-6.2,5.1-6.2C183.8,79.3,184.9,79.6,186,80.5z"/>
		<path class="st4" d="M197.3,91.1h-1.7l-0.2-1.8c-0.9,1.4-2,2.1-3.6,2.1c-2,0-3.2-1.3-3.2-3.5v-8.3h2v8.1c0,1.6,0.5,2.2,1.8,2.2
			c1.3,0,2.2-0.8,2.9-2v-8.3h2V91.1z"/>
		<path class="st4" d="M211.1,85.3c0,3.5-1.6,6.1-4.6,6.1c-1.3,0-2.3-0.4-3-1.3v5.5l-2,0.2V79.5h1.7l0.2,1.6
			c0.9-1.2,2.1-1.8,3.4-1.8C209.9,79.3,211.1,81.7,211.1,85.3z M208.9,85.3c0-3-0.9-4.4-2.6-4.4c-1.2,0-2.2,0.9-2.8,1.8v5.7
			c0.6,0.9,1.5,1.4,2.6,1.4C207.9,89.7,208.9,88.4,208.9,85.3z"/>
		<path class="st4" d="M223.4,90l-0.5,1.4c-1.2-0.1-1.9-0.6-2.3-1.7c-0.8,1.2-2,1.7-3.5,1.7c-2.3,0-3.7-1.4-3.7-3.5
			c0-2.5,1.9-3.8,5.1-3.8h1.8v-0.9c0-1.7-0.8-2.3-2.4-2.3c-0.9,0-1.9,0.2-3.1,0.6l-0.5-1.5c1.4-0.5,2.7-0.8,4-0.8
			c2.8,0,4.1,1.4,4.1,3.9v5.3C222.4,89.4,222.8,89.8,223.4,90z M220.4,88.1v-2.7h-1.5c-2.1,0-3.2,0.8-3.2,2.4c0,1.4,0.7,2.1,2,2.1
			C218.8,89.9,219.7,89.3,220.4,88.1z"/>
		<path class="st4" d="M232.4,90.6c-0.8,0.5-1.6,0.8-2.6,0.8c-2,0-3.1-1.1-3.1-3.3v-7h-2v-1.6h2v-2.6l2-0.2v2.9h2.8l-0.2,1.6h-2.5
			V88c0,1.2,0.4,1.7,1.4,1.7c0.5,0,1-0.2,1.5-0.5L232.4,90.6z"/>
		<path class="st4" d="M236.9,75.3c0,0.8-0.6,1.4-1.4,1.4c-0.8,0-1.4-0.6-1.4-1.4c0-0.8,0.6-1.4,1.4-1.4
			C236.3,74,236.9,74.6,236.9,75.3z M236.5,91.1h-2V79.5h2V91.1z"/>
		<path class="st4" d="M250.2,85.3c0,3.6-1.9,6.1-5.2,6.1c-3.3,0-5.2-2.4-5.2-6.1c0-3.6,1.9-6.1,5.2-6.1
			C248.3,79.3,250.2,81.6,250.2,85.3z M242,85.3c0,3,1.1,4.4,3,4.4s3-1.4,3-4.4c0-3-1.1-4.4-3-4.4C243.1,80.9,242,82.3,242,85.3z"/>
		<path class="st4" d="M262.4,82.8v8.3h-2v-8c0-1.7-0.7-2.2-1.8-2.2c-1.3,0-2.2,0.8-2.9,2v8.2h-2V79.5h1.7l0.2,1.7
			c0.8-1.2,2-2,3.5-2C261.1,79.3,262.4,80.6,262.4,82.8z"/>
		<path class="st4" d="M274.7,75.3c0,0.8-0.6,1.4-1.4,1.4c-0.8,0-1.4-0.6-1.4-1.4c0-0.8,0.6-1.4,1.4-1.4
			C274.1,74,274.7,74.6,274.7,75.3z M274.3,91.1h-2V79.5h2V91.1z"/>
		<path class="st4" d="M287.3,82.8v8.3h-2v-8c0-1.7-0.7-2.2-1.8-2.2c-1.3,0-2.2,0.8-2.9,2v8.2h-2V79.5h1.7l0.2,1.7
			c0.8-1.2,2-2,3.5-2C286.1,79.3,287.3,80.6,287.3,82.8z"/>
		<path class="st4" d="M307.4,77.4l-1.2,1.3c-1.1-0.9-2-1.2-3.3-1.2c-2.2,0-4.4,1.7-4.4,6.1c0,4.4,1.5,6.1,4.1,6.1
			c1,0,2-0.2,2.9-0.7v-4.6h-2.7l-0.2-1.7h5V90c-1.4,0.8-3,1.3-5.1,1.3c-3.8,0-6.2-2.6-6.2-7.9c0-5.1,3.1-7.8,6.5-7.8
			C304.9,75.7,306.1,76.3,307.4,77.4z"/>
		<path class="st4" d="M317.3,79.4l-0.4,2c-0.4-0.1-0.6-0.1-1-0.1c-1.5,0-2.3,1-2.8,3.3v6.6h-2V79.5h1.7l0.2,2.4
			c0.6-1.7,1.7-2.6,3.1-2.6C316.5,79.3,316.9,79.3,317.3,79.4z"/>
		<path class="st4" d="M328.1,86h-7.4c0.2,2.7,1.5,3.7,3.1,3.7c1.1,0,2-0.3,3-1l0.9,1.2c-1.1,0.9-2.4,1.5-4,1.5
			c-3.2,0-5.1-2.3-5.1-5.9c0-3.6,1.8-6.2,4.8-6.2c3.1,0,4.8,2.2,4.8,5.7C328.1,85.4,328.1,85.8,328.1,86z M326.1,84.4
			c0-2.3-0.9-3.5-2.7-3.5c-1.5,0-2.6,1.1-2.7,3.7h5.4V84.4z"/>
		<path class="st4" d="M340.2,86h-7.4c0.2,2.7,1.5,3.7,3.1,3.7c1.1,0,2-0.3,3-1l0.9,1.2c-1.1,0.9-2.4,1.5-4,1.5
			c-3.2,0-5.1-2.3-5.1-5.9c0-3.6,1.8-6.2,4.8-6.2c3.1,0,4.8,2.2,4.8,5.7C340.2,85.4,340.2,85.8,340.2,86z M338.2,84.4
			c0-2.3-0.9-3.5-2.7-3.5c-1.5,0-2.6,1.1-2.7,3.7h5.4V84.4z"/>
		<path class="st4" d="M351.3,80.5l-1,1.3c-0.8-0.6-1.5-0.9-2.5-0.9c-1.8,0-3,1.4-3,4.4c0,3,1.1,4.3,3,4.3c1,0,1.6-0.3,2.5-0.9
			l0.9,1.3c-1,0.8-2.2,1.3-3.5,1.3c-3.1,0-5.1-2.2-5.1-6c0-3.7,1.9-6.2,5.1-6.2C349.1,79.3,350.2,79.6,351.3,80.5z"/>
		<path class="st4" d="M362.6,86h-7.4c0.2,2.7,1.5,3.7,3.1,3.7c1.1,0,2-0.3,3-1l0.9,1.2c-1.1,0.9-2.4,1.5-4,1.5
			c-3.2,0-5.1-2.3-5.1-5.9c0-3.6,1.8-6.2,4.8-6.2c3.1,0,4.8,2.2,4.8,5.7C362.6,85.4,362.6,85.8,362.6,86z M360.6,84.4
			c0-2.3-0.9-3.5-2.7-3.5c-1.5,0-2.6,1.1-2.7,3.7h5.4V84.4z"/>
	</g>
</g>
</svg>
