<?xml version="1.0" encoding="UTF-8" standalone="no"?>

<svg
   version="1.1"
   id="svg2"
   width="258.49332"
   height="76.373337"
   viewBox="0 0 258.49332 76.373337"
   xmlns="http://www.w3.org/2000/svg"
   xmlns:svg="http://www.w3.org/2000/svg">
  <defs
     id="defs6" />
  <g
     id="g10"
     transform="matrix(1.3333333,0,0,-1.3333333,0,76.373333)">
    <g
       id="g12"
       transform="scale(0.1)">
      <path
         d="m 765.688,474.641 c 5.917,-3.34 8.882,-9.239 8.882,-17.707 0,-8.473 -2.965,-14.371 -8.882,-17.7 L 600.027,344.172 c -2.578,-1.543 -5.402,-2.313 -8.496,-2.313 -5.402,0 -10.492,1.926 -15.254,5.778 -4.761,3.847 -7.14,8.461 -7.14,13.851 v 191.668 c 0,5.379 2.316,10.004 6.953,13.852 4.633,3.847 9.652,5.769 15.058,5.769 2.832,0 5.407,-0.644 7.723,-1.922 l 166.817,-96.214"
         style="fill:#000000;fill-opacity:1;fill-rule:nonzero;stroke:none"
         id="path14" />
      <path
         d="m 231.695,456.344 c 0,-32.074 -11.269,-59.336 -33.789,-81.789 -22.531,-22.45 -49.883,-33.672 -82.062,-33.672 -32.1838,0 -59.5315,11.222 -82.0549,33.672 C 11.2617,397.008 0,424.27 0,456.344 c 0,32.07 11.2617,59.332 33.7891,81.781 22.5234,22.453 49.8711,33.676 82.0549,33.676 32.179,0 59.531,-11.223 82.062,-33.676 22.52,-22.449 33.789,-49.711 33.789,-81.781"
         style="fill:#ff0013;fill-opacity:1;fill-rule:nonzero;stroke:none"
         id="path16" />
      <path
         d="m 468.867,356.871 c 0,-4.105 -1.484,-7.637 -4.437,-10.586 -2.965,-2.957 -6.508,-4.426 -10.621,-4.426 h -29.352 c -4.121,0 -7.66,1.469 -10.617,4.426 -2.961,2.949 -4.442,6.481 -4.442,10.586 V 557.77 c 0,4.101 1.481,7.632 4.442,10.582 2.957,2.953 6.496,4.425 10.617,4.425 h 29.352 c 4.113,0 7.656,-1.472 10.621,-4.425 2.953,-2.95 4.437,-6.481 4.437,-10.582 z m -95.383,0 c 0,-4.105 -1.48,-7.637 -4.437,-10.586 -2.961,-2.957 -6.504,-4.426 -10.617,-4.426 h -29.352 c -4.121,0 -7.66,1.469 -10.617,4.426 -2.965,2.949 -4.441,6.481 -4.441,10.586 V 557.77 c 0,4.101 1.476,7.632 4.441,10.582 2.957,2.953 6.496,4.425 10.617,4.425 h 29.352 c 4.113,0 7.656,-1.472 10.617,-4.425 2.957,-2.95 4.437,-6.481 4.437,-10.582 V 356.871"
         style="fill:#000000;fill-opacity:1;fill-rule:nonzero;stroke:none"
         id="path18" />
      <path
         d="m 75.6055,57.2266 c 8.7109,0 16.7968,1.5429 24.2461,4.6406 7.4534,3.0937 13.9254,7.4492 19.4254,13.0742 5.496,5.6172 9.754,12.1875 12.793,19.707 3.028,7.5116 4.539,15.6956 4.539,24.5316 0,8.722 -1.511,16.836 -4.539,24.347 -3.039,7.52 -7.297,14.09 -12.793,19.707 -5.5,5.625 -11.972,9.981 -19.4254,13.075 -7.4493,3.097 -15.5352,4.64 -24.2461,4.64 -8.8477,0 -16.9922,-1.543 -24.4453,-4.64 -7.4571,-3.094 -13.9258,-7.45 -19.4219,-13.075 -5.5,-5.617 -9.7578,-12.187 -12.793,-19.707 -3.0273,-7.511 -4.539,-15.625 -4.539,-24.347 0,-8.836 1.5117,-17.02 4.539,-24.5316 3.0352,-7.5195 7.293,-14.0898 12.793,-19.707 5.4961,-5.625 11.9648,-9.9805 19.4219,-13.0742 7.4531,-3.0977 15.5976,-4.6406 24.4453,-4.6406 z m 0,-14.0235 c -10.9961,0 -21.1016,1.8946 -30.3242,5.6836 -9.2149,3.7891 -17.2032,9.0938 -23.961,15.918 C 14.5586,71.6211 9.31641,79.6406 5.58594,88.8672 1.86328,98.0859 0,108.195 0,119.18 c 0,10.859 1.86328,20.91 5.58594,30.129 3.73047,9.218 8.97266,17.246 15.73436,24.058 6.7578,6.828 14.7461,12.129 23.961,15.918 9.2226,3.789 19.3281,5.688 30.3242,5.688 10.8593,0 20.8984,-1.899 30.1245,-5.688 9.219,-3.789 17.239,-9.09 24.067,-15.918 6.812,-6.812 12.09,-14.84 15.816,-24.058 3.723,-9.219 5.586,-19.27 5.586,-30.129 0,-10.985 -1.863,-21.0941 -5.586,-30.3128 -3.726,-9.2266 -9.004,-17.2461 -15.816,-24.0625 -6.828,-6.8242 -14.848,-12.1289 -24.067,-15.918 -9.2261,-3.789 -19.2652,-5.6836 -30.1245,-5.6836"
         style="fill:#000000;fill-opacity:1;fill-rule:nonzero;stroke:none"
         id="path20" />
      <path
         d="m 185.879,108.945 c 0.383,7.832 2.434,14.844 6.16,21.035 3.723,6.192 8.586,11.055 14.594,14.59 5.996,3.535 12.652,5.301 19.988,5.301 5.801,0 10.293,-0.816 13.445,-2.461 3.157,-1.637 4.36,-4.043 3.606,-7.195 -0.508,-1.895 -1.359,-3.164 -2.559,-3.789 -1.203,-0.637 -2.656,-0.891 -4.355,-0.762 -1.707,0.125 -3.633,0.254 -5.781,0.383 -7.082,0.633 -13.36,-0.098 -18.86,-2.18 -5.484,-2.09 -9.851,-5.273 -13.062,-9.57 -3.227,-4.297 -4.836,-9.414 -4.836,-15.352 z m 1.141,-63.8473 c -2.274,0 -4.051,0.625 -5.309,1.8945 -1.262,1.2617 -1.898,3.0273 -1.898,5.3047 v 89.2461 c 0,2.266 0.636,4.031 1.898,5.305 1.258,1.257 3.035,1.894 5.309,1.894 2.265,0 4.035,-0.637 5.304,-1.894 1.262,-1.274 1.895,-3.039 1.895,-5.305 V 52.2969 c 0,-2.2774 -0.633,-4.043 -1.895,-5.3047 -1.269,-1.2695 -3.039,-1.8945 -5.304,-1.8945"
         style="fill:#000000;fill-opacity:1;fill-rule:nonzero;stroke:none"
         id="path22" />
      <path
         d="m 351.484,45.0977 c -2.148,0 -3.918,0.664 -5.312,1.9804 -1.387,1.3321 -2.078,3.0703 -2.078,5.2188 v 32.4023 l 3.601,14.9688 11.172,-2.8438 V 52.2969 c 0,-2.1485 -0.691,-3.8867 -2.082,-5.2188 -1.394,-1.3164 -3.164,-1.9804 -5.301,-1.9804 z m -45.293,12.3125 c 7.325,0 13.868,1.7109 19.622,5.1211 5.742,3.4062 10.292,8.1132 13.64,14.1093 3.34,5.9961 5.02,12.7266 5.02,20.1836 0,7.5818 -1.68,14.3358 -5.02,20.2778 -3.348,5.933 -7.898,10.632 -13.64,14.109 -5.754,3.477 -12.297,5.215 -19.622,5.215 -7.199,0 -13.703,-1.738 -19.511,-5.215 -5.813,-3.477 -10.418,-8.176 -13.828,-14.109 -3.418,-5.942 -5.118,-12.696 -5.118,-20.2778 0,-7.457 1.7,-14.1875 5.118,-20.1836 3.41,-5.9961 8.015,-10.7031 13.828,-14.1093 5.808,-3.4102 12.312,-5.1211 19.511,-5.1211 z M 304.68,44.1523 c -9.731,0 -18.442,2.3008 -26.145,6.9141 -7.707,4.6094 -13.808,10.8984 -18.293,18.8438 -4.48,7.9609 -6.719,16.9375 -6.719,26.914 0,10.1018 2.297,19.1328 6.915,27.0898 4.613,7.961 10.89,14.242 18.847,18.859 7.961,4.61 16.926,6.915 26.906,6.915 9.981,0 18.914,-2.305 26.817,-6.915 7.89,-4.617 14.14,-10.898 18.762,-18.859 4.609,-7.957 6.968,-16.988 7.097,-27.0898 l -5.871,-4.5469 C 352.996,83.1836 350.879,75 346.648,67.7344 342.41,60.4688 336.672,54.7266 329.402,50.5 322.141,46.2617 313.895,44.1523 304.68,44.1523"
         style="fill:#000000;fill-opacity:1;fill-rule:nonzero;stroke:none"
         id="path24" />
      <path
         d="m 409.648,45.0977 c -5.058,0 -9.57,1.3867 -13.554,4.1718 -3.977,2.7735 -7.071,6.6289 -9.278,11.5508 -2.214,4.9336 -3.32,10.6172 -3.32,17.0508 V 185.879 c 0,2.148 0.664,3.887 1.992,5.207 1.328,1.324 3.059,1.988 5.203,1.988 2.153,0 3.887,-0.664 5.215,-1.988 1.328,-1.32 1.992,-3.059 1.992,-5.207 V 77.8711 c 0,-5.4297 1.106,-9.8516 3.313,-13.2617 2.207,-3.4102 5.019,-5.1172 8.437,-5.1172 h 4.739 c 1.89,0 3.406,-0.6641 4.539,-1.9805 1.14,-1.3281 1.711,-3.0664 1.711,-5.2148 0,-2.1485 -0.793,-3.8867 -2.367,-5.2188 -1.582,-1.3164 -3.629,-1.9804 -6.161,-1.9804 h -2.461"
         style="fill:#000000;fill-opacity:1;fill-rule:nonzero;stroke:none"
         id="path26" />
      <path
         d="m 451.289,89.6172 c -2.019,0 -3.73,0.6953 -5.117,2.0937 -1.399,1.3868 -2.09,3.0938 -2.09,5.1133 0,2.1406 0.691,3.9098 2.09,5.3048 1.387,1.387 3.098,2.082 5.117,2.082 h 44.524 c 2.148,0 3.914,-0.695 5.3,-2.082 1.399,-1.395 2.09,-3.1642 2.09,-5.3048 0,-2.0195 -0.691,-3.7265 -2.09,-5.1133 -1.386,-1.3984 -3.152,-2.0937 -5.3,-2.0937 h -44.524"
         style="fill:#000000;fill-opacity:1;fill-rule:nonzero;stroke:none"
         id="path28" />
      <path
         d="m 550.527,45.0977 c -2.148,0 -3.918,0.6953 -5.3,2.082 -1.399,1.3867 -2.09,3.1523 -2.09,5.3008 V 185.684 c 0,2.148 0.691,3.918 2.09,5.312 1.382,1.387 3.152,2.078 5.3,2.078 2.149,0 3.914,-0.691 5.301,-2.078 1.391,-1.394 2.094,-3.164 2.094,-5.312 v -59.11 h 92.461 v 59.11 c 0,2.148 0.691,3.918 2.09,5.312 1.382,1.387 3.152,2.078 5.3,2.078 2.149,0 3.915,-0.691 5.301,-2.078 1.391,-1.394 2.082,-3.164 2.082,-5.312 V 52.4805 c 0,-2.1485 -0.691,-3.9141 -2.082,-5.3008 -1.386,-1.3867 -3.152,-2.082 -5.301,-2.082 -2.148,0 -3.918,0.6953 -5.3,2.082 -1.399,1.3867 -2.09,3.1523 -2.09,5.3008 V 113.313 H 557.922 V 52.4805 c 0,-2.1485 -0.703,-3.9141 -2.094,-5.3008 -1.387,-1.3867 -3.152,-2.082 -5.301,-2.082"
         style="fill:#000000;fill-opacity:1;fill-rule:nonzero;stroke:none"
         id="path30" />
      <path
         d="m 714.805,45.0977 c -2.266,0 -4.075,0.664 -5.403,1.9804 -1.316,1.3321 -1.98,3.1367 -1.98,5.4024 v 88.8675 c 0,2.273 0.664,4.074 1.98,5.398 1.328,1.328 3.137,1.996 5.403,1.996 2.148,0 3.886,-0.668 5.215,-1.996 1.328,-1.324 1.992,-3.125 1.992,-5.398 V 52.4805 c 0,-2.2657 -0.664,-4.0703 -1.992,-5.4024 -1.329,-1.3164 -3.067,-1.9804 -5.215,-1.9804 z m -0.188,123.3513 c -2.781,0 -5.183,1.004 -7.195,3.028 -2.024,2.019 -3.035,4.48 -3.035,7.39 0,3.156 1.043,5.656 3.125,7.481 2.09,1.836 4.519,2.754 7.293,2.754 2.656,0 5.031,-0.918 7.109,-2.754 2.078,-1.825 3.125,-4.325 3.125,-7.481 0,-2.91 -1.016,-5.371 -3.027,-7.39 -2.024,-2.024 -4.492,-3.028 -7.395,-3.028"
         style="fill:#000000;fill-opacity:1;fill-rule:nonzero;stroke:none"
         id="path32" />
      <path
         d="m 795.332,44.1523 c -7.449,0 -14.844,1.2579 -22.168,3.7891 -7.324,2.5195 -13.262,6.3086 -17.812,11.3672 -1.387,1.5117 -1.961,3.2227 -1.7,5.1172 0.243,1.8945 1.192,3.5351 2.84,4.9219 1.77,1.2578 3.598,1.7656 5.488,1.5117 1.899,-0.2539 3.481,-1.0742 4.739,-2.461 3.039,-3.5351 7.043,-6.25 12.031,-8.1445 4.988,-1.8945 10.52,-2.8437 16.582,-2.8437 9.348,0 16.106,1.6132 20.273,4.8359 4.168,3.2227 6.321,7.1016 6.446,11.6523 0,4.5508 -2.149,8.3008 -6.446,11.2657 -4.296,2.9726 -11.367,5.2773 -21.218,6.9257 -12.766,2.0118 -22.114,5.5586 -28.039,10.6052 -5.95,5.047 -8.907,11.055 -8.907,18 0,6.446 1.7,11.817 5.11,16.114 3.418,4.285 7.957,7.507 13.64,9.656 5.696,2.148 11.946,3.223 18.758,3.223 8.469,0 15.766,-1.454 21.887,-4.356 6.133,-2.91 11.086,-6.824 14.875,-11.746 1.269,-1.652 1.766,-3.352 1.519,-5.117 -0.25,-1.77 -1.265,-3.227 -3.035,-4.356 -1.511,-0.89 -3.254,-1.172 -5.207,-0.859 -1.961,0.312 -3.633,1.23 -5.027,2.754 -3.152,3.66 -6.816,6.347 -10.984,8.047 -4.172,1.707 -8.977,2.558 -14.407,2.558 -6.941,0 -12.5,-1.418 -16.672,-4.258 -4.168,-2.843 -6.25,-6.417 -6.25,-10.714 0,-2.899 0.786,-5.43 2.368,-7.578 1.582,-2.149 4.297,-4.043 8.152,-5.684 3.848,-1.641 9.25,-3.027 16.199,-4.168 9.477,-1.516 16.953,-3.762 22.453,-6.7188 5.489,-2.9805 9.407,-6.4453 11.746,-10.4297 2.336,-3.9766 3.508,-8.3008 3.508,-12.9805 0,-5.9375 -1.738,-11.1406 -5.215,-15.625 -3.476,-4.4922 -8.269,-7.9961 -14.406,-10.5156 -6.121,-2.5312 -13.16,-3.7891 -21.121,-3.7891"
         style="fill:#000000;fill-opacity:1;fill-rule:nonzero;stroke:none"
         id="path34" />
      <path
         d="m 901.816,45.0977 c -6.687,0 -12.668,1.5742 -17.898,4.7382 -5.246,3.1524 -9.387,7.4805 -12.414,12.9766 -3.027,5.5 -4.551,11.7773 -4.551,18.8477 v 92.6558 c 0,2.149 0.664,3.918 1.992,5.313 1.328,1.387 3.067,2.082 5.215,2.082 2.141,0 3.906,-0.695 5.305,-2.082 1.387,-1.395 2.078,-3.164 2.078,-5.313 V 81.6602 c 0,-6.4336 1.895,-11.711 5.684,-15.8204 3.789,-4.1015 8.652,-6.1523 14.589,-6.1523 h 5.118 c 2.019,0 3.664,-0.6953 4.929,-2.0898 1.262,-1.3868 1.899,-3.1524 1.899,-5.3008 0,-2.1485 -0.766,-3.8867 -2.278,-5.2188 -1.511,-1.3164 -3.41,-1.9804 -5.683,-1.9804 z m -47.175,87.1603 c -1.899,0 -3.481,0.594 -4.739,1.797 -1.257,1.199 -1.894,2.683 -1.894,4.453 0,1.894 0.637,3.437 1.894,4.648 1.258,1.192 2.84,1.793 4.739,1.793 h 48.32 c 1.894,0 3.465,-0.601 4.734,-1.793 1.258,-1.211 1.895,-2.754 1.895,-4.648 0,-1.77 -0.637,-3.254 -1.895,-4.453 -1.269,-1.203 -2.84,-1.797 -4.734,-1.797 h -48.32"
         style="fill:#000000;fill-opacity:1;fill-rule:nonzero;stroke:none"
         id="path36" />
      <path
         d="m 984.609,57.4102 c 7.325,0 13.899,1.7109 19.711,5.1211 5.81,3.4062 10.36,8.0742 13.64,14.0234 3.29,5.9258 4.93,12.6914 4.93,20.2695 0,7.5818 -1.64,14.3668 -4.93,20.3638 -3.28,6.007 -7.83,10.714 -13.64,14.121 -5.812,3.41 -12.386,5.117 -19.711,5.117 -7.324,0 -13.894,-1.707 -19.699,-5.117 -5.816,-3.407 -10.398,-8.114 -13.738,-14.121 -3.352,-5.997 -5.02,-12.782 -5.02,-20.3638 0,-7.5781 1.668,-14.3437 5.02,-20.2695 3.34,-5.9492 7.922,-10.6172 13.738,-14.0234 5.805,-3.4102 12.375,-5.1211 19.699,-5.1211 z m 0,-13.2579 c -10.105,0 -19.129,2.2735 -27.089,6.8165 -7.957,4.5507 -14.207,10.8007 -18.758,18.7578 -4.551,7.9609 -6.821,16.9922 -6.821,27.0976 0,10.2268 2.27,19.3278 6.821,27.2888 4.551,7.957 10.801,14.207 18.758,18.75 7.96,4.547 16.984,6.825 27.089,6.825 10.11,0 19.111,-2.278 27.001,-6.825 7.9,-4.543 14.12,-10.793 18.66,-18.75 4.55,-7.961 6.89,-17.062 7.02,-27.2888 0,-10.1054 -2.31,-19.1367 -6.92,-27.0976 -4.61,-7.9571 -10.86,-14.2071 -18.76,-18.7578 -7.89,-4.543 -16.891,-6.8165 -27.001,-6.8165"
         style="fill:#000000;fill-opacity:1;fill-rule:nonzero;stroke:none"
         id="path38" />
      <path
         d="m 1071.77,108.945 c 0.38,7.832 2.43,14.844 6.16,21.035 3.72,6.192 8.58,11.055 14.59,14.59 6,3.535 12.66,5.301 19.99,5.301 5.8,0 10.29,-0.816 13.45,-2.461 3.15,-1.637 4.35,-4.043 3.6,-7.195 -0.51,-1.895 -1.36,-3.164 -2.56,-3.789 -1.2,-0.637 -2.65,-0.891 -4.35,-0.762 -1.71,0.125 -3.64,0.254 -5.78,0.383 -7.08,0.633 -13.36,-0.098 -18.86,-2.18 -5.49,-2.09 -9.86,-5.273 -13.07,-9.57 -3.22,-4.297 -4.83,-9.414 -4.83,-15.352 z m 1.14,-63.8473 c -2.28,0 -4.05,0.625 -5.31,1.8945 -1.26,1.2617 -1.9,3.0273 -1.9,5.3047 v 89.2461 c 0,2.266 0.64,4.031 1.9,5.305 1.26,1.257 3.03,1.894 5.31,1.894 2.27,0 4.03,-0.637 5.3,-1.894 1.26,-1.274 1.9,-3.039 1.9,-5.305 V 52.2969 c 0,-2.2774 -0.64,-4.043 -1.9,-5.3047 -1.27,-1.2695 -3.03,-1.8945 -5.3,-1.8945"
         style="fill:#000000;fill-opacity:1;fill-rule:nonzero;stroke:none"
         id="path40" />
      <path
         d="m 1170.3,0 c -1.01,0 -2.15,0.253906 -3.41,0.761719 -4.29,1.894531 -5.49,4.921871 -3.6,9.093751 l 61.2,134.90253 c 1.9,4.043 4.93,5.183 9.1,3.418 4.29,-1.778 5.49,-4.738 3.6,-8.906 L 1175.8,4.35547 C 1174.53,1.45313 1172.71,0 1170.3,0 Z m 21.04,48.3203 c -1.9,-0.8867 -3.67,-1.043 -5.31,-0.4765 -1.65,0.5664 -2.97,1.7968 -3.98,3.6914 l -42.26,87.5388 c -0.87,1.895 -1,3.66 -0.38,5.313 0.64,1.64 1.9,2.898 3.8,3.789 1.9,0.879 3.67,1.035 5.31,0.469 1.64,-0.571 2.9,-1.797 3.78,-3.696 l 41.5,-87.5388 c 1,-1.8907 1.33,-3.6602 0.95,-5.3008 -0.38,-1.6485 -1.52,-2.9102 -3.41,-3.7891"
         style="fill:#000000;fill-opacity:1;fill-rule:nonzero;stroke:none"
         id="path42" />
      <path
         d="m 1269.73,42.0625 c -3.03,0 -5.62,1.0742 -7.77,3.2227 -2.15,2.1484 -3.22,4.7343 -3.22,7.7734 0,3.1523 1.1,5.8008 3.32,7.957 2.21,2.1407 4.77,3.2149 7.67,3.2149 3.03,0 5.62,-1.1055 7.77,-3.3125 2.15,-2.2188 3.22,-4.8321 3.22,-7.8594 0,-2.9102 -1.04,-5.4688 -3.12,-7.6758 -2.09,-2.207 -4.71,-3.3203 -7.87,-3.3203"
         style="fill:#000000;fill-opacity:1;fill-rule:nonzero;stroke:none"
         id="path44" />
      <path
         d="m 1333.93,58.3594 h 26.7 c 11.63,0 21.89,2.6172 30.8,7.8633 8.9,5.2421 15.88,12.4375 20.93,21.6015 5.05,9.1602 7.58,19.6098 7.58,31.3558 0,11.75 -2.53,22.199 -7.58,31.355 -5.05,9.164 -12.03,16.332 -20.93,21.504 -8.91,5.188 -19.17,7.777 -30.8,7.777 h -26.7 z m -7.4,-13.2617 c -2.15,0 -3.91,0.6953 -5.3,2.082 -1.4,1.3867 -2.09,3.1523 -2.09,5.3008 V 185.684 c 0,2.148 0.69,3.918 2.09,5.312 1.39,1.387 3.15,2.078 5.3,2.078 h 34.1 c 10.87,0 20.82,-1.793 29.85,-5.398 9.03,-3.602 16.83,-8.711 23.41,-15.34 6.56,-6.641 11.65,-14.434 15.24,-23.41 3.6,-8.965 5.4,-18.887 5.4,-29.746 0,-10.86 -1.8,-20.8128 -5.4,-29.8441 -3.59,-9.0312 -8.68,-16.8632 -15.24,-23.4961 -6.58,-6.6289 -14.38,-11.746 -23.41,-15.3398 -9.03,-3.6055 -18.98,-5.4023 -29.85,-5.4023 h -34.1"
         style="fill:#000000;fill-opacity:1;fill-rule:nonzero;stroke:none"
         id="path46" />
      <path
         d="m 1473.55,45.0977 c -2.26,0 -4.07,0.664 -5.4,1.9804 -1.31,1.3321 -1.98,3.1367 -1.98,5.4024 v 88.8675 c 0,2.273 0.67,4.074 1.98,5.398 1.33,1.328 3.14,1.996 5.4,1.996 2.15,0 3.89,-0.668 5.22,-1.996 1.33,-1.324 1.99,-3.125 1.99,-5.398 V 52.4805 c 0,-2.2657 -0.66,-4.0703 -1.99,-5.4024 -1.33,-1.3164 -3.07,-1.9804 -5.22,-1.9804 z m -0.18,123.3513 c -2.78,0 -5.19,1.004 -7.2,3.028 -2.02,2.019 -3.04,4.48 -3.04,7.39 0,3.156 1.05,5.656 3.13,7.481 2.09,1.836 4.52,2.754 7.29,2.754 2.66,0 5.03,-0.918 7.11,-2.754 2.08,-1.825 3.13,-4.325 3.13,-7.481 0,-2.91 -1.02,-5.371 -3.03,-7.39 -2.02,-2.024 -4.49,-3.028 -7.39,-3.028"
         style="fill:#000000;fill-opacity:1;fill-rule:nonzero;stroke:none"
         id="path48" />
      <path
         d="m 1565.07,57.4102 c 7.46,0 14.05,1.6718 19.8,5.0234 5.75,3.3477 10.27,7.9883 13.55,13.9258 3.29,5.9375 4.93,12.7617 4.93,20.4648 0,7.6988 -1.64,14.5548 -4.93,20.5588 -3.28,5.996 -7.8,10.676 -13.55,14.023 -5.75,3.34 -12.34,5.02 -19.8,5.02 -7.45,0 -14.08,-1.68 -19.89,-5.02 -5.81,-3.347 -10.37,-8.027 -13.65,-14.023 -3.28,-6.004 -4.92,-12.86 -4.92,-20.5588 0,-7.7031 1.64,-14.5273 4.92,-20.4648 3.28,-5.9375 7.84,-10.5781 13.65,-13.9258 5.81,-3.3516 12.44,-5.0234 19.89,-5.0234 z m 0.38,-53.23832 c -9.98,0 -18.76,1.86328 -26.34,5.58593 -7.58,3.73049 -13.83,8.80859 -18.76,15.25389 -1.39,1.5117 -1.98,3.1641 -1.8,4.9297 0.2,1.7695 1.11,3.2149 2.75,4.3555 1.64,1.1328 3.48,1.5156 5.5,1.1328 2.02,-0.3789 3.6,-1.3281 4.73,-2.8399 3.67,-4.5429 8.37,-8.2031 14.12,-10.9882 5.75,-2.7813 12.42,-4.168 19.99,-4.168 7.07,0 13.45,1.707 19.14,5.1172 5.68,3.4062 10.2,8.2109 13.55,14.3945 3.34,6.1914 5.02,13.457 5.02,21.7969 v 28.7969 l 5.49,10.9882 8.9,-1.7031 V 58.1758 c 0,-10.2344 -2.26,-19.4258 -6.81,-27.5781 -4.55,-8.1485 -10.74,-14.5899 -18.58,-19.3282 -7.83,-4.73434 -16.79,-7.09762 -26.9,-7.09762 z m -1.9,39.98042 c -9.98,0 -18.81,2.2344 -26.52,6.7266 -7.7,4.4844 -13.74,10.7031 -18.09,18.6602 -4.36,7.9609 -6.54,17.0547 -6.54,27.2851 0,10.3558 2.27,19.5158 6.82,27.4728 4.55,7.961 10.8,14.18 18.76,18.664 7.96,4.48 16.98,6.727 27.09,6.727 10.23,0 19.3,-2.247 27.2,-6.727 7.89,-4.484 14.08,-10.703 18.56,-18.664 4.48,-7.957 6.79,-17.117 6.91,-27.4728 l -8.52,-4.5469 c 0,-9.3476 -1.95,-17.6601 -5.87,-24.914 -3.92,-7.2656 -9.32,-12.9492 -16.2,-17.0586 -6.89,-4.1055 -14.76,-6.1524 -23.6,-6.1524"
         style="fill:#000000;fill-opacity:1;fill-rule:nonzero;stroke:none"
         id="path50" />
      <path
         d="m 1656.59,45.0977 c -2.26,0 -4.07,0.664 -5.4,1.9804 -1.32,1.3321 -1.98,3.1367 -1.98,5.4024 v 88.8675 c 0,2.273 0.66,4.074 1.98,5.398 1.33,1.328 3.14,1.996 5.4,1.996 2.15,0 3.89,-0.668 5.22,-1.996 1.32,-1.324 1.99,-3.125 1.99,-5.398 V 52.4805 c 0,-2.2657 -0.67,-4.0703 -1.99,-5.4024 -1.33,-1.3164 -3.07,-1.9804 -5.22,-1.9804 z m -0.18,123.3513 c -2.79,0 -5.19,1.004 -7.2,3.028 -2.02,2.019 -3.04,4.48 -3.04,7.39 0,3.156 1.05,5.656 3.13,7.481 2.09,1.836 4.52,2.754 7.29,2.754 2.66,0 5.03,-0.918 7.11,-2.754 2.08,-1.825 3.13,-4.325 3.13,-7.481 0,-2.91 -1.02,-5.371 -3.03,-7.39 -2.02,-2.024 -4.49,-3.028 -7.39,-3.028"
         style="fill:#000000;fill-opacity:1;fill-rule:nonzero;stroke:none"
         id="path52" />
      <path
         d="m 1741.47,45.0977 c -6.68,0 -12.66,1.5742 -17.9,4.7382 -5.24,3.1524 -9.38,7.4805 -12.41,12.9766 -3.03,5.5 -4.55,11.7773 -4.55,18.8477 v 92.6558 c 0,2.149 0.67,3.918 1.99,5.313 1.33,1.387 3.07,2.082 5.22,2.082 2.14,0 3.9,-0.695 5.3,-2.082 1.39,-1.395 2.08,-3.164 2.08,-5.313 V 81.6602 c 0,-6.4336 1.9,-11.711 5.68,-15.8204 3.79,-4.1015 8.66,-6.1523 14.59,-6.1523 h 5.12 c 2.02,0 3.66,-0.6953 4.93,-2.0898 1.26,-1.3868 1.9,-3.1524 1.9,-5.3008 0,-2.1485 -0.76,-3.8867 -2.28,-5.2188 -1.51,-1.3164 -3.41,-1.9804 -5.68,-1.9804 z m -47.17,87.1603 c -1.9,0 -3.48,0.594 -4.74,1.797 -1.26,1.199 -1.89,2.683 -1.89,4.453 0,1.894 0.63,3.437 1.89,4.648 1.26,1.192 2.84,1.793 4.74,1.793 h 48.32 c 1.89,0 3.46,-0.601 4.73,-1.793 1.26,-1.211 1.9,-2.754 1.9,-4.648 0,-1.77 -0.64,-3.254 -1.9,-4.453 -1.27,-1.203 -2.84,-1.797 -4.73,-1.797 h -48.32"
         style="fill:#000000;fill-opacity:1;fill-rule:nonzero;stroke:none"
         id="path54" />
      <path
         d="m 1869.56,45.0977 c -2.15,0 -3.92,0.664 -5.31,1.9804 -1.39,1.3321 -2.08,3.0703 -2.08,5.2188 v 32.4023 l 3.6,14.9688 11.17,-2.8438 V 52.2969 c 0,-2.1485 -0.69,-3.8867 -2.08,-5.2188 -1.39,-1.3164 -3.16,-1.9804 -5.3,-1.9804 z m -45.29,12.3125 c 7.32,0 13.86,1.7109 19.62,5.1211 5.74,3.4062 10.29,8.1132 13.64,14.1093 3.34,5.9961 5.02,12.7266 5.02,20.1836 0,7.5818 -1.68,14.3358 -5.02,20.2778 -3.35,5.933 -7.9,10.632 -13.64,14.109 -5.76,3.477 -12.3,5.215 -19.62,5.215 -7.2,0 -13.7,-1.738 -19.51,-5.215 -5.81,-3.477 -10.42,-8.176 -13.83,-14.109 -3.42,-5.942 -5.12,-12.696 -5.12,-20.2778 0,-7.457 1.7,-14.1875 5.12,-20.1836 3.41,-5.9961 8.02,-10.7031 13.83,-14.1093 5.81,-3.4102 12.31,-5.1211 19.51,-5.1211 z m -1.52,-13.2579 c -9.72,0 -18.43,2.3008 -26.14,6.9141 -7.7,4.6094 -13.81,10.8984 -18.29,18.8438 -4.48,7.9609 -6.72,16.9375 -6.72,26.914 0,10.1018 2.3,19.1328 6.92,27.0898 4.61,7.961 10.88,14.242 18.84,18.859 7.96,4.61 16.93,6.915 26.91,6.915 9.98,0 18.91,-2.305 26.81,-6.915 7.89,-4.617 14.14,-10.898 18.76,-18.859 4.61,-7.957 6.98,-16.988 7.1,-27.0898 l -5.87,-4.5469 c 0,-9.0937 -2.11,-17.2773 -6.34,-24.5429 -4.24,-7.2656 -9.98,-13.0078 -17.25,-17.2344 -7.27,-4.2383 -15.51,-6.3477 -24.73,-6.3477"
         style="fill:#000000;fill-opacity:1;fill-rule:nonzero;stroke:none"
         id="path56" />
      <path
         d="m 1927.73,45.0977 c -5.05,0 -9.57,1.3867 -13.55,4.1718 -3.97,2.7735 -7.07,6.6289 -9.28,11.5508 -2.21,4.9336 -3.32,10.6172 -3.32,17.0508 V 185.879 c 0,2.148 0.67,3.887 1.99,5.207 1.33,1.324 3.06,1.988 5.21,1.988 2.15,0 3.89,-0.664 5.21,-1.988 1.33,-1.32 2,-3.059 2,-5.207 V 77.8711 c 0,-5.4297 1.1,-9.8516 3.31,-13.2617 2.2,-3.4102 5.02,-5.1172 8.43,-5.1172 h 4.74 c 1.9,0 3.41,-0.6641 4.54,-1.9805 1.14,-1.3281 1.71,-3.0664 1.71,-5.2148 0,-2.1485 -0.79,-3.8867 -2.36,-5.2188 -1.58,-1.3164 -3.64,-1.9804 -6.16,-1.9804 h -2.47"
         style="fill:#000000;fill-opacity:1;fill-rule:nonzero;stroke:none"
         id="path58" />
    </g>
  </g>
</svg>
