<?xml version="1.0" encoding="UTF-8" standalone="no"?>

<svg
   version="1.1"
   id="svg2"
   width="103.276"
   height="30.919001"
   viewBox="0 0 103.276 30.919001"
   xmlns="http://www.w3.org/2000/svg"
   xmlns:svg="http://www.w3.org/2000/svg">
  <defs
     id="defs6" />
  <g
     id="g10"
     transform="matrix(1.3333333,0,0,-1.3333333,0,76.373333)">
    <g
       id="g12"
       transform="scale(0.1)">
      <path
         d="m 765.688,474.641 c 5.917,-3.34 8.882,-9.239 8.882,-17.707 0,-8.473 -2.965,-14.371 -8.882,-17.7 L 600.027,344.172 c -2.578,-1.543 -5.402,-2.313 -8.496,-2.313 -5.402,0 -10.492,1.926 -15.254,5.778 -4.761,3.847 -7.14,8.461 -7.14,13.851 v 191.668 c 0,5.379 2.316,10.004 6.953,13.852 4.633,3.847 9.652,5.769 15.058,5.769 2.832,0 5.407,-0.644 7.723,-1.922 l 166.817,-96.214"
         style="fill:#000000;fill-opacity:1;fill-rule:nonzero;stroke:none"
         id="path14" />
      <path
         d="m 231.695,456.344 c 0,-32.074 -11.269,-59.336 -33.789,-81.789 -22.531,-22.45 -49.883,-33.672 -82.062,-33.672 -32.1838,0 -59.5315,11.222 -82.0549,33.672 C 11.2617,397.008 0,424.27 0,456.344 c 0,32.07 11.2617,59.332 33.7891,81.781 22.5234,22.453 49.8711,33.676 82.0549,33.676 32.179,0 59.531,-11.223 82.062,-33.676 22.52,-22.449 33.789,-49.711 33.789,-81.781"
         style="fill:#ff0013;fill-opacity:1;fill-rule:nonzero;stroke:none"
         id="path16" />
      <path
         d="m 468.867,356.871 c 0,-4.105 -1.484,-7.637 -4.437,-10.586 -2.965,-2.957 -6.508,-4.426 -10.621,-4.426 h -29.352 c -4.121,0 -7.66,1.469 -10.617,4.426 -2.961,2.949 -4.442,6.481 -4.442,10.586 V 557.77 c 0,4.101 1.481,7.632 4.442,10.582 2.957,2.953 6.496,4.425 10.617,4.425 h 29.352 c 4.113,0 7.656,-1.472 10.621,-4.425 2.953,-2.95 4.437,-6.481 4.437,-10.582 z m -95.383,0 c 0,-4.105 -1.48,-7.637 -4.437,-10.586 -2.961,-2.957 -6.504,-4.426 -10.617,-4.426 h -29.352 c -4.121,0 -7.66,1.469 -10.617,4.426 -2.965,2.949 -4.441,6.481 -4.441,10.586 V 557.77 c 0,4.101 1.476,7.632 4.441,10.582 2.957,2.953 6.496,4.425 10.617,4.425 h 29.352 c 4.113,0 7.656,-1.472 10.617,-4.425 2.957,-2.95 4.437,-6.481 4.437,-10.582 V 356.871"
         style="fill:#000000;fill-opacity:1;fill-rule:nonzero;stroke:none"
         id="path18" />
    </g>
  </g>
</svg>
