<svg width="78" height="24" viewBox="0 0 78 24" fill="none" xmlns="http://www.w3.org/2000/svg">
<path d="M75.6922 10.1133C76.2733 10.4405 76.5644 11.0184 76.5644 11.8479C76.5644 12.6779 76.2733 13.2557 75.6922 13.5818L59.4239 22.894C59.1707 23.0452 58.8934 23.1206 58.5895 23.1206C58.059 23.1206 57.5592 22.9319 57.0915 22.5546C56.624 22.1777 56.3904 21.7258 56.3904 21.1978V2.42204C56.3904 1.89511 56.6178 1.44205 57.0732 1.0651C57.5282 0.688252 58.021 0.499975 58.5519 0.499975C58.83 0.499975 59.0829 0.563061 59.3103 0.688253L75.6922 10.1133Z" stroke="black"/>
<path d="M23.2531 11.9055C23.2531 15.0474 22.1464 17.718 19.9349 19.9175C17.7223 22.1167 15.0363 23.216 11.8762 23.216C8.71566 23.216 6.03004 22.1167 3.81818 19.9175C1.60593 17.718 0.5 15.0474 0.5 11.9055C0.5 8.76393 1.60593 6.09335 3.81818 3.89426C6.03004 1.69477 8.71566 0.595365 11.8762 0.595365C15.0363 0.595365 17.7223 1.69477 19.9349 3.89426C22.1464 6.09335 23.2531 8.76393 23.2531 11.9055Z" stroke="black"/>
<path d="M46.5438 21.65C46.5438 22.0522 46.3981 22.3982 46.1081 22.687C45.8169 22.9767 45.469 23.1206 45.0651 23.1206H42.1826C41.7779 23.1206 41.4304 22.9767 41.14 22.687C40.8492 22.3982 40.7038 22.0522 40.7038 21.65V1.97005C40.7038 1.56832 40.8492 1.22243 41.14 0.933445C41.4304 0.644171 41.7779 0.499975 42.1826 0.499975H45.0651C45.469 0.499975 45.8169 0.644171 46.1081 0.933445C46.3981 1.22243 46.5438 1.56832 46.5438 1.97005V21.65ZM37.1769 21.65C37.1769 22.0522 37.0316 22.3982 36.7412 22.687C36.4504 22.9767 36.1025 23.1206 35.6986 23.1206H32.8161C32.4114 23.1206 32.0639 22.9767 31.7735 22.687C31.4824 22.3982 31.3374 22.0522 31.3374 21.65V1.97005C31.3374 1.56832 31.4824 1.22243 31.7735 0.933445C32.0639 0.644171 32.4114 0.499975 32.8161 0.499975H35.6986C36.1025 0.499975 36.4504 0.644171 36.7412 0.933445C37.0316 1.22243 37.1769 1.56832 37.1769 1.97005V21.65Z" stroke="black"/>
</svg>
