<?xml version="1.0" encoding="utf-8"?>
<!-- Generator: Adobe Illustrator 15.0.2, SVG Export Plug-In . SVG Version: 6.00 Build 0)  -->
<!DOCTYPE svg PUBLIC "-//W3C//DTD SVG 1.1//EN" "http://www.w3.org/Graphics/SVG/1.1/DTD/svg11.dtd">
<svg version="1.1" xmlns="http://www.w3.org/2000/svg" xmlns:xlink="http://www.w3.org/1999/xlink" x="0px" y="0px" width="32px"
	 height="32px" viewBox="0 0 32 32" enable-background="new 0 0 32 32" xml:space="preserve">
<g id="Grid" display="none">
	<g display="inline">
		<g opacity="0.1">
			<g>
				<g>
					<rect x="576" y="128" width="32" height="32"/>
				</g>
				<g>
					<rect x="512" y="128" width="32" height="32"/>
				</g>
				<g>
					<rect x="448" y="128" width="32" height="32"/>
				</g>
				<g>
					<rect x="384" y="128" width="32" height="32"/>
				</g>
				<g>
					<rect x="320" y="128" width="32" height="32"/>
				</g>
				<g>
					<rect x="256" y="128" width="32" height="32"/>
				</g>
				<g>
					<rect x="192" y="128" width="32" height="32"/>
				</g>
				<g>
					<rect x="128" y="128" width="32" height="32"/>
				</g>
				<g>
					<rect x="64" y="128" width="32" height="32"/>
				</g>
				<g>
					<rect y="128" width="32" height="32"/>
				</g>
				<g>
					<rect x="-64" y="128" width="32" height="32"/>
				</g>
			</g>
			<g>
				<g>
					<rect x="576" y="64" width="32" height="32"/>
				</g>
				<g>
					<rect x="512" y="64" width="32" height="32"/>
				</g>
				<g>
					<rect x="448" y="64" width="32" height="32"/>
				</g>
				<g>
					<rect x="384" y="64" width="32" height="32"/>
				</g>
				<g>
					<rect x="320" y="64" width="32" height="32"/>
				</g>
				<g>
					<rect x="256" y="64" width="32" height="32"/>
				</g>
				<g>
					<rect x="192" y="64" width="32" height="32"/>
				</g>
				<g>
					<rect x="128" y="64" width="32" height="32"/>
				</g>
				<g>
					<rect x="64" y="64" width="32" height="32"/>
				</g>
				<g>
					<rect y="64" width="32" height="32"/>
				</g>
				<g>
					<rect x="-64" y="64" width="32" height="32"/>
				</g>
			</g>
			<g>
				<g>
					<rect x="576" width="32" height="32"/>
				</g>
				<g>
					<rect x="512" width="32" height="32"/>
				</g>
				<g>
					<rect x="448" width="32" height="32"/>
				</g>
				<g>
					<rect x="384" width="32" height="32"/>
				</g>
				<g>
					<rect x="320" width="32" height="32"/>
				</g>
				<g>
					<rect x="256" width="32" height="32"/>
				</g>
				<g>
					<rect x="192" width="32" height="32"/>
				</g>
				<g>
					<rect x="128" width="32" height="32"/>
				</g>
				<g>
					<rect x="64" width="32" height="32"/>
				</g>
				<g>
					<rect width="32" height="32"/>
				</g>
				<g>
					<rect x="-64" width="32" height="32"/>
				</g>
			</g>
			<g>
				<g>
					<rect x="576" y="-64" width="32" height="32"/>
				</g>
				<g>
					<rect x="512" y="-64" width="32" height="32"/>
				</g>
				<g>
					<rect x="448" y="-64" width="32" height="32"/>
				</g>
				<g>
					<rect x="384" y="-64" width="32" height="32"/>
				</g>
				<g>
					<rect x="320" y="-64" width="32" height="32"/>
				</g>
				<g>
					<rect x="256" y="-64" width="32" height="32"/>
				</g>
				<g>
					<rect x="192" y="-64" width="32" height="32"/>
				</g>
				<g>
					<rect x="128" y="-64" width="32" height="32"/>
				</g>
				<g>
					<rect x="64" y="-64" width="32" height="32"/>
				</g>
				<g>
					<rect y="-64" width="32" height="32"/>
				</g>
				<g>
					<rect x="-64" y="-64" width="32" height="32"/>
				</g>
			</g>
			<g>
				<g>
					<rect x="576" y="-128" width="32" height="32"/>
				</g>
				<g>
					<rect x="512" y="-128" width="32" height="32"/>
				</g>
				<g>
					<rect x="448" y="-128" width="32" height="32"/>
				</g>
				<g>
					<rect x="384" y="-128" width="32" height="32"/>
				</g>
				<g>
					<rect x="320" y="-128" width="32" height="32"/>
				</g>
				<g>
					<rect x="256" y="-128" width="32" height="32"/>
				</g>
				<g>
					<rect x="192" y="-128" width="32" height="32"/>
				</g>
				<g>
					<rect x="128" y="-128" width="32" height="32"/>
				</g>
				<g>
					<rect x="64" y="-128" width="32" height="32"/>
				</g>
				<g>
					<rect y="-128" width="32" height="32"/>
				</g>
				<g>
					<rect x="-64" y="-128" width="32" height="32"/>
				</g>
			</g>
		</g>
	</g>
</g>
<g id="Workspace">
	<g>
		<g>
			<polygon points="10.371,26.686 23,16 10.371,5.314 9,6.934 19.714,16 9,25.066 			"/>
		</g>
	</g>
</g>
</svg>
