<?xml version="1.0" encoding="utf-8"?>
<!-- Generator: Adobe Illustrator 21.1.0, SVG Export Plug-In . SVG Version: 6.00 Build 0)  -->
<svg version="1.0" xmlns="http://www.w3.org/2000/svg" xmlns:xlink="http://www.w3.org/1999/xlink" x="0px" y="0px"
	 viewBox="0 0 428.7 97.3" style="enable-background:new 0 0 428.7 97.3;" xml:space="preserve">
<style type="text/css">
	.st0{display:none;}
	.st1{display:inline;}
	.st2{fill:#0071B8;}
	.st3{fill:#FFFFFF;stroke:#FFFFFF;stroke-width:0.5;stroke-miterlimit:10;}
	.st4{fill:#0372B8;}
</style>
<g id="Ebene_2" class="st0">
	<g id="e6E92O_1_" class="st1">
		
			<image style="overflow:visible;" width="446" height="470" id="e6E92O" xlink:href="8EA933423E18160C.jpg"  transform="matrix(0.6719 0 0 0.6719 -630.9499 519.598)">
		</image>
	</g>
</g>
<g id="Ebene_1">
</g>
<g id="Ebene_3">
	<g>
		<path class="st2" d="M6.6,36.1"/>
		<polyline class="st2" points="43.5,97.1 96.5,97.1 96.5,0 0.1,0 0.1,97.1 42.7,97.1 		"/>
		<path class="st3" d="M51.2,69.1c1.4-8.8,1.2-17.4-1.8-25.8c-0.5-1.3-0.9-2.7-1.3-4.1c-0.3-1.1,1-4.3,2-4.9c0.9-0.5,1-1.2,1-2
			c-0.1-1.2-0.3-2.3,0-3.5c0.8-3,1.3-6,1.7-9.1c0.3-2.3,0.7-4.6,0.2-6.9c-1-4.2-5-5.5-8.2-2.5c-0.8,0.7-1.2,0.8-2,0.1
			C40.1,8.2,37,7,33.5,8.9c-1.9,1-3.9,1.5-5.9,1.5c-2.7,0.1-4.8,1.1-6.3,3.4c-1,1.6-2.4,2.8-4,3.7c-0.5,0.3-1,0.6-1.4,1
			c-1.4,1.3-1.6,2-0.6,3.6c0.8,1.3,0.8,2.6,0.3,4c-0.4,0.9-0.7,1.8-1,2.8c-0.7,1.8-1.2,3.6-0.6,5.5c0.8,2.7,1.3,5.3,0.8,8.2
			c-0.5,2.4,1.4,4.1,3.8,4c1.3-0.1,2.6-0.4,3.8-0.8c0.5-0.2,0.9-0.4,1.4-0.2c2.2,1,4.6,1,7,0.8c0.3,0,0.6,0,0.9,0.1
			c1.9,0.7,3.8,0.3,5.4-0.8c3.1-2.3,6.6-3.7,9.4-6.4c0.6-0.6,0.8-0.3,1,0.3c0.2,1,0.5,1.9,0.8,2.8c3.4,8.5,3.6,17.4,2.2,26.3
			c-1.4,9.4-4.2,18.4-7.2,27.3c-0.1,0.2-0.2,0.5-0.3,0.7h0.8c0.1-0.3,0.2-0.7,0.3-1C47.1,87.1,49.8,78.3,51.2,69.1z M45.4,11.1
			c1.2-1.2,2.5-1.9,4.2-1.4c1.7,0.5,2.4,1.8,2.8,3.5c0.3,1.6,0.1,3.2-0.1,4.8c-0.4,3.1-0.8,6.2-1.6,9.2c-0.3-1.9-0.6-3.9-1-5.8
			c-0.7-3.3-2.2-6.1-4.4-8.6C44.7,12.1,44.8,11.7,45.4,11.1z M44.9,13.6c2.7,3.3,4.2,7,4.7,11.2c0.2,1.5,0.3,2.9,0.4,4.4
			c0.1,0.6-0.1,1.1-0.5,1.8c-1.1-2-2.2-4-3.8-5.5c-1.1-1-2.3-1.8-3.7-2.3c-0.7-0.2-1-0.7-0.9-1.4c0.4-2.8,1-5.5,2.4-8
			C44,12.8,44.3,12.9,44.9,13.6z M21.4,45.4c-0.8,0.2-1.5,0.5-2.3,0.5c-2.4,0.1-3.5-0.9-3.4-3.8c0.7-2.5,0.1-5.4-0.7-8.3
			c-0.4-1.5-0.2-3.2,0.5-4.7c0.5-1,0.8-2,1.1-3c0.4-1.5,0.4-3-0.4-4.4c-0.6-1.1-0.4-2,0.6-2.6c2.6-1.6,4.7-3.7,6.6-6.1
			c1.1-1.5,2.8-1.9,4.6-1.9c2.3,0,4.3-0.6,6.3-1.5c3.2-1.4,6.3-0.8,8.8,1.7c0.5,0.5,0.5,0.8,0.2,1.4c-1.5,2.7-2.3,5.5-2.6,8.5
			c-0.1,0.7-0.3,1.3-1.2,1.3c-4.9,0-8.2,2.7-10.3,6.9c-1.2,2.5-2.8,4.8-4.9,6.6c-0.8,0.7-1.5,1.5-2.1,2.2c-1.7,2-1.7,3.6-0.1,5.7
			C22.4,44.8,22.2,45.1,21.4,45.4z M34.8,44.8c-2,0.6-3.9,1-5.8-0.7c-1.1-1-2.6-0.6-4-0.1c-1,0.4-1.9,0.5-2.7-0.5
			c-0.9-1.1-1.2-2.2-0.6-3.5c0.6-1.3,1.6-2.3,2.6-3.2c2.4-1.9,4.1-4.5,5.4-7.2c1.6-3.3,4.2-5.4,7.8-6c2.2-0.4,2.5-0.2,2.8,2
			c0.1,0.5,0.2,1.1,0.3,1.6c0.1,0.5,0.6,2.9,1.1,3.1c1,1.8,2.3,3.2,4,4.3c0.4,0.3,0.5,0.6,0.1,1c-2.4,2-3.9,4.7-6.1,6.9
			C38.4,43.8,36.6,44.3,34.8,44.8z M41.9,41.3c1.1-1.4,2.3-2.7,3.4-4.1c0.4-0.4,0.8-0.8,1.3-1.2C47.3,37.8,45.6,39.8,41.9,41.3z
			 M47.5,34.1c-0.6,0.5-1.1-0.2-1.6-0.6c-3.1-2.1-4.4-5.2-4.8-8.7c-0.1-0.8,0.3-1,1-0.7c2.6,1.1,4.2,3,5.6,5.4
			c0.5,0.8,1,1.6,1.1,2.7C48.8,32.9,48.1,33.6,47.5,34.1z"/>
	</g>
	<g>
		<path class="st4" d="M120.8,50.3H115v5h5.1V57H115v5.2h6.3v1.7h-8.4V48.7h8.2L120.8,50.3z"/>
		<path class="st4" d="M130.7,52.1l-0.4,2c-0.4-0.1-0.6-0.1-1-0.1c-1.5,0-2.3,1-2.8,3.3v6.6h-2V52.2h1.7l0.2,2.4
			c0.6-1.7,1.7-2.6,3.1-2.6C129.9,52,130.4,52,130.7,52.1z"/>
		<path class="st4" d="M135.4,48.1c0,0.8-0.6,1.4-1.4,1.4c-0.8,0-1.4-0.6-1.4-1.4c0-0.8,0.6-1.4,1.4-1.4
			C134.9,46.7,135.4,47.3,135.4,48.1z M135,63.8h-2V52.2h2V63.8z"/>
		<path class="st4" d="M148,55.5v8.3h-2v-8c0-1.7-0.7-2.2-1.8-2.2c-1.3,0-2.2,0.8-2.9,2v8.2h-2V52.2h1.7l0.2,1.7c0.8-1.2,2-2,3.5-2
			C146.8,52,148,53.3,148,55.5z"/>
		<path class="st4" d="M160.9,55.5v8.3h-2v-8c0-1.7-0.7-2.2-1.8-2.2c-1.3,0-2.2,0.8-2.9,2v8.2h-2V52.2h1.7L154,54c0.8-1.2,2-2,3.5-2
			C159.7,52,160.9,53.3,160.9,55.5z"/>
		<path class="st4" d="M173.7,58.7h-7.4c0.2,2.7,1.5,3.7,3.1,3.7c1.1,0,2-0.3,3-1l0.9,1.2c-1.1,0.9-2.4,1.5-4,1.5
			c-3.2,0-5.1-2.3-5.1-5.9c0-3.6,1.8-6.2,4.8-6.2c3.1,0,4.8,2.2,4.8,5.7C173.8,58.1,173.7,58.5,173.7,58.7z M171.8,57.1
			c0-2.3-0.9-3.5-2.7-3.5c-1.5,0-2.6,1.1-2.7,3.7h5.4V57.1z"/>
		<path class="st4" d="M183.3,52.1l-0.4,2c-0.4-0.1-0.6-0.1-1-0.1c-1.5,0-2.3,1-2.8,3.3v6.6h-2V52.2h1.7l0.2,2.4
			c0.6-1.7,1.7-2.6,3.1-2.6C182.5,52,182.9,52,183.3,52.1z"/>
		<path class="st4" d="M194.2,63.8h-1.7l-0.2-1.8c-0.9,1.4-2,2.1-3.6,2.1c-2,0-3.2-1.3-3.2-3.5v-8.3h2v8.1c0,1.6,0.5,2.2,1.8,2.2
			c1.3,0,2.2-0.8,2.9-2v-8.3h2V63.8z"/>
		<path class="st4" d="M207.2,55.5v8.3h-2v-8c0-1.7-0.7-2.2-1.8-2.2c-1.3,0-2.2,0.8-2.9,2v8.2h-2V52.2h1.7l0.2,1.7
			c0.8-1.2,2-2,3.5-2C206,52,207.2,53.3,207.2,55.5z"/>
		<path class="st4" d="M220.6,52.8c-1,0.3-2.1,0.4-3.4,0.4c1.4,0.6,2,1.6,2,2.9c0,2.3-1.7,3.9-4.4,3.9c-0.5,0-1-0.1-1.5-0.2
			c-0.3,0.2-0.6,0.7-0.6,1.1c0,0.5,0.3,0.9,1.5,0.9h1.8c2.4,0,4,1.4,4,3.2c0,2.2-1.8,3.5-5.4,3.5c-3.8,0-5-1.2-5-3.5h1.8
			c0,1.3,0.6,1.9,3.1,1.9c2.5,0,3.4-0.6,3.4-1.8c0-1.1-0.9-1.7-2.3-1.7H214c-2.1,0-3-1-3-2.2c0-0.7,0.4-1.5,1.3-2
			c-1.3-0.7-2-1.7-2-3.2c0-2.4,1.9-4,4.5-4c2.9,0.1,3.9-0.4,5.3-1L220.6,52.8z M212.3,56c0,1.5,0.9,2.6,2.4,2.6s2.4-1,2.4-2.6
			c0-1.7-0.8-2.6-2.5-2.6C213.2,53.4,212.3,54.5,212.3,56z"/>
		<path class="st4" d="M231.2,58.7h-7.4c0.2,2.7,1.5,3.7,3.1,3.7c1.1,0,2-0.3,3-1l0.9,1.2c-1.1,0.9-2.4,1.5-4,1.5
			c-3.2,0-5.1-2.3-5.1-5.9c0-3.6,1.8-6.2,4.8-6.2c3.1,0,4.8,2.2,4.8,5.7C231.3,58.1,231.2,58.5,231.2,58.7z M229.3,57.1
			c0-2.3-0.9-3.5-2.7-3.5c-1.5,0-2.6,1.1-2.7,3.7h5.4V57.1z"/>
		<path class="st4" d="M243.4,55.5v8.3h-2v-8c0-1.7-0.7-2.2-1.8-2.2c-1.3,0-2.2,0.8-2.9,2v8.2h-2V52.2h1.7l0.2,1.7
			c0.8-1.2,2-2,3.5-2C242.2,52,243.4,53.3,243.4,55.5z"/>
		<path class="st4" d="M262.1,62.7l-0.5,1.4c-1.2-0.1-1.9-0.6-2.3-1.7c-0.8,1.2-2,1.7-3.5,1.7c-2.3,0-3.7-1.4-3.7-3.5
			c0-2.5,1.9-3.8,5.1-3.8h1.8v-0.9c0-1.7-0.8-2.3-2.4-2.3c-0.9,0-1.9,0.2-3.1,0.6l-0.5-1.5c1.4-0.5,2.7-0.8,4-0.8
			c2.8,0,4.1,1.4,4.1,3.9v5.3C261.1,62.1,261.5,62.5,262.1,62.7z M259.1,60.8v-2.7h-1.5c-2.1,0-3.2,0.8-3.2,2.4c0,1.4,0.7,2.1,2,2.1
			C257.6,62.6,258.5,62,259.1,60.8z"/>
		<path class="st4" d="M274.1,55.5v8.3h-2v-8c0-1.7-0.7-2.2-1.8-2.2c-1.3,0-2.2,0.8-2.9,2v8.2h-2V52.2h1.7l0.2,1.7
			c0.8-1.2,2-2,3.5-2C272.9,52,274.1,53.3,274.1,55.5z"/>
		<path class="st4" d="M121.7,73.6v16.3H120l-0.2-1.6c-0.7,1.2-1.9,1.9-3.3,1.9c-2.8,0-4.4-2.4-4.4-6c0-3.5,1.7-6.1,4.6-6.1
			c1.4,0,2.4,0.6,3.1,1.4v-6.1L121.7,73.6z M119.7,86.8v-5.7c-0.7-0.9-1.5-1.5-2.7-1.5c-1.7,0-2.8,1.5-2.8,4.5c0,3.1,1,4.4,2.6,4.4
			C118.1,88.5,118.9,87.9,119.7,86.8z"/>
		<path class="st4" d="M128.3,74.1c0,0.8-0.6,1.4-1.4,1.4c-0.8,0-1.4-0.6-1.4-1.4c0-0.8,0.6-1.4,1.4-1.4
			C127.8,72.7,128.3,73.3,128.3,74.1z M127.9,89.8h-2V78.2h2V89.8z"/>
		<path class="st4" d="M140.8,84.7h-7.4c0.2,2.7,1.5,3.7,3.1,3.7c1.1,0,2-0.3,3-1l0.9,1.2c-1.1,0.9-2.4,1.5-4,1.5
			c-3.2,0-5.1-2.3-5.1-5.9c0-3.6,1.8-6.2,4.8-6.2c3.1,0,4.8,2.2,4.8,5.7C140.9,84.1,140.9,84.5,140.8,84.7z M138.9,83.1
			c0-2.3-0.9-3.5-2.7-3.5c-1.5,0-2.6,1.1-2.7,3.7h5.4V83.1z"/>
		<path class="st4" d="M162,82.3c0,5-2.6,7.8-6.4,7.8c-3.8,0-6.4-2.7-6.4-7.8c0-5,2.6-7.9,6.4-7.9C159.4,74.4,162,77.2,162,82.3z
			 M151.4,82.3c0,4.4,1.7,6.1,4.2,6.1c2.6,0,4.2-1.7,4.2-6.1c0-4.4-1.6-6.1-4.2-6.1C153,76.1,151.4,77.9,151.4,82.3z"/>
		<path class="st4" d="M167.3,89.8h-2V73.6l2-0.2V89.8z M169.7,83.4l4.8,6.5H172l-4.6-6.3l4.3-5.3h2.3L169.7,83.4z"/>
		<path class="st4" d="M178.6,89.8h-2V73.6l2-0.2V89.8z M181,83.4l4.8,6.5h-2.4l-4.6-6.3l4.3-5.3h2.3L181,83.4z"/>
		<path class="st4" d="M196.4,89.8h-1.7l-0.2-1.8c-0.9,1.4-2,2.1-3.6,2.1c-2,0-3.2-1.3-3.2-3.5v-8.3h2v8.1c0,1.6,0.5,2.2,1.8,2.2
			c1.3,0,2.2-0.8,2.9-2v-8.3h2V89.8z"/>
		<path class="st4" d="M210.2,84c0,3.5-1.6,6.1-4.6,6.1c-1.3,0-2.3-0.4-3-1.3v5.5l-2,0.2V78.2h1.7l0.2,1.6c0.9-1.2,2.1-1.8,3.4-1.8
			C209,78,210.2,80.4,210.2,84z M208,84c0-3-0.9-4.4-2.6-4.4c-1.2,0-2.2,0.9-2.8,1.8V87c0.6,0.9,1.5,1.4,2.6,1.4
			C207,88.4,208,87.1,208,84z"/>
		<path class="st4" d="M222.4,88.7l-0.5,1.4c-1.2-0.1-1.9-0.6-2.3-1.7c-0.8,1.2-2,1.7-3.5,1.7c-2.3,0-3.7-1.4-3.7-3.5
			c0-2.5,1.9-3.8,5.1-3.8h1.8v-0.9c0-1.7-0.8-2.3-2.4-2.3c-0.9,0-1.9,0.2-3.1,0.6l-0.5-1.5c1.4-0.5,2.7-0.8,4-0.8
			c2.8,0,4.1,1.4,4.1,3.9v5.3C221.5,88.1,221.9,88.5,222.4,88.7z M219.5,86.8v-2.7h-1.5c-2.1,0-3.2,0.8-3.2,2.4c0,1.4,0.7,2.1,2,2.1
			C217.9,88.6,218.8,88,219.5,86.8z"/>
		<path class="st4" d="M231.5,89.3c-0.8,0.5-1.6,0.8-2.6,0.8c-2,0-3.1-1.1-3.1-3.3v-7h-2v-1.6h2v-2.6l2-0.2v2.9h2.8l-0.2,1.6h-2.5
			v6.9c0,1.2,0.4,1.7,1.4,1.7c0.5,0,1-0.2,1.5-0.5L231.5,89.3z"/>
		<path class="st4" d="M236,74.1c0,0.8-0.6,1.4-1.4,1.4c-0.8,0-1.4-0.6-1.4-1.4c0-0.8,0.6-1.4,1.4-1.4C235.4,72.7,236,73.3,236,74.1
			z M235.6,89.8h-2V78.2h2V89.8z"/>
		<path class="st4" d="M249.3,84c0,3.6-1.9,6.1-5.2,6.1c-3.3,0-5.2-2.4-5.2-6.1c0-3.6,1.9-6.1,5.2-6.1C247.4,78,249.3,80.3,249.3,84
			z M241.1,84c0,3,1.1,4.4,3,4.4s3-1.4,3-4.4c0-3-1.1-4.4-3-4.4C242.2,79.6,241.1,81,241.1,84z"/>
		<path class="st4" d="M261.5,81.5v8.3h-2v-8c0-1.7-0.7-2.2-1.8-2.2c-1.3,0-2.2,0.8-2.9,2v8.2h-2V78.2h1.7l0.2,1.7
			c0.8-1.2,2-2,3.5-2C260.2,78,261.5,79.3,261.5,81.5z"/>
		<path class="st4" d="M273.8,74.1c0,0.8-0.6,1.4-1.4,1.4c-0.8,0-1.4-0.6-1.4-1.4c0-0.8,0.6-1.4,1.4-1.4
			C273.2,72.7,273.8,73.3,273.8,74.1z M273.4,89.8h-2V78.2h2V89.8z"/>
		<path class="st4" d="M286.4,81.5v8.3h-2v-8c0-1.7-0.7-2.2-1.8-2.2c-1.3,0-2.2,0.8-2.9,2v8.2h-2V78.2h1.7l0.2,1.7
			c0.8-1.2,2-2,3.5-2C285.1,78,286.4,79.3,286.4,81.5z"/>
		<path class="st4" d="M306.5,76.1l-1.2,1.3c-1.1-0.9-2-1.2-3.3-1.2c-2.2,0-4.4,1.7-4.4,6.1c0,4.4,1.5,6.1,4.1,6.1
			c1,0,2-0.2,2.9-0.7v-4.6H302l-0.2-1.7h5v7.3c-1.4,0.8-3,1.3-5.1,1.3c-3.8,0-6.2-2.6-6.2-7.9c0-5.1,3.1-7.8,6.5-7.8
			C304,74.4,305.2,75,306.5,76.1z"/>
		<path class="st4" d="M316.3,78.1l-0.4,2c-0.4-0.1-0.6-0.1-1-0.1c-1.5,0-2.3,1-2.8,3.3v6.6h-2V78.2h1.7l0.2,2.4
			c0.6-1.7,1.7-2.6,3.1-2.6C315.6,78,316,78,316.3,78.1z"/>
		<path class="st4" d="M321.1,74.1c0,0.8-0.6,1.4-1.4,1.4c-0.8,0-1.4-0.6-1.4-1.4c0-0.8,0.6-1.4,1.4-1.4
			C320.5,72.7,321.1,73.3,321.1,74.1z M320.7,89.8h-2V78.2h2V89.8z"/>
		<path class="st4" d="M333.6,84.7h-7.4c0.2,2.7,1.5,3.7,3.1,3.7c1.1,0,2-0.3,3-1l0.9,1.2c-1.1,0.9-2.4,1.5-4,1.5
			c-3.2,0-5.1-2.3-5.1-5.9c0-3.6,1.8-6.2,4.8-6.2c3.1,0,4.8,2.2,4.8,5.7C333.6,84.1,333.6,84.5,333.6,84.7z M331.6,83.1
			c0-2.3-0.9-3.5-2.7-3.5c-1.5,0-2.6,1.1-2.7,3.7h5.4V83.1z"/>
		<path class="st4" d="M344.7,79.2l-1,1.3c-0.8-0.6-1.5-0.9-2.5-0.9c-1.8,0-3,1.4-3,4.4c0,3,1.1,4.3,3,4.3c1,0,1.6-0.3,2.5-0.9
			l0.9,1.3c-1,0.8-2.2,1.3-3.5,1.3c-3.1,0-5.1-2.2-5.1-6c0-3.7,1.9-6.2,5.1-6.2C342.5,78,343.6,78.3,344.7,79.2z"/>
		<path class="st4" d="M356.3,81.5v8.3h-2v-8c0-1.7-0.7-2.2-1.8-2.2c-1.3,0-2.2,0.8-2.9,2v8.3h-2V73.6l2-0.2v6.5
			c0.8-1.1,2-1.9,3.4-1.9C355,78,356.3,79.3,356.3,81.5z"/>
		<path class="st4" d="M369.1,84.7h-7.4c0.2,2.7,1.5,3.7,3.1,3.7c1.1,0,2-0.3,3-1l0.9,1.2c-1.1,0.9-2.4,1.5-4,1.5
			c-3.2,0-5.1-2.3-5.1-5.9c0-3.6,1.8-6.2,4.8-6.2c3.1,0,4.8,2.2,4.8,5.7C369.1,84.1,369.1,84.5,369.1,84.7z M367.1,83.1
			c0-2.3-0.9-3.5-2.7-3.5c-1.5,0-2.6,1.1-2.7,3.7h5.4V83.1z"/>
		<path class="st4" d="M381.3,81.5v8.3h-2v-8c0-1.7-0.7-2.2-1.8-2.2c-1.3,0-2.2,0.8-2.9,2v8.2h-2V78.2h1.7l0.2,1.7
			c0.8-1.2,2-2,3.5-2C380.1,78,381.3,79.3,381.3,81.5z"/>
		<path class="st4" d="M385.2,87.5v-14l2-0.2v14.2c0,0.6,0.2,0.9,0.7,0.9c0.3,0,0.5,0,0.7-0.1l0.5,1.4c-0.4,0.2-1,0.4-1.6,0.4
			C386.2,90.1,385.2,89.2,385.2,87.5z"/>
		<path class="st4" d="M400.6,88.7l-0.5,1.4c-1.2-0.1-1.9-0.6-2.3-1.7c-0.8,1.2-2,1.7-3.5,1.7c-2.3,0-3.7-1.4-3.7-3.5
			c0-2.5,1.9-3.8,5.1-3.8h1.8v-0.9c0-1.7-0.8-2.3-2.4-2.3c-0.9,0-1.9,0.2-3.1,0.6l-0.5-1.5c1.4-0.5,2.7-0.8,4-0.8
			c2.8,0,4.1,1.4,4.1,3.9v5.3C399.6,88.1,400,88.5,400.6,88.7z M397.6,86.8v-2.7h-1.5c-2.1,0-3.2,0.8-3.2,2.4c0,1.4,0.7,2.1,2,2.1
			C396,88.6,396.9,88,397.6,86.8z"/>
		<path class="st4" d="M412.6,81.5v8.3h-2v-8c0-1.7-0.7-2.2-1.8-2.2c-1.3,0-2.2,0.8-2.9,2v8.2h-2V78.2h1.7l0.2,1.7
			c0.8-1.2,2-2,3.5-2C411.4,78,412.6,79.3,412.6,81.5z"/>
		<path class="st4" d="M425.6,73.6v16.3h-1.8l-0.2-1.6c-0.7,1.2-1.9,1.9-3.3,1.9c-2.8,0-4.4-2.4-4.4-6c0-3.5,1.7-6.1,4.6-6.1
			c1.4,0,2.4,0.6,3.1,1.4v-6.1L425.6,73.6z M423.6,86.8v-5.7c-0.7-0.9-1.5-1.5-2.7-1.5c-1.7,0-2.8,1.5-2.8,4.5c0,3.1,1,4.4,2.6,4.4
			C422.1,88.5,422.8,87.9,423.6,86.8z"/>
	</g>
	<g id="Ebene_3_1_">
		<g>
			<path class="st2" d="M1.7,42.1"/>
			<path class="st3" d="M51,69.8c1.4-8.8,1.2-17.4-1.8-25.8c-0.5-1.3-0.9-2.7-1.3-4.1c-0.3-1.1,1-4.3,2-4.9c0.9-0.5,1-1.2,1-2
				c-0.1-1.2-0.3-2.3,0-3.5c0.8-3,1.3-6,1.7-9.1c0.3-2.3,0.7-4.6,0.2-6.9c-1-4.2-5-5.5-8.2-2.5c-0.8,0.7-1.2,0.8-2,0.1
				c-2.8-2.2-5.9-3.4-9.3-1.5c-1.9,1-3.9,1.5-5.9,1.5c-2.7,0.1-4.8,1.1-6.3,3.4c-1,1.6-2.4,2.8-4,3.7c-0.5,0.3-1,0.6-1.4,1
				c-1.4,1.3-1.6,2-0.6,3.6c0.8,1.3,0.8,2.6,0.3,4c-0.4,0.9-0.7,1.8-1,2.8c-0.7,1.8-1.2,3.6-0.6,5.5c0.8,2.7,1.3,5.3,0.8,8.2
				c-0.5,2.4,1.4,4.1,3.8,4c1.3-0.1,2.6-0.4,3.8-0.8c0.5-0.2,0.9-0.4,1.4-0.2c2.2,1,4.6,1,7,0.8c0.3,0,0.6,0,0.9,0.1
				c1.9,0.7,3.8,0.3,5.4-0.8c3.1-2.3,6.6-3.7,9.4-6.4c0.6-0.6,0.8-0.3,1,0.3c0.2,1,0.5,1.9,0.8,2.8c3.4,8.5,3.6,17.4,2.2,26.3
				c-1.4,9.4-4.2,18.4-7.2,27.3c-0.1,0.2-0.2,0.5-0.3,0.7h0.8c0.1-0.3,0.2-0.7,0.3-1C46.9,87.8,49.5,79,51,69.8z M45.2,11.8
				c1.2-1.2,2.5-1.9,4.2-1.4s2.4,1.8,2.8,3.5c0.3,1.6,0.1,3.2-0.1,4.8c-0.4,3.1-0.8,6.2-1.6,9.2c-0.3-1.9-0.6-3.9-1-5.8
				c-0.7-3.3-2.2-6.1-4.4-8.6C44.4,12.8,44.6,12.4,45.2,11.8z M44.7,14.3c2.7,3.3,4.2,7,4.7,11.2c0.2,1.5,0.3,2.9,0.4,4.4
				c0.1,0.6-0.1,1.1-0.5,1.8c-1.1-2-2.2-4-3.8-5.5c-1.1-1-2.3-1.8-3.7-2.3c-0.7-0.2-1-0.7-0.9-1.4c0.4-2.8,1-5.5,2.4-8
				C43.7,13.5,44.1,13.6,44.7,14.3z M21.1,46.1c-0.8,0.2-1.5,0.5-2.3,0.5c-2.4,0.1-3.5-0.9-3.4-3.8c0.7-2.5,0.1-5.4-0.7-8.3
				c-0.4-1.5-0.2-3.2,0.5-4.7c0.5-1,0.8-2,1.1-3c0.4-1.5,0.4-3-0.4-4.4c-0.6-1.1-0.4-2,0.6-2.6c2.6-1.6,4.7-3.7,6.6-6.1
				c1.1-1.5,2.8-1.9,4.6-1.9c2.3,0,4.3-0.6,6.3-1.5c3.2-1.4,6.3-0.8,8.8,1.7c0.5,0.5,0.5,0.8,0.2,1.4c-1.5,2.7-2.3,5.5-2.6,8.5
				c-0.1,0.7-0.3,1.3-1.2,1.3c-4.9,0-8.2,2.7-10.3,6.9c-1.2,2.5-2.8,4.8-4.9,6.6c-0.8,0.7-1.5,1.5-2.1,2.2c-1.7,2-1.7,3.6-0.1,5.7
				C22.2,45.5,22,45.8,21.1,46.1z M34.5,45.5c-2,0.6-3.9,1-5.8-0.7c-1.1-1-2.6-0.6-4-0.1c-1,0.4-1.9,0.5-2.7-0.5
				c-0.9-1.1-1.2-2.2-0.6-3.5s1.6-2.3,2.6-3.2c2.4-1.9,4.1-4.5,5.4-7.2c1.6-3.3,4.2-5.4,7.8-6c2.2-0.4,2.5-0.2,2.8,2
				c0.1,0.5,0.2,1.1,0.3,1.6s0.6,2.9,1.1,3.1c1,1.8,2.3,3.2,4,4.3c0.4,0.3,0.5,0.6,0.1,1c-2.4,2-3.9,4.7-6.1,6.9
				C38.2,44.5,36.3,45,34.5,45.5z M41.7,42c1.1-1.4,2.3-2.7,3.4-4.1c0.4-0.4,0.8-0.8,1.3-1.2C47,38.5,45.3,40.5,41.7,42z M47.3,34.8
				c-0.6,0.5-1.1-0.2-1.6-0.6c-3.1-2.1-4.4-5.2-4.8-8.7c-0.1-0.8,0.3-1,1-0.7c2.6,1.1,4.2,3,5.6,5.4c0.5,0.8,1,1.6,1.1,2.7
				C48.5,33.6,47.9,34.3,47.3,34.8z"/>
		</g>
	</g>
</g>
</svg>
