<?xml version="1.0" encoding="utf-8"?>
<!-- Generator: Adobe Illustrator 22.0.1, SVG Export Plug-In . SVG Version: 6.00 Build 0)  -->
<svg version="1.0" id="Ebene_1" xmlns="http://www.w3.org/2000/svg" xmlns:xlink="http://www.w3.org/1999/xlink" x="0px" y="0px"
	 viewBox="0 0 542.4 91.6" style="enable-background:new 0 0 542.4 91.6;" xml:space="preserve">
<style type="text/css">
	.st0{fill:#8B0F0D;}
	.st1{fill:#606060;stroke:#8B0F0D;stroke-width:2;stroke-miterlimit:10;}
</style>
<g>
	<path class="st0" d="M431.2,38h-9.3l-1.9,6.1h-3.3l7.9-24.3h4.2l7.9,24.3h-3.5L431.2,38z M422.7,35.2h7.7l-3.8-12.4h-0.1
		L422.7,35.2z"/>
	<path class="st0" d="M453.1,44.1h-12.7v-2.5h4.3V28h-4.3v-2.5h7.1l0.4,3.6c0.5-1.3,1.3-2.3,2.2-3c0.9-0.7,2-1,3.1-1
		c0.4,0,0.8,0,1.2,0.1c0.3,0,0.8,0.1,1.3,0.2l-0.6,3.2c-0.5-0.1-0.9-0.2-1.2-0.2c-0.3,0-0.7-0.1-1.1-0.1c-0.6,0-1.1,0.1-1.7,0.4
		c-0.5,0.3-1,0.6-1.4,1.1c-0.4,0.5-0.8,1-1.1,1.6c-0.3,0.6-0.5,1.2-0.7,1.8v8.4h5.2V44.1z"/>
	<path class="st0" d="M470.2,41.7c0.8,0,1.6-0.1,2.4-0.4c0.8-0.2,1.6-0.7,2.4-1.2l1.5,2.2c-0.9,0.7-1.9,1.2-3,1.6
		c-1.2,0.4-2.3,0.5-3.3,0.5c-1.4,0-2.7-0.2-3.8-0.7c-1.1-0.5-2-1.1-2.8-1.9c-0.8-0.8-1.3-1.8-1.7-3c-0.4-1.2-0.6-2.5-0.6-4
		c0-1.4,0.2-2.7,0.6-3.9c0.4-1.2,1-2.2,1.7-3.1c0.8-0.9,1.7-1.6,2.8-2.1c1.1-0.5,2.3-0.7,3.8-0.7c1.2,0,2.3,0.2,3.4,0.5
		c1.1,0.3,2,0.9,2.9,1.6l-1.6,2.2c-0.8-0.6-1.5-1-2.3-1.2s-1.6-0.4-2.4-0.4c-1.6,0-2.9,0.6-3.9,1.7c-1,1.2-1.5,3-1.5,5.4
		c0,1.2,0.1,2.3,0.4,3.1c0.3,0.9,0.6,1.6,1.1,2.1s1,1,1.7,1.2C468.7,41.6,469.4,41.7,470.2,41.7z"/>
	<path class="st0" d="M482.9,44.1v-26l3.2-0.4v10.1c0.8-0.9,1.6-1.6,2.7-2.1c1-0.5,2.1-0.7,3.2-0.7c1.8,0,3.1,0.5,4,1.4
		c0.8,1,1.2,2.3,1.2,4.1v13.5H494V30.8c0-1.1-0.2-1.9-0.7-2.4s-1.3-0.7-2.3-0.7c-0.5,0-1,0.1-1.4,0.3s-0.9,0.4-1.3,0.7
		c-0.4,0.3-0.8,0.6-1.1,1c-0.4,0.4-0.6,0.7-0.9,1.1v13.5H482.9z"/>
	<path class="st0" d="M513.7,41.6h5.2v2.5h-14.1v-2.5h5.7V28h-5.5v-2.5h8.7V41.6z M514.3,18.9c0,0.6-0.2,1.2-0.6,1.6
		c-0.4,0.4-1,0.6-1.7,0.6c-0.7,0-1.2-0.2-1.6-0.6c-0.4-0.4-0.6-1-0.6-1.6c0-0.6,0.2-1.1,0.6-1.5c0.4-0.4,1-0.6,1.6-0.6
		c0.7,0,1.2,0.2,1.7,0.6C514.1,17.7,514.3,18.3,514.3,18.9z"/>
	<path class="st0" d="M534.2,44.1h-3.8l-6.7-18.6h3.5l5.1,15.6h0.1l5.1-15.6h3.3L534.2,44.1z"/>
</g>
<line class="st1" x1="378.2" y1="1.1" x2="378.2" y2="63.1"/>
<g>
	<path class="st0" d="M7.2,1c0.1,0,0.3,0,0.4,0.1s0.3,0.1,0.3,0.1c0.3,0,0.8-0.1,1.6-0.1c0.1,0,0.4,0,0.8,0.1
		c0.4,0.1,0.7,0.1,0.8,0.1s0.3-0.1,0.5-0.1c0.1,0,0.3-0.1,0.4,0c0,0,0,0.1,0,0.3c0.1,0,0.3,0,0.5,0.1c0.1,0,0.3,0.1,0.4,0.1
		s0.4-0.1,0.7-0.3c0.4-0.1,0.7-0.1,0.9-0.1c0.1,0.1,0.3,0.3,0.4,0.4c0.1,0,0.4,0.1,0.8,0.3c0,0.1,0.1,0.4,0.3,0.7
		c0.1,0.1,0.3,0.3,0.5,0.4c0,0.1,0,0.1,0,0.3c-0.1,0.1-0.3,0.3-0.4,0.4c0,0.1,0,0.3,0,0.5c-0.1,0.1-0.3,0.3-0.4,0.5v0.3
		c0,0.1,0.1,0.3,0.1,0.5c-0.3,0.1-0.5,0.3-0.8,0.5c0,0.1,0,0.4,0,0.5c-0.3,0.1-0.4,0.3-0.7,0.4c0,0,0,0.1-0.1,0.3
		c-0.1-0.1-0.5,0.3-1.1,0.8c0.1,0.3,0.3,0.5,0.3,0.5S13.3,9,12.9,9.3c0.1,0,0.1,0.3,0,0.7c0,0.1-0.1,0.3-0.3,0.3
		c-0.1,0.1-0.3,0.1-0.5,0.1v0.1c-0.3,0.1-0.5,0.3-0.8,0.4c0,0.8-0.1,1.2-0.3,1.5c-0.3,0.1-0.5,0.3-0.9,0.4c0,0.1,0,0.1,0,0.3
		l-0.3,0.7c-0.1,0-0.1,0.1-0.3,0.3c0,0.1-0.1,0.3-0.3,0.5H9.2c0,0.1,0,0.3,0,0.4c-0.1,0-0.4,0.1-0.7,0.3c0,0.3-0.1,0.7-0.1,1.1
		c-0.1,0-0.3,0.1-0.4,0.3c-0.4,0.4-0.7,0.9-0.7,1.5c0,0.1,0,0.4,0.1,0.5c-0.5,0.1-0.8,0.4-0.8,0.7c0,0,0,0,0,0.1v0.1
		c0,0.3-0.1,0.4-0.3,0.7c-0.1,0-0.3,0.1-0.5,0.3c0,0.1,0,0.3-0.1,0.4c0.1,0,0.4,0.1,0.8,0.3c0,0,0,0,0.1,0.1c0.3,0,0.5,0.1,1.1,0.3
		c0.1,0.1,0.3,0.3,0.5,0.4c0.1-0.1,0.4-0.1,0.7-0.3c0.1,0.1,0.3,0.1,0.4,0.3c0.1,0,0.3,0,0.4,0c0-0.1,0.1-0.3,0.1-0.4
		c0.3-0.1,1.2,0,2.9,0.1c0.1-0.3,0.3-0.5,0.5-0.8h0.1c0-0.1,0-0.1,0-0.3c0.1-0.3,0.4-0.5,0.9-0.8c0,0,0-0.1,0-0.3
		c0-0.1,0.1-0.1,0.1-0.3c-0.1-0.1-0.1-0.1-0.3-0.3c0-0.1,0.1-0.7,0.4-1.5c0,0,0,0,0.1-0.1l0.1-0.1c0,0-0.1-0.3-0.4-0.5
		c-0.3-0.3-0.3-0.5-0.3-0.8h0.1v-0.1c0.1-0.1,0.3-0.1,0.5-0.4c0-0.1,0.1-0.4,0.3-0.8c0.1,0,0.1-0.1,0.4-0.4l0.1-0.1
		c0.1,0,0.4,0.1,1.1,0.4c0,0.3,0,0.3,0,0.3l0.1,0.1c0,0.1-0.1,0.4-0.1,0.7c0,0,0.3,0.3,0.5,0.5c0,0.1,0,0.1,0,0.3h-0.1
		c0,0-0.1,0.1-0.4,0.4c0,0.1,0,0.1,0.1,0.1c0.1,0.1,0.1,0.1,0.3,0.3c-0.1,0.3-0.3,0.4-0.3,0.5c0,0.3,0.4,0.5,1.1,0.7
		c-0.1,0.1-0.1,0.3-0.3,0.4c-0.1,0-0.5,0-0.9,0v0.1c0,0-0.1,0-0.3,0.1c0.1,0.7,0.1,1.1,0,1.6c0.1,0,0.3,0.1,0.4,0.1
		c0,0.1,0,0.3,0,0.4c-0.1,0.1-0.3,0.1-0.4,0.4c0,0.1,0,0.3,0.1,0.4s0.1,0.3,0.1,0.3c-0.1,0.1-0.1,0.3-0.1,0.3
		c-0.1,0.1-0.4,0.3-0.7,0.4c-0.3,0.1-0.5,0.4-1.1,0.7c-0.4,0.1-0.8,0.1-1.5,0.1c-0.8,0-1.3,0-1.3,0c-2.8,0.1-4.4,0.1-5.1,0.1
		c-0.1,0-0.4,0-0.8-0.1c0,0-0.1-0.1-0.3-0.1c-0.1,0-0.3,0-0.5,0.1c-0.3,0.1-0.4,0.1-0.5,0.1c-0.1-0.1-0.4-0.1-0.5-0.3
		c-0.4,0-1.1,0-1.7,0c-0.1-0.1-0.3-0.3-0.5-0.4c-0.1-0.1-0.3-0.1-0.4-0.3c-0.3,0.5-0.4,0.4-0.4,0.3c0-0.4,0.3-1.1,0.9-2
		c0.1-0.1,0.4-0.4,0.7-0.7c0-0.1,0-0.3,0-0.5c0-0.3,0-0.4,0-0.7c0.1-0.1,0.4-0.3,0.5-0.4c0,0,0-0.1,0-0.3c0.1,0,0.3-0.1,0.4-0.3
		c0-0.1,0.1-0.4,0.3-0.8c0.1-0.1,0.3-0.3,0.5-0.4c0-0.3,0.1-0.5,0.3-1.1h0.1c0.1-0.1,0.3-0.4,0.4-0.7c0,0,0.1,0,0.3-0.1
		c0-0.1,0-0.3,0.1-0.5c0.1,0,0.3-0.1,0.5-0.4c0-0.1,0-0.3,0-0.4c0,0.3,0.3,0.1,0.7-0.1c0.1-0.1,0.3-0.5,0.5-0.9
		c0.1,0,0.1-0.1,0.3-0.1c0-0.3,0.1-0.7,0.3-1.2l0.1-0.1c0,0,0-0.1,0-0.3c0-0.1,0.1-0.3,0.4-0.4c0.3-0.1,0.4-0.3,0.5-0.4
		c0-0.1,0-0.3,0-0.5l0.5-0.4c0,0,0-0.1,0-0.3C9.9,9,9.9,8.9,10,8.9c0-0.1,0-0.3,0.1-0.5l0.1-0.1c0-0.1,0-0.3,0-0.5
		c0.3-0.1,0.5-0.4,0.9-0.7c0-0.1,0-0.4,0.1-0.7c0,0,0.1-0.1,0.3-0.4c0.1,0,0.1-0.1,0.3-0.1C12,5.7,12,5.2,12,4.5
		c-0.3-0.1-0.5-0.4-0.9-0.5c-0.4-0.1-0.9,0-1.6,0.1c-0.1,0-0.3,0.1-0.4,0.1C8.8,4.4,8.4,4.4,8,4.2c-0.7,0-1.1-0.1-1.1-0.1
		c0.1,0.7,0.1,0.9,0,1.1c-0.1,0-0.3,0-0.4,0C6.3,5.2,6,5.4,5.6,5.7C5.7,5.8,5.9,6,6,6.1c0,0,0,0.1,0,0.3c-0.1,0-0.3,0-0.4,0
		c-0.3,0-0.4,0.3-0.3,0.8c-0.1,0-0.3,0.1-0.5,0.1c0,0.1,0,0.3,0,0.5C4.8,8,4.7,8,4.7,8.1c0.3,0.1,0.3,0.4,0.1,0.8
		C4.7,8.9,4.7,9,4.5,9.2c0,0,0,0.1,0,0.3C4.3,9.6,4,9.6,3.7,9.7c-0.4,0-0.8,0-0.9-0.1c-0.1,0-0.3-0.3-0.3-0.8
		C2.4,8.2,2.4,7.8,2.4,7.4c0-0.1,0-0.3,0-0.4c0.1-0.1,0.3-0.4,0.5-0.8c0-0.1,0-0.3-0.1-0.4c-0.1,0-0.1-0.1-0.1-0.1
		C2.5,5,2.5,4.5,2.8,4.1C2.9,4,3.1,3.8,3.2,3.7c0,0,0-0.1-0.1-0.3c0-0.1-0.1-0.3-0.1-0.3c0-0.1,0-0.3,0.3-0.7
		c0.1-0.4,0.3-0.7,0.3-0.7c0.3-0.3,0.7-0.4,1.2-0.3c0,0,0.1,0.1,0.3,0.1c0.3,0,0.5,0,0.9-0.3C6.4,1.2,6.7,1,6.8,1
		C6.8,1.2,6.9,1.2,7.2,1C7.1,1.2,7.1,1.2,7.2,1z"/>
	<path class="st0" d="M43.6,1c0.1,0,0.4,0,0.8,0.1c0.4,0,0.8,0,1.5,0.1L46,1.6c0.1,0,0.3,0,0.5,0c0.3,0,0.5,0,0.5,0
		c0.3,0,0.4,0.1,0.5,0.3s0.1,0.3,0.1,0.4c0,0.1-0.1,0.4-0.4,0.5c-0.3,0.1-0.4,0.3-0.7,0.4l-0.9,1.3c-0.1,0.3-0.1,0.5-0.1,0.9
		s0,0.8,0,0.9l-0.1,0.1c-0.1,0.1-0.1,0.3-0.1,0.4c0.1,0.1,0.3,0.4,0.4,0.7c0,0.1,0,0.1-0.1,0.3c0,0.1,0,0.3,0,0.5
		c0,0.3,0.1,0.4,0,0.4c-0.1,0.1-0.3,0.3-0.5,0.5c0,0.1,0.1,0.4,0.1,0.7c0,0.1-0.1,0.4-0.3,0.8c0.1,0.4,0.3,0.8,0.1,0.9
		c-0.1,0-0.1,0.1-0.3,0.1c0,0.1-0.1,0.5-0.1,0.9c-0.1,0.1-0.3,0.3-0.4,0.5c0,0.1,0.1,0.3,0.1,0.7h-0.1c-0.3,0.5-0.4,0.9-0.4,0.9
		c0,0.1,0.1,0.3,0.4,0.4c-0.1,0-0.1,0.1-0.3,0.4c0,0.1,0,0.4,0,0.7c0,0,0,0.1-0.1,0.3c-0.1,0.1-0.1,0.3-0.1,0.4
		c0.1,0.1,0.1,0.1,0.3,0.4c0,0.1,0,0.3-0.1,0.4c-0.1,0.3-0.1,0.4-0.1,0.4c0,0.1,0,0.1,0,0.3c0,0.1,0.1,0.1,0.1,0.1
		c0,0.1,0,0.3,0,0.5c-0.1,0.1-0.3,0.1-0.3,0.3c0,0.1,0,0.4,0.1,0.5s0.1,0.1,0.1,0.3l-0.3,0.3l-0.3,0.1c0,0.1,0,0.3,0,0.4v0.3h0.5
		c-0.1,0,0,0,0.1-0.1l0.1,0.3c0,0,0,0.1,0.1,0.3c-0.1,0.1-0.3,0.3-0.5,0.4c-0.5,0.1-0.8,0.4-0.8,0.5s0,0.3,0.1,0.5
		c-0.3,0.1-0.5,0.5-0.7,0.8c-0.1,0.3-0.3,0.4-0.3,0.4c-0.1,0.1-0.3,0.1-0.4,0.1c-0.3,0.1-0.5,0.1-0.5,0.1c-0.1,0-0.3-0.1-0.4-0.3
		c-0.1-0.1-0.3-0.3-0.3-0.3c-0.3-0.1-0.8-0.4-1.3-0.7c0,0,0-0.1,0-0.3V23c0,0,0.1-0.1,0.3-0.1c0.1-0.1,0.1-0.3,0.1-0.5
		c0-0.3-0.1-0.5-0.3-0.7c0,0,0-0.1,0.1-0.4c-0.1-0.1-0.3-0.4-0.4-0.7c0.1-0.3,0.1-0.8,0.1-1.3c0,0-0.3-0.3-0.7-0.5
		c0-0.3,0.1-0.5,0.1-0.9l0.1-0.1c0-0.1,0-0.7-0.1-1.6c-0.1,0-0.1-0.1,0-0.4c0-0.3-0.1-0.4-0.1-0.3c0,0,0-0.1,0-0.4
		c0-0.1,0-0.3,0-0.3c-0.1-0.1-0.3-0.4-0.4-0.7c0-0.3-0.1-0.7-0.1-1.1c0.1,0,0.1,0,0.1-0.1c0,0-0.1-0.1-0.1-0.4c0,0,0,0-0.1,0.1h-0.4
		c0,0.1,0.1,0.1,0.1,0.3c-0.1,0-0.5,0.1-0.9,0.3c-0.1,0.8-0.1,1.1-0.1,0.9c0,0.3,0.1,0.5,0.4,0.9c-0.1,0-0.1,0-0.3,0.1
		c0,0.1,0,0.1,0,0.4h-0.1c0,0.1,0,0.3-0.1,0.7c-0.1,0.1-0.3,0.4-0.3,0.5c0,0.1,0.1,0.4,0.5,0.7c0,0.1-0.1,0.3-0.1,0.3
		c0,0.1,0,0.1-0.1,0.3c-0.1,0-0.3,0-0.4,0.1c0,0-0.1,0.1-0.1,0.3c0,0.1,0.1,0.3,0.1,0.5h0.4c-0.1,0.1-0.1,0.3-0.1,0.3s0,0.1-0.1,0.1
		c0,0-0.1,0-0.3,0c0,0,0,0.1-0.1,0.4H36c0,0.1,0,0.3,0.1,0.4l0,0c0,0,0,0,0.1,0c0,0.3-0.1,0.3-0.1,0.3s0,0.1-0.1,0.1V21
		c0.1,0,0.3,0,0.4,0.1l-0.1,0.1l0,0c0.3,0,0.4,0,0.4-0.1c0,0,0,0-0.1,0c0,0,0,0,0.1-0.1c0.1,0,0.3,0.1,0.4,0.3
		c0.1,0.1,0.3,0.3,0.3,0.4L37.2,22c0,0,0,0.1-0.1,0.4c-0.1,0.3-0.1,0.4-0.1,0.4c0,0.1,0,0.1,0.1,0.1c-0.1,0.1-0.3,0.4-0.5,0.7
		c-0.1,0-0.4-0.1-0.5-0.1s-0.1,0.1-0.3,0.3c-0.1,0.1-0.1,0.3-0.1,0.4c-0.1,0-0.3,0.1-0.5,0.1c0,0.1,0,0.1-0.1,0.3
		c-0.1,0.1-0.5,0.3-1.1,0.4c-0.1-0.3-0.3-0.5-0.5-0.9c-0.1,0-0.3,0-0.7-0.1c0,0,0-0.1-0.1-0.3c0,0-0.1,0-0.3,0
		c0-0.1-0.1-0.1-0.1-0.3c0-0.1,0-0.3,0.1-0.5c0-0.1,0.1-0.4,0.1-0.7l0.1-0.1c0-0.3,0-0.5-0.1-0.8c-0.3-0.4-0.3-0.7-0.4-0.7
		c0-0.1,0-0.4,0-0.7c-0.1-0.1-0.3-0.3-0.4-0.4c-0.1-0.5-0.1-1.2-0.1-1.7l0.1-0.1c0.1-0.5,0.1-0.9,0.1-1.3c-0.1-0.1-0.1-0.1-0.3-0.3
		c0-0.1,0-0.1,0-0.3c-0.1,0-0.1,0-0.3,0c-0.1,0-0.3-0.3-0.4-0.4c0-0.3,0-0.8,0-1.5c-0.1-0.1-0.1-0.3-0.3-0.4
		c0.1-1.1,0.1-1.5,0.1-1.7c0,0,0.1-0.3,0.3-0.5c0.1-0.3,0.1-0.5,0.1-0.7c-0.1,0-0.1-0.1-0.3-0.3c0-0.1,0.1-0.1,0.1-0.3h-0.3
		c0-0.1,0-0.3-0.1-0.7c-0.1,0-0.3-0.1-0.4-0.1c0-0.1,0-0.3,0-0.4s0-0.3,0-0.5c0-0.3,0-0.4,0-0.5c0-0.1,0-0.3,0-0.4
		c-0.3-0.3-0.5-0.7-0.9-1.1c0-0.1,0-0.3,0.1-0.5c0.1-0.1,0.1-0.3,0.1-0.4c0-0.3,0-0.7-0.1-0.9c-0.1-0.1-0.3-0.1-0.4-0.4
		c0-0.1,0-0.1-0.1-0.4c-0.3-0.1-0.5-0.3-0.8-0.4c-0.1-0.1-0.4-0.3-0.8-0.4c0-0.1,0-0.3,0-0.4c0-0.1,0.1-0.3,0.3-0.4
		c0.4-0.3,1.1-0.4,1.6-0.3c0,0,0.1,0.1,0.3,0.1c0.1,0,0.1,0,0.3,0c0.1-0.1,0.3-0.1,0.4-0.3c0.1,0,0.5,0,0.9-0.1l0.1-0.1
		c0.1,0,0.4,0.1,0.9,0.3c0.5,0.1,0.8,0.3,0.9,0.3c0,0.1,0,0.3,0.1,0.4c0.1,0,0.1,0,0.4,0c0,0.1,0,0.3,0,0.4c0,0.5-0.1,0.8-0.5,0.9
		c-0.1,0-0.3,0-0.4,0c-0.1,0.1-0.3,0.1-0.4,0.3C32,4,31.7,4.1,31.3,4.2c0,0.1,0,0.4,0.1,0.7C31.6,5,31.7,5.2,32,5.3
		c0,0.1,0,0.3,0,0.4c0,0.1-0.1,0.1-0.1,0.3c0,0.1,0,0.3,0.1,0.5c0.1,0.3,0.1,0.4,0.1,0.4c0,0.1,0,0.4-0.1,0.5c0,0.4,0,0.7,0,0.8
		l0.1,0.4c0,0.1,0,0.3,0,0.7h0.1c0.1,0.3,0.3,0.7,0.4,1.1c0,0.3,0,0.7,0,1.1l0.3,0.1c0,0.4,0,0.7-0.3,0.7c0.1,0.1,0.3,0.4,0.4,0.7
		c0,0.1,0,0.4,0,0.8h0.1c0,0.1,0.1,0.3,0.3,0.3c0.1,0,0.4,0.1,0.7,0.1c0-0.1,0-0.1,0-0.3c0.1-0.1,0.3-0.1,0.4-0.4c0-0.1,0-0.1,0-0.3
		c-0.1-0.1,0-0.3,0.1-0.7c0,0,0-0.1-0.1-0.3c0,0,0.1-0.3,0.1-0.5c0.1-0.3,0.1-0.5,0.1-0.8c0-0.3-0.1-0.4-0.1-0.5
		c0-0.1,0.1-0.3,0.3-0.3c0.1-0.1,0.3-0.3,0.3-0.3c0-0.1,0-0.4,0-0.8c0-0.4-0.1-0.7,0-0.9h0.1c0,0-0.1-0.1-0.1-0.3
		c0,0,0.1-0.3,0.4-0.7c0-0.1,0-0.3-0.1-0.3s-0.1-0.1-0.1-0.1c-0.1-0.4-0.1-0.8,0-1.1l0.1-0.1c0.3-0.1,0.3-0.3,0.4-0.4
		c-0.1-0.3-0.1-0.5-0.1-0.5c0-0.1-0.1-0.3-0.4-0.5c-0.3-0.1-0.4-0.3-0.7-0.5V3.4c0,0-0.1,0-0.3-0.1c-0.1-0.1-0.3-0.4-0.4-0.7
		c-0.1,0-0.1-0.1-0.4-0.1c0,0,0-0.1,0-0.3c0,0,0.1,0,0.3-0.1c0-0.3,0.1-0.5,0.4-0.8c0.1,0,0.1,0,0.3,0c0.4-0.1,0.8-0.1,0.9-0.1
		c0,0,0.1,0,0.4,0.1c0.1,0.1,0.4,0.1,0.7,0.1c0.1-0.1,0.4-0.1,0.5-0.3c0.1,0,0.4,0.1,0.8,0.1l0.3-0.1c0.8-0.1,1.5-0.1,2,0
		c0.1,0,0.3,0.3,0.5,0.5c0.3,0.3,0.5,0.4,0.8,0.4c0.1,0,0.5-0.3,0.9-0.5C42.9,1.3,43.3,1,43.6,1z M33.2,14.8v0.4
		c-0.1,0-0.4,0.1-0.7,0.1c0.1,0.1,0.4,0.4,0.7,0.8c0.1,0,0.3,0,0.5,0c0-0.1,0-0.1,0-0.3l-0.3-0.1v-0.3c0,0.1,0,0,0.1-0.1
		C33.5,15,33.3,14.9,33.2,14.8z M33.9,15.3v0.1H34C34,15.4,34,15.4,33.9,15.3C34,15.3,33.9,15.3,33.9,15.3z M36.3,21l0.1,0.4
		C36.4,21.2,36.4,21,36.3,21z M37.7,10v0.1h-0.4c0,0,0,0.1-0.1,0.1c0.1,0.7,0.1,1.1,0.1,1.2v0.1h0.3c0.1,0,0.1-0.1,0.3-0.1
		c0-0.1,0-0.3,0-0.4c0.1-0.1,0.1-0.1,0.3-0.3c0-0.1,0-0.3,0-0.5C38,10.1,37.9,10.1,37.7,10z M37.7,8.2l0.1,0.4
		C37.7,8.4,37.7,8.2,37.7,8.2z M41.1,3c-0.1,0.3-0.4,0.4-0.7,0.7c0,0-0.1,0-0.3,0c0,0.1-0.1,0.4-0.3,0.7c-0.1,0-0.3,0.1-0.4,0.3
		c-0.1,0.3-0.1,0.4-0.1,0.7l0.1,0.1c0.1,0.3,0.1,0.5,0.3,0.8C40,6.1,40,6.4,39.9,6.8C40,6.9,40.1,7,40.3,7.2c0.1,0.3,0.1,0.5,0,0.9
		c0,0.4-0.1,0.8,0,0.9c0,0.1,0.1,0.3,0.3,0.4c0,0,0.1,0,0.4,0.1c0.1-0.1,0.3-0.3,0.5-0.5c0.1,0,0.4-0.1,0.7-0.1
		c0.1-0.1,0.3-0.4,0.4-0.8c0.1-0.7,0.3-0.9,0.3-0.9c-0.1-0.1-0.3-0.3-0.5-0.5c0,0,0-0.1,0-0.3c0.3-0.3,0.5-0.4,0.5-0.5
		c0,0,0.1-0.4,0.1-0.9c-0.4-0.1-0.7-0.4-0.7-0.5s0-0.3,0.1-0.5c-0.1-0.1-0.3-0.1-0.4-0.3c0,0-0.3,0.1-0.4,0.1
		C41.6,3.4,41.5,3.3,41.1,3z M41.7,9.4c0,0.1-0.1,0.3-0.1,0.5c-0.1,0-0.3-0.1-0.4-0.1V10c-0.1,0-0.4,0.1-0.7,0.1
		c0.1,0.1,0.3,0.3,0.7,0.5c0.1,0,0.3,0,0.4,0c0.3,0,0.4-0.1,0.5-0.4s0.3-0.5,0.3-0.8C42.1,9.6,42,9.6,41.7,9.4z M41.1,11.6
		L41.1,11.6c-0.1,0.1-0.1,0.1-0.1,0.1s0.1,0.3,0.4,0.4c0.1,0,0.1,0,0.3,0l0.1-0.3l-0.1-0.3C41.6,11.6,41.3,11.6,41.1,11.6z
		 M41.7,12.5l0.1,0.3C41.9,12.5,41.9,12.5,41.7,12.5z"/>
	<path class="st0" d="M67.2,1c0.3,0,0.5,0,1.1,0c0.1,0,0.1,0,0.1,0.1C68.9,1.3,69.5,1.6,70,2c0,0.1,0,0.3,0,0.5
		c0,0.1,0.3,0.4,0.8,0.5c0,0.1,0,0.1-0.1,0.4c-0.1,0.1-0.4,0.3-0.8,0.5c0.3,0.4,0.4,0.5,0.4,0.7c0,0.1,0,0.4-0.1,0.9
		c0.1,0.1,0.4,0.3,0.7,0.4c0,0,0,0.1,0,0.3c0,0-0.1,0-0.3,0.1c0.1,0.4,0.3,0.9,0.4,1.6c0,0,0.1,0.1,0.5,0.4c0,0.3,0,0.5,0.1,0.9
		l0.5,0.3c0,0.1-0.1,0.3-0.1,0.4c-0.1,0-0.4,0.1-0.5,0.1c0,0,0,0.1,0,0.3c0,0.1,0.3,0.3,0.5,0.5h0.1c0,0.1,0,0.4-0.1,0.8l0.1,0.1
		c0,0.1,0,0.4,0,0.7c0.1,0.3,0.3,0.5,0.5,0.8c0.4,0,0.8,0,1.2,0.1v0.1c-0.3,0.1-0.4,0.3-0.7,0.4c0.3,0.1,0.4,0.4,0.4,0.5
		c0,0.3,0.1,0.5,0.1,0.8l0.1,0.3c0.1,0.4,0.1,0.8-0.1,1.3c0.1,0,0.1,0.1,0.3,0.3c0,0.3,0,0.3,0,0.3c-0.1,0-0.1,0.1-0.3,0.1
		c0,0.5,0.1,0.9,0.4,1.6c0.1,0.1,0.3,0.3,0.5,0.3c0.3,0.1,0.4,0.1,0.4,0.3c0,0.1,0.1,0.3,0.1,0.4c0,0.1,0,0.3,0.1,0.4l0.1,0.1
		l0.1,0.3c0.1,0.1,0.3,0.1,0.5,0.1s0.4,0,0.5,0.1c0,0.1,0.1,0.3,0.3,0.5c0.1,0,0.3,0,0.4,0.1c0,0,0,0.1,0.1,0.3c0.1,0,0.3,0,0.4,0.1
		v0.1H78c0,0.8,0,1.1,0,1.2c-0.1,0.1-0.1,0.1-0.3,0.4c-0.3,0.3-0.4,0.4-0.5,0.4c-0.4,0-0.7,0-0.7,0c-0.1,0.1-0.5,0.3-0.9,0.4
		c-0.1,0-0.7,0-1.9-0.1c-0.1,0-0.4,0-0.7,0.1c-0.3,0.1-0.5,0.1-0.7,0.1c-0.3-0.1-0.5-0.1-0.8-0.3c-0.3,0-0.5,0-1.1,0
		c-0.1-0.1-0.3-0.1-0.5-0.3c0,0-0.1,0-0.4,0.1c-0.1,0.1-0.3,0.1-0.3,0.1c-0.1-0.1-0.3-0.3-0.4-0.5c-0.1,0-0.1,0-0.4-0.1
		c0.1-0.3,0.1-0.7,0-0.9c-0.1,0-0.4,0-0.7,0c-0.1,0.1-0.3,0.1-0.4,0.3c-0.1,0-0.3,0-0.4,0s-0.3-0.1-0.4-0.1c0,0-0.3,0-0.4,0.1
		c0.1,0.3,0.1,0.5,0.1,0.5c0,0.1-0.1,0.3-0.4,0.4c-0.1,0.1-0.3,0.1-0.4,0.3c-0.3,0-0.7,0-1.2,0.1c-0.7,0.1-0.9,0.1-0.9,0.1
		c-0.8,0-1.1,0-1.1,0s-0.1,0-0.3,0c-0.1,0-0.3,0-0.3,0c-0.1-0.1-0.4-0.1-0.7-0.3c-0.3,0-0.7,0.1-1.1,0.1c-0.3-0.1-0.5-0.1-0.9-0.3
		c-0.1,0-0.4,0-0.8,0c0,0-0.1-0.1-0.4-0.3c-0.3-0.3-0.4-0.3-0.4-0.4c-0.1-0.1-0.1-0.4-0.3-0.8c0-0.4,0-0.8,0-0.9
		c0.1-0.3,0.4-0.4,0.9-0.4c0,0,0.4,0,1.1,0c0.4,0,0.7-0.1,0.9-0.3l0.5-0.9c0-0.1-0.1-0.3-0.1-0.4c0-0.1,0.1-0.3,0.3-0.3
		c0.1-0.1,0.3-0.3,0.4-0.3c0-0.1,0-0.3,0-0.4c0-0.1-0.1-0.3,0-0.4c0.4-0.5,0.7-0.8,0.7-0.8h0.1c0,0,0-0.4,0-1.1c0,0,0,0-0.1,0
		c0,0-0.1,0-0.1-0.1s0.1-0.3,0.3-0.3c0.1-0.1,0.3-0.3,0.3-0.3c0-0.1,0-0.1,0-0.3c0.1,0,0.1,0,0.3-0.1c0-0.3,0-0.4-0.1-0.5
		c-0.1,0-0.3-0.1-0.4-0.3c0-0.1,0-0.1,0-0.3c0.1,0,0.3-0.1,0.4-0.3c0.1-0.1,0.1-0.3,0.3-0.5c0.1-0.3,0.1-0.5,0.3-0.5
		c0.1-0.1,0.1-0.1,0.3-0.3c0.3-0.4,0.4-0.7,0.4-1.1C64,11.4,64,11,64,10.6l0.1-0.3c0-0.1,0.1-0.3,0-0.4c0,0,0,0-0.1-0.1
		c0-0.1-0.1-0.1,0-0.3c0.1,0,0.1-0.1,0.3-0.1c0,0,0-0.1,0.1-0.4c0-0.3-0.1-0.5-0.1-1.1c0.1-0.1,0.3-0.3,0.4-0.4c0,0-0.1-0.1-0.1-0.4
		c0.1-0.1,0.4-0.3,0.7-0.5c0.1-0.3,0.1-0.5,0.1-0.9c0-0.4-0.1-0.8,0-0.9c0-0.1,0.1-0.3,0.3-0.4c0,0,0,0,0-0.1c0-0.1,0-0.1,0-0.1
		c0-0.1-0.1-0.3-0.3-0.4c-0.1-0.1-0.3-0.3-0.3-0.4c0-0.1,0.1-0.4,0.5-0.7c0.1,0,0.3,0,0.4-0.1c0-0.1,0-0.4,0.1-0.7L67.2,1z
		 M66.5,18.4c-0.3,0-0.5,0.3-0.5,0.8h-0.4c-0.1,0-0.3,0-0.4,0c0,0.1,0,0.3,0,0.5c-0.1,0-0.1,0.1-0.3,0.1c0,0,0.1,0.1,0.1,0.3
		c0.3,0,0.3,0.1,0.1,0.1c0.8,0,1.3,0.1,1.6,0.5c0,0.1,0.1,0.3,0.3,0.4c0.1,0,0.4,0,0.7,0c0,0.1,0.1,0.3,0.3,0.4c0.1,0,0.3,0,0.4,0.1
		l0.3-0.3c0-0.1,0-0.1,0.1-0.4h0.1c0,0,0.3-0.1,0.5-0.5C69.9,20.2,70,20,70,20c0-0.1-0.1-0.3-0.1-0.4c0-0.1-0.1-0.3-0.3-0.3
		c-0.1,0-0.3,0-0.4,0l-0.1-0.7c-0.1-0.1-0.5-0.1-1.1-0.3C67.2,18.4,66.8,18.4,66.5,18.4z M68.1,9.4c-0.1,0-0.4,0.3-0.8,0.7
		c0,0,0,0.1,0,0.3c0.1,0,0.1,0.1,0.4,0.1c-0.1,0-0.4,0.1-0.7,0.4c0,0.1,0,0.1,0,0.3c0,0.1,0.1,0.1,0.1,0.3c0,0.1-0.1,0.1-0.4,0.3
		c0,0.3-0.1,0.5-0.1,0.9c-0.4,0-0.5-0.1-0.5-0.1c0,0.3,0,0.4,0,0.3h0.5c0,0,0-0.1,0.1-0.3c0.4,0.5,0.5,1.1,0.5,1.3
		c0,0-0.1,0.1-0.3,0.1c0,0.1,0,0.1,0,0.3l0.1,0.1c0.1-0.1,0.3-0.1,0.4-0.3h0.8c0.1-0.3,0.3-0.5,0.4-1.1c-0.1-0.1-0.3-0.3-0.5-0.5
		c-0.1,0-0.3-0.1-0.5-0.1c0-0.1,0-0.1-0.1-0.3c0.3,0.1,0.5,0.1,0.7,0.1c0.3,0,0.4-0.1,0.4-0.4c0-0.1,0-0.4-0.1-0.7
		c-0.1-0.4-0.1-0.7-0.1-0.8c-0.3-0.1-0.3-0.1-0.3-0.1s0-0.3,0.1-0.7L68.1,9.4z"/>
	<path class="st0" d="M91.2,1c0.3,0,0.4,0.1,0.5,0.3C91.9,1.7,92,1.8,92,1.8c0.1,0,0.3,0,0.5,0L92.7,2c0.4,0.1,0.9,0.1,1.5,0.3
		c0.5,0.1,0.9,0.3,1.1,0.5c0,0.1,0,0.4,0.1,0.7c0.1,0,0.4,0.1,0.7,0.1c0.1,0.1,0.1,0.1,0.4,0.3c-0.1,0.1-0.1,0.3-0.3,0.4
		c0.1,0.1,0.3,0.4,0.4,0.8c0,0.1,0,0.4,0,0.8L96.7,6c0,0.3,0,0.7,0,1.1c0,0.1,0.1,0.3,0.4,0.3c0.3,0.1,0.4,0.3,0.4,0.4
		c0,0.1,0,0.4,0,0.7c0.1,0,0.4,0.1,0.8,0.3c-0.1,0.7-0.1,1.1-0.1,1.2l0.1,0.1c0,0.1-0.1,0.4-0.1,0.8c0,0,0.1,0.3,0.5,0.7
		c-0.1,0.5-0.1,0.9-0.1,1.1c0.1,0.1,0.4,0.1,0.7,0.4c0,0.1,0.1,0.3,0.1,0.4c0.1,0,0.3,0.1,0.4,0.3c0,0.1,0,0.1,0,0.3l0.1,0.1
		c0,0.1,0,0.4,0,1.1c0.3,0,0.5,0.1,1.1,0.4c0,0.1,0,0.3,0,0.4c-0.1,0-0.1,0-0.4,0.1c0,0.4,0,0.5,0,0.7c0,0.1,0.3,0.1,0.5,0.3
		c0,0,0-0.1,0-0.3c0,0,0.1-0.1,0.3-0.1c0-0.1,0-0.3,0.1-0.4h0.4c0-0.1,0-0.3,0-0.4c-0.1,0-0.1-0.1-0.3-0.1c0-0.1,0-0.3,0-0.4
		l-0.1-0.1v-0.1c0,0,0.1-0.3,0.1-0.5c0.1-0.4,0.1-0.5,0.1-0.7c-0.1-0.1-0.3-0.4-0.4-0.7c0-0.1,0-0.4,0.1-0.7
		c0.1-0.3,0.1-0.4,0.1-0.5l-0.3-0.1c0.3-0.9,0.3-1.3,0.3-1.3l-0.1-0.4c0-0.3,0.1-0.5,0-1.1l-0.5-0.4c0.4-0.5,0.5-1.2,0.4-1.6
		c0,0-0.1-0.1-0.1-0.4c-0.1-0.3-0.1-0.4-0.1-0.5l0.3-0.1c0-0.1,0-0.4,0-0.7l-0.1-0.3c0-0.1,0-0.4,0-0.7c-0.1,0-0.1-0.1-0.3-0.1
		c-0.3-0.3-0.5-0.4-0.9-0.4c-0.1,0-0.3,0-0.5,0s-0.4,0-0.5,0s-0.3,0-0.4,0l-0.1-0.1c-0.3-0.1-0.4-0.1-0.7-0.3
		c-0.1-0.1-0.3-0.3-0.3-0.5c0-0.1,0-0.1,0-0.3l0.3-0.1C97.9,2.1,97.9,2,97.9,2C98,1.8,98,1.7,98.3,1.7c0,0,0.3-0.1,0.8-0.3
		c0.5-0.1,0.7-0.1,0.8-0.1c0.5,0.4,0.9,0.7,1.1,0.7c0.3-0.1,0.7-0.4,1.1-0.5c0.4,0,0.7,0.1,0.9,0.5c0.1,0,0.5,0,0.8,0
		c0.3,0.1,0.7,0.3,1.1,0.3c0.1,0,0.4-0.1,0.7-0.1c0.1,0.1,0.3,0.1,0.4,0.3c-0.1-0.1,0,0,0.3,0c0.1,0.1,0.3,0.3,0.4,0.4
		c0,0.1,0,0.3-0.1,0.4c-0.1,0-0.1,0-0.4,0c-0.1,0.1-0.4,0.4-0.8,0.7c-0.3,0-0.8,0.1-1.3,0.3l0.1,0.1c-0.1,0.1-0.1,0.3,0,0.4
		c0,0.1,0,0.3,0.1,0.4c0,0.1-0.1,0.4-0.1,0.8c0.1,0.1,0.1,0.3,0.3,0.4c0,0.1,0,0.4,0,0.7l0.1,0.1c0,0.1,0,0.3,0,0.5
		c0,0,0,0.1-0.1,0.3c0,0.1-0.1,0.1,0,0.3l0.1,0.1c0.1,0.4,0,0.7-0.3,0.8c0,0.1,0.1,0.1,0.1,0.3l0.1,0.4c-0.3,0.3-0.4,0.4-0.4,0.7
		c0,0.1,0,0.4,0.1,0.8H104c-0.1,0.7-0.3,1.1-0.1,1.1l-0.1,0.1c-0.1,0.4-0.1,0.7-0.1,0.9c0,0,0,0,0.1,0.1c0.1,0,0.1,0.3,0.1,0.4
		c0,0.1-0.1,0.5-0.3,0.9c-0.1,0.4-0.1,0.8-0.1,1.1h0.1l0.1,0.3c0,0.1-0.1,0.3-0.1,0.3v0.1c0,0,0.1,0.1,0.3,0.3l0.1,0.5
		c0,0.3,0.1,0.5,0.4,1.1c-0.1,0.4-0.3,0.8,0,1.2v0.1c0,0.1-0.1,0.3-0.1,0.4c0,0.1,0.1,0.1,0.3,0.3c0.1,0.1,0.3,0.1,0.4,0.3
		c-0.1,0.1-0.1,0.3-0.3,0.4c-0.1,0.4,0,1.1,0.3,2.3c-0.4,0.3-1.1,0.5-1.7,0.8c-0.4,0.1-0.7,0.1-0.8,0.1s-0.3-0.1-0.7-0.3
		c-0.4-0.3-0.5-0.4-0.5-0.4c0-0.1-0.1-0.1-0.1-0.4c-0.1-0.3-0.4-0.7-0.7-1.2c0-0.1,0-0.5-0.1-0.9c-0.1-0.1-0.3-0.3-0.4-0.5
		c0-0.1,0-0.3,0-0.5l-0.4-0.7c-0.1-0.1-0.4-0.3-0.7-0.5c-0.1-0.1-0.1-0.4-0.1-0.8s0-0.7-0.1-0.8c-0.1-0.3-0.3-0.5-0.5-0.8
		c0-0.1-0.1-0.4-0.1-0.8c-0.1-0.1-0.3-0.4-0.4-0.7c0-0.3-0.1-0.7-0.3-1.3c-0.1-0.1-0.4-0.4-0.8-0.7c-0.1-0.1-0.1-0.4-0.3-0.8
		c0-0.4-0.1-0.5-0.1-0.7c-0.3-0.3-0.5-0.5-0.8-0.9c0-0.1,0-0.3-0.1-0.5c-0.1-0.1-0.4-0.3-0.5-0.4c0-0.3-0.1-0.5-0.1-0.9
		c-0.1-0.1-0.3-0.3-0.4-0.4c0-0.1,0-0.1,0-0.3c-0.1,0-0.3,0-0.5,0c-0.1,0.9-0.1,1.3-0.1,1.5c0,0,0.3,0.3,0.7,0.7
		c-0.1,0-0.3,0.1-0.3,0.3c-0.3,0.4-0.3,0.8-0.3,1.5c0,0.1,0,0.3,0.1,0.3c0.1,0,0.1,0,0.3,0c0,0.1,0,0.3,0,0.4
		c-0.1,0-0.1,0.1-0.3,0.3c0,0.1,0,0.4-0.1,0.7l-0.1,0.1c0,0.1,0,0.4,0.1,0.7l-0.1,0.3c-0.1,0.4-0.3,0.8-0.7,1.1c0,0.1,0,0.3,0,0.4
		c0.1,0,0.1,0.1,0.3,0.1c0,0,0.1,0.3,0.1,0.5s0.1,0.4,0.3,0.4c0,0-0.1,0.1-0.1,0.3c-0.3,0.4-0.4,0.8-0.3,1.1
		c0.1,0.1,0.3,0.4,0.5,0.7c0,0.1,0,0.3,0.1,0.5c0.1,0.1,0.3,0.1,0.4,0.3c-0.3,0.4-0.3,0.7-0.1,0.8c0.1,0,0.1,0.1,0.4,0.1
		c0.1,0.1,0.3,0.4,0.5,0.7c0.1,0,0.3,0,0.4,0c0.1,0.1,0.3,0.1,0.4,0.3c0.4,0.1,0.9,0.3,1.3,0.4c0.5,0.1,0.8,0.5,0.8,0.8
		c0,0,0,0.3-0.1,0.5c-0.3,0.1-0.7,0.3-1.3,0.4c-0.3,0-0.8,0.1-1.5,0c-0.7,0-1.1,0-1.5,0L93.1,24c0,0-0.3,0-1.1,0
		c-0.7,0-1.5-0.1-2.1-0.1c-0.8,0-1.3-0.3-1.6-0.7c-0.1-0.3-0.1-0.5,0-0.9c0-0.1,0.1-0.3,0.3-0.3c0.3,0,0.4-0.1,0.4-0.1l0.1-0.1
		c0.1,0,0.3-0.1,0.7-0.1c0.1-0.1,0.4-0.3,0.7-0.5c0.3-0.3,0.4-0.5,0.5-0.7c0-0.1,0-0.3,0-0.4c0.1-0.1,0.1-0.3,0.3-0.4
		c0.1-0.5,0.1-1.2,0-2.1c-0.1-0.1-0.1-0.4-0.3-0.5c0-0.4,0-0.8,0-1.3c0-0.4,0.1-0.8,0.1-1.1c0-0.1,0-0.3-0.1-0.5
		c-0.1-0.3-0.1-0.4-0.1-0.5s0-0.5,0-1.1c0-0.8,0-1.2,0.1-1.3l0.1-0.1c0-0.1,0-0.4-0.1-0.7c0-0.1-0.1-0.4-0.1-0.5c0,0,0-0.1,0-0.4
		c0,0,0.1,0,0.1-0.3c0-0.1,0-0.3,0-0.4s0-0.3,0-0.4c0-0.1,0-0.3-0.1-0.5c-0.1-0.3-0.1-0.5-0.1-0.7c0,0,0-0.1,0.1-0.4
		c0.1-0.3,0.1-0.4,0.1-0.5c-0.1-0.1-0.3-0.4-0.4-0.8c0-0.4,0-0.8,0-1.3c0.4-0.3,0.1-0.4-0.1-0.4c-0.3,0-0.7-0.1-0.9-0.1l-0.8-0.3
		c-0.4-0.1-0.5-0.3-0.4-0.3c0-0.1,0-0.3,0.1-0.4h0.5c0.1-0.4,0.3-0.8,0.3-1.1c0.5,0,0.9,0,1.2-0.1C90.5,1.3,90.8,1.2,91.2,1z"/>
	<path class="st0" d="M124.4,1c0.7-0.1,1.2,0.1,1.6,0.7c0,0.1,0,0.3,0.1,0.4c0.3,0,0.7,0,1.2,0c0.1,0.1,0.4,0.3,0.7,0.5
		c0.1,0,0.3,0,0.4,0V2.5c0.1,0,0.3-0.1,0.4-0.4l-0.1-0.3c0.1,0,0.4,0,0.7-0.1c0,0,0-0.1,0.1-0.3l0.1-0.1c0.1,0,0.4,0,0.7,0.1
		l0.4,1.3h0.1c0,0.1,0,0.4,0,0.7c0,0,0.1,0,0.1,0.1c0,0.1,0.1,0.3,0.1,0.7c-0.1,0.1-0.3,0.1-0.4,0.4c0,0-0.1,0-0.1,0.1
		c0.1,0,0.3,0.1,0.4,0.3c0,0,0,0.1,0,0.3c-0.1,0.1-0.3,0.3-0.5,0.4c0.1,0.3,0.3,0.5,0.5,0.8c0,0.1,0,0.1,0,0.3
		c-0.1,0-0.1,0.1-0.4,0.3c0.1,0.4,0.3,0.7,0.3,0.9c0,0.1-0.1,0.1-0.1,0.3c0.1,0.1,0.3,0.3,0.4,0.4c0,0.1,0,0.1,0,0.4
		c-0.1,0.1-0.4,0.3-0.7,0.4v0.1c0,0-0.1,0.1-0.3,0.3c-0.1,0.1-0.3,0.3-0.4,0.3s-0.3,0-0.4-0.1c-0.1-0.1-0.3-0.3-0.3-0.4
		c-0.3,0-0.5-0.1-0.8-0.3c0-0.1,0-0.4-0.1-0.7c-0.1-0.1-0.3-0.4-0.4-0.7c0-0.1,0-0.1,0-0.3c-0.1-0.1-0.3-0.3-0.4-0.4
		c0.1-0.1,0.1-0.3,0.1-0.7c-0.1-0.3-0.4-0.7-0.7-1.1c0-0.1,0-0.3-0.1-0.5l-0.1-0.1c0-0.1,0-0.1,0-0.3h-0.1c0-0.1-0.1-0.3-0.3-0.4
		c-0.1-0.1-0.5-0.3-1.1-0.5c-0.7-0.3-1.1-0.3-1.2-0.3c-0.1,0.1-0.4,0.3-0.7,0.4c-0.1,0-0.3,0-0.5,0c0,0.1-0.1,0.1-0.3,0.4
		c-0.1,0.1-0.5,0.3-0.9,0.4c-0.1,0.1-0.4,0.4-0.9,0.7h-0.1c0,0.1,0,0.4-0.1,0.7c0,0-0.1,0-0.3,0.1c0,0.1-0.1,0.4-0.3,0.7h-0.4
		c0,0,0.1,0.1,0.4,0.1c0,0.1,0,0.3-0.1,0.5c-0.1,0-0.3,0-0.3,0.1c0,0.3,0,0.5-0.1,0.9c-0.1,0.1-0.3,0.4-0.4,0.7
		c0,0.1,0.1,0.3,0.1,0.5c-0.1,0.1-0.3,0.3-0.4,0.5c0.1,0,0.1,0.3,0.1,0.5l-0.1,0.3c0,0.3,0,0.5,0,0.9c0,0,0,0.1-0.1,0.4
		c-0.1,0.3-0.1,0.3-0.1,0.4c0.1,0.1,0.3,0.3,0.4,0.4c0,0.3,0,0.5,0,0.9s0,0.8,0,0.9c0.1,0.1,0.1,0.1,0.3,0.4c0,0.1,0,0.5,0,0.8
		c0.1,0.1,0.4,0.3,0.5,0.5c0,0.1-0.1,0.4-0.3,0.8c0,0,0.3,0.3,0.7,0.7c0,0.1,0,0.1,0,0.3c0,0.1-0.1,0.3-0.1,0.3
		c0.1,0,0.1,0.1,0.3,0.3c0.1,0.3,0.3,0.8,0.5,1.3c0.1,0.1,0.3,0.1,0.4,0.1s0.3,0,0.5-0.1c0.3,0,0.4-0.1,0.7-0.1
		c0.1,0.3,0.3,0.5,0.5,0.7c0.1-0.1,0.3-0.1,0.4-0.3c0.1,0,0.3,0,0.7,0.1c0.4,0.1,0.5,0.1,0.5,0.1s0.1,0.1,0.1,0.3c0.1,0,0.3,0,0.4,0
		c0-0.1-0.1-0.4-0.1-0.8c0.1,0,0.1-0.1,0.3-0.1s0.4,0,0.7,0c0,0,0.1-0.1,0.4-0.3c0.3-0.3,0.3-0.3,0.3-0.4c0-0.3,0-0.5,0.1-1.1h0.3
		c0.1-0.1,0.4-0.4,0.4-0.9c0-0.3,0-0.7,0.1-1.2c0.1-0.1,0.1-0.1,0.1-0.3c-0.1,0-0.3-0.1-0.4-0.3c0,0,0-0.1,0-0.3
		c-0.1-0.1-0.1-0.3-0.4-0.4c-0.3,0-0.5,0.1-0.8,0.1c-0.4,0-0.8,0-0.9,0c-0.1-0.1-0.4-0.3-0.7-0.5c-0.1,0-0.3,0-0.4-0.1
		c0-0.1,0-0.1-0.1-0.3c0,0-0.1,0-0.3-0.1c0,0,0-0.1,0-0.3c0.1-0.1,0.3-0.1,0.5-0.4c0-0.1,0.1-0.3,0.1-0.4c0.3-0.1,0.5-0.3,1.1-0.3
		s0.9,0,1.1,0c0-0.1,0.1-0.1,0.1-0.3c0.1,0,0.3,0,0.4-0.1c0.1-0.1,0.4-0.3,0.7-0.4c0.1,0,0.3,0,0.5,0.1c0.1,0,0.1,0.1,0.3,0.1
		s0.5,0,0.8-0.1c0.4-0.1,0.7-0.1,0.9-0.1c0.4,0.1,0.8,0.3,1.3,0.4c0.3-0.1,0.7-0.1,1.2-0.1c0.1,0,0.1,0.1,0.3,0.3
		c0.1,0.1,0.1,0.3,0.3,0.3c0.3,0,0.5,0.1,0.9,0.1c0.3,0.1,0.7,0.4,1.2,0.8c0,0.1-0.1,0.1-0.1,0.3c-0.1,0-0.3,0-0.4,0.1
		c-0.1,0.3-0.3,0.5-0.5,0.9c-0.3,0-0.7,0-1.1,0.1c-0.3,0-0.7,0.1-1.3,0.3l0.1,0.3l-0.4,0.3c0,0.1,0,0.1,0,0.3
		c-0.1,0-0.3,0.1-0.4,0.1c0,0.1-0.1,0.3-0.1,0.4c0,0.3,0,0.4,0.1,0.4h0.1c0,0,0.1,0,0.3,0.1c-0.1,0.1-0.1,0.1-0.1,0.3
		c0,0.1,0,0.1,0.1,0.3c0.1,0.1,0.1,0.3,0.3,0.3c0,0.3,0,0.4-0.1,0.5c-0.1,0.1-0.1,0.1-0.3,0.3c0-0.1,0,0.1,0.1,0.7
		c0,0.3-0.1,0.5-0.1,1.1c0.1,0.1,0.1,0.1,0.3,0.3c0,0.1,0,0.3,0,0.4c-0.1,0.1-0.4,0.1-0.7,0.4c0,0,0,0.1-0.1,0.3
		c0.1,0,0.1,0.1,0.1,0.3c0,0.1,0,0.3-0.1,0.3l0,0c-0.1,0.1-0.1,0.3-0.4,0.4h-0.1c0,0.1,0,0.1,0,0.3c0,0-0.1,0.1-0.3,0.4
		c-0.1,0.3-0.3,0.3-0.3,0.3c-0.1,0-0.3,0.1-0.4,0.1c-0.1,0-0.5-0.1-1.1-0.4v-0.1c-0.1,0-0.4-0.1-0.9-0.1c-0.4,0-0.8,0-0.9,0.1
		c-0.1,0.1-0.4,0.4-0.8,0.7c-0.3,0-0.5,0.1-0.9,0.1c-0.3,0-0.8,0-1.5-0.1c-0.7,0-1.1-0.1-1.3-0.1c-0.4,0.1-0.7,0.1-0.7,0.1
		c-0.1,0-0.3-0.3-0.4-0.5c-0.1-0.3-0.3-0.5-0.4-0.5c-0.3,0-0.7,0-1.2-0.1c-0.1,0-0.3-0.4-0.4-1.2c-0.4-0.1-0.7-0.1-0.7-0.1
		c-0.3-0.1-0.4-0.3-0.4-0.4s0-0.4-0.1-0.8c-0.1,0-0.3-0.1-0.4-0.3c0-0.1,0-0.3,0-0.4s0-0.3,0-0.4c-0.1-0.1-0.4-0.4-0.7-0.8
		c0.1-0.1,0.1-0.3,0.1-0.7c-0.1-0.1-0.1-0.3-0.3-0.4c0-0.1,0.1-0.4,0.1-0.7c-0.1-0.1-0.1-0.3-0.3-0.4c0-0.1,0.1-0.4,0.1-0.8
		c0-0.1-0.1-0.3-0.3-0.4h-0.1c0-0.1,0-0.3,0-0.4c0,0,0.1,0,0.3-0.1c0-0.1,0-0.3,0-0.3c-0.3-0.3-0.4-0.5-0.3-0.9
		c0.1-0.7,0.3-1.1,0.4-1.2c0.1,0,0.1-0.1,0-0.1s-0.1-0.1-0.3-0.4c-0.1-0.3-0.1-0.4-0.1-0.5c0,0,0.1-0.1,0.1-0.3
		c0.1-0.1,0.1-0.4,0.1-0.5c-0.3-0.3-0.3-0.4-0.3-0.4c0.1,0,0.3-0.4,0.5-1.1c0.1-0.7,0.3-1.2,0.3-1.6c0-0.1,0-0.3,0-0.3
		c0.1-0.1,0.4-0.4,0.7-0.7c0-0.3,0.1-0.5,0.3-1.1c0,0,0.1-0.3,0.4-0.4c0.1-0.1,0.3-0.4,0.3-0.5c0-0.1,0-0.1,0.1-0.1
		c0.1,0,0.1-0.1,0.3-0.1c0-0.1,0-0.4,0.1-0.7c0,0,0.1,0,0.3,0c0-0.1,0.1-0.3,0.1-0.4c0.1,0,0.3,0,0.4-0.1c0.1-0.3,0.4-0.5,0.9-1.1
		c0.1,0,0.1,0,0.3,0c0.1-0.1,0.1-0.1,0.3-0.3c0.1,0,0.3,0,0.5,0c0.3,0,0.4,0.1,0.4,0.1c0.1,0,0.3,0,0.4-0.1c0,0,0.1-0.3,0.4-0.7
		c0.3,0,0.5,0.1,0.8,0.1c0.1,0,0.3,0,0.4-0.1C124.3,1.2,124.4,1,124.4,1z M124.9,21.7l0.1,0.3C124.9,21.7,124.9,21.7,124.9,21.7z"/>
	<path class="st0" d="M150.8,1c0.8,0,1.5,0,1.9,0.1c0,0,0.1,0.1,0.4,0.3c0.3,0.1,0.7,0.1,1.2,0.1c0.1,0,0.4-0.1,0.7-0.1
		c0.1,0.1,0.3,0.1,0.5,0.3c0.3,0,0.5,0,0.7,0l0.1-0.1c0.4,0,0.9,0,1.9,0c0.8,0.1,1.3,0.1,1.6,0.3c0.1,0,0.1,0.3,0.3,0.5
		c0.1,0.3,0.3,0.5,0.4,0.5h0.1l0.1,0.1c0,0.1,0,0.3-0.1,0.3c-0.1,0.1-0.1,0.3-0.1,0.3c0.1,0.1,0.3,0.3,0.4,0.5c0,0.1,0,0.3-0.1,0.5
		c0,0.1,0,0.3,0.1,0.4s0.1,0.3,0.1,0.3c0,0.1,0,0.1,0,0.3c-0.3,0.1-0.5,0.1-0.9,0.3c0,0.1,0,0.3,0,0.3c0,0.1,0.1,0.1,0.1,0.1
		c0,0.1,0,0.3-0.1,0.5c0,0.1,0.1,0.3,0.3,0.3s0.3,0,0.4,0.1c0,0,0,0.1,0.1,0.1c0,0.1,0,0.3-0.1,0.4c-0.1,0-0.1,0.1-0.3,0.1
		c0,0.1-0.1,0.4-0.3,0.7c-0.1,0.1-0.4,0.4-0.7,0.9c0,0-0.1,0-0.3,0c-0.5,0-1.1-0.1-1.5-0.4c0-0.1,0-0.1-0.1-0.3
		c-0.1,0-0.1,0-0.3-0.1c0,0,0-0.1,0-0.3h-0.1c0-0.1-0.1-0.3-0.1-0.3c-0.1,0-0.3,0-0.4-0.1c0-0.1,0-0.1-0.1-0.3c-0.1,0-0.1,0-0.3-0.1
		c0-0.1-0.1-0.3-0.4-0.5c-0.1,0-0.1,0-0.3-0.1c0,0-0.1-0.3-0.4-0.7c0-0.1,0-0.3,0-0.4c-0.1-0.1-0.4-0.3-0.5-0.4
		c0-0.1-0.1-0.3-0.1-0.5c0-0.1-0.3-0.1-0.5-0.3c-0.3,0-0.4-0.1-0.5-0.3c0-0.1,0-0.1,0-0.3c0-0.1-0.1-0.3-0.3-0.3s-0.4-0.1-0.5-0.1
		c0,0,0,0.1-0.1,0.1c-0.4,0-0.8,0-1.3,0.1c0,0.1-0.1,0.1-0.1,0.3l0.1,0.3c-0.1,0-0.3,0-0.4,0c-0.1-0.1-0.3-0.3-0.4-0.4
		c0,0.1,0,0.1-0.1,0.3s-0.4,0.1-0.9,0.3c0,0,0,0.1,0,0.3h-0.1c0,0.1-0.1,0.4-0.3,0.7h-0.3c0,0.3,0,0.5,0,0.9h-0.3
		c0,0.1-0.1,0.4,0,0.8c0,0.4,0,0.5,0.1,0.7s0.3,0.3,0.8,0.4c0.4,0.1,0.7,0.3,0.8,0.3c0,0,0,0.1,0.1,0.3c0.4,0.3,0.8,0.5,1.1,0.5
		c0.5,0.1,0.9,0.1,1.3,0.1c0,0,0.1-0.1,0.3-0.1c0.1-0.1,0.3-0.1,0.4-0.1c0.3,0.1,0.5,0.3,0.8,0.4c0.1,0,0.4,0.1,0.7,0.1
		c0.1,0.1,0.1,0.3,0.4,0.3c0.1,0,0.3,0,0.5,0c0.1,0.1,0.3,0.1,0.4,0.3c0.1,0,0.3,0,0.5,0.1c0,0.1,0.1,0.1,0.1,0.3c0.1,0,0.3,0,0.5,0
		c0.1,0.1,0.4,0.4,0.7,0.5c0.1,0,0.3,0,0.4,0.1l0.1,0.1c0.1,0,0.3,0.1,0.5,0.1c0,0.1,0.1,0.1,0.1,0.3c0.1,0,0.4,0.1,0.5,0.3
		c0,0.1,0,0.5,0,0.9c0.3,0.1,0.5,0.3,1.1,0.3v0.3c-0.1,0.1-0.1,0.3-0.3,0.4c0,0.1,0,0.3,0.1,0.4c0.1,0.1,0.1,0.3,0.1,0.3
		c0,0.1,0,0.4,0.1,0.7c0,0,0.4,0.1,0.9,0.4v0.3c-0.1,0.1-0.4,0.3-0.8,0.4c0,0-0.1,0.1,0,0.3c0,0.1,0,0.3,0,0.4l-0.4,0.5
		c0,0,0,0.1,0.1,0.3c0.1,0,0.3,0.1,0.4,0.3c0,0.1,0,0.1,0,0.4c-0.1,0-0.3,0-0.4,0c0,0.3,0.1,0.4,0.1,0.4c0.3,0,0.4,0,0.7,0
		c0,0.1,0,0.3-0.1,0.5h-0.1v0.1c-0.1,0-0.3,0.1-0.4,0.1c0,0.1,0,0.3,0,0.3c-0.1,0-0.3,0.1-0.5,0.3c0,0-0.1,0.3-0.3,0.5
		c-0.1,0.3-0.3,0.4-0.4,0.4c-0.1,0-0.3,0-0.4,0c-0.1,0.1-0.3,0.3-0.4,0.4c0,0-0.1,0-0.3,0c0,0,0,0.1,0,0.3c-0.1,0.3-0.3,0.5-0.5,0.7
		c-0.4,0-0.8,0.3-1.5,0.4c0,0.1-0.1,0.3-0.1,0.4c-0.1,0-0.1,0-0.3,0s-0.3,0.1-0.3,0.3c0,0-0.3,0-0.8-0.1c-0.4,0-0.9,0.1-1.7,0.1
		c-0.3-0.1-0.7-0.1-1.1-0.3c-0.1,0-0.3,0-0.5,0c0-0.1-0.1-0.1-0.1-0.3c-0.1,0-0.4,0-0.7-0.1c-0.1-0.1-0.3-0.3-0.5-0.4
		c-0.4,0-0.8,0-1.6-0.1c0,0,0-0.1-0.1-0.3c-0.1,0-0.3,0-0.5-0.1c-0.1,0.3-0.4,0.5-0.8,0.9c-0.1,0-0.1,0-0.3,0c-0.3,0-0.5,0-0.7,0
		s-0.1-0.1-0.3-0.3c0,0-0.1,0-0.3,0c0-0.1-0.1-0.3-0.1-0.4c-0.1-0.1-0.4-0.3-0.9-0.5c0.1-0.7,0-1.2-0.1-1.7l-0.1-0.1c0,0,0,0,0.1,0
		c0-0.1,0.1-0.4,0.3-0.5c0-0.1-0.1-0.3-0.1-0.5c0.1,0,0.1-0.1,0.1-0.3c0-0.1,0-0.3,0-0.4l-0.1-0.4c0,0,0-0.3,0.1-0.9
		c0,0-0.1,0-0.1-0.1c0-0.1,0-0.3,0-0.5l-0.1-0.1c-0.1-0.5-0.1-0.9-0.1-1.3c0-0.1,0.1-0.3,0.4-0.5c0.1,0,0.5-0.1,0.9-0.3
		c0-0.1,0.1-0.1,0.3-0.3c0.4-0.1,1.1,0.1,1.9,0.7l0.1,0.1c0.1,0,0.4,0.1,0.7,0.1c0,0.1,0,0.3,0,0.4l-0.1,0.1c0,0.1,0,0.4-0.1,0.5
		c0.4,0.1,0.5,0.3,0.7,0.3c0.1-0.1,0.3-0.1,0.3-0.1s0,0.1,0.1,0.1c0,0.1,0.1,0.3,0.1,0.4c0,0-0.1,0.1-0.1,0.4
		c0.1,0.1,0.3,0.4,0.5,0.7c0,0.1,0,0.3,0,0.4c0.1,0.1,0.3,0.3,0.7,0.3c0.4,0.1,0.5,0.1,0.7,0.1c0.1,0.3,0.3,0.5,0.4,0.8
		c0.5,0,0.8-0.1,0.8-0.1c0,0.1,0.1,0.3,0.3,0.4c0.3,0.1,0.5,0.1,0.9,0.1l0.1-0.1h0.1l-0.1-0.3c0.1-0.1,0.1-0.1,0.3-0.4
		c0.5,0.1,0.8,0.3,0.9,0.3s0.3,0,0.4-0.1l0.3-0.3c0-0.3-0.1-0.7-0.1-1.1c0,0,0.1,0,0.1-0.1c0.1,0,0.3,0,0.4,0c0-0.1,0-0.5,0.1-0.9
		l0.1-0.1V16h-0.1c0-0.3,0-0.7-0.1-1.2l-0.1-0.1c0-0.1,0.1-0.1,0.1-0.1v-0.1c-0.1,0-0.1,0-0.1-0.1c0-0.1,0-0.1,0.1,0
		c0-0.1-0.1-0.1-0.1-0.1v-0.3c-0.5-0.3-0.8-0.5-0.9-0.7c0-0.1-0.1-0.3-0.1-0.4c-0.1,0-0.3,0-0.4,0c0,0-0.1-0.1-0.1-0.3h-0.4
		c0-0.1-0.1-0.3-0.3-0.3s-0.4,0-0.8,0l0.1,0.5c-0.1,0-0.4,0-0.7,0l-0.1-0.1c-0.1,0-0.4,0-0.7,0c-0.3-0.1-0.5-0.1-0.8-0.3
		c-0.1,0-0.4,0-0.7,0l-0.3-0.3c-0.1,0-0.4,0-0.8-0.1c-0.3-0.3-0.5-0.5-0.9-0.9c-0.1,0-0.3,0-0.4-0.1c0-0.1-0.1-0.3-0.4-0.4
		c0,0-0.1,0-0.3,0c-0.1-0.1-0.4-0.4-0.7-0.8c-0.1,0-0.1,0-0.3,0s-0.3-0.1-0.3-0.4c0-0.1-0.1-0.4-0.1-0.7c-0.1-0.1-0.3-0.3-0.4-0.4
		c0,0,0.1-0.3,0.3-0.8c0-0.1,0-0.4,0-0.7c-0.1,0-0.3,0.1-0.4,0.1V6.8c0.1,0,0.1-0.1,0.3-0.1c0-0.1,0-0.3,0-0.4
		c0.1,0,0.1-0.1,0.3-0.1c0-0.1,0-0.3,0-0.4c0.1,0,0.3-0.1,0.4-0.3c0-0.1,0-0.3,0.1-0.4c0,0,0,0,0-0.1c0,0-0.1-0.1-0.3-0.3
		S146,4.4,146,4.2s0.1-0.3,0.1-0.4h0.4c0.3-0.1,0.4-0.3,0.4-0.5c0-0.4,0.1-0.5,0.1-0.7l0.8-0.4c0.1,0,0.1,0,0.3,0
		c0,0,0.1-0.1,0.1-0.3c0.1,0,0.3,0,0.5-0.1c0.1-0.1,0.3-0.3,0.4-0.4C149.7,1.2,150.2,1.2,150.8,1z"/>
	<path class="st0" d="M181.7,1c0.3,0,0.5,0,1.1,0c0.1,0,0.1,0,0.1,0.1c0.5,0.1,1.1,0.4,1.6,0.8c0,0.1,0,0.3,0,0.5
		c0,0.1,0.3,0.4,0.8,0.5c0,0.1,0,0.1-0.1,0.4c-0.1,0.1-0.4,0.3-0.8,0.5c0.3,0.4,0.4,0.5,0.4,0.7c0,0.1,0,0.4-0.1,0.9
		c0.1,0.1,0.4,0.3,0.7,0.4c0,0,0,0.1,0,0.3c0,0-0.1,0-0.3,0.1c0.1,0.4,0.3,0.9,0.4,1.6c0,0,0.1,0.1,0.5,0.4c0,0.3,0,0.5,0.1,0.9
		l0.5,0.3c0,0.1-0.1,0.3-0.1,0.4c-0.1,0-0.4,0.1-0.5,0.1c0,0,0,0.1,0,0.3c0,0.1,0.3,0.3,0.5,0.5h0.1c0,0.1,0,0.4-0.1,0.8l0.1,0.1
		c0,0.1,0,0.4,0,0.7c0.1,0.3,0.3,0.5,0.5,0.8c0.4,0,0.8,0,1.2,0.1v0.1c-0.3,0.1-0.4,0.3-0.7,0.4c0.3,0.1,0.4,0.4,0.4,0.5
		c0,0.3,0.1,0.5,0.1,0.8l0.1,0.3c0.1,0.4,0.1,0.8-0.1,1.3c0.1,0,0.1,0.1,0.3,0.3c0,0.3,0,0.3,0,0.3c-0.1,0-0.1,0.1-0.3,0.1
		c0,0.5,0.1,0.9,0.4,1.6c0.1,0.1,0.3,0.3,0.5,0.3c0.3,0.1,0.4,0.1,0.4,0.3c0,0.1,0.1,0.3,0.1,0.4c0,0.1,0,0.3,0.1,0.4l0.1,0.1
		l0.1,0.3c0.1,0.1,0.3,0.1,0.5,0.1s0.4,0,0.5,0.1c0,0.1,0.1,0.3,0.3,0.5c0.1,0,0.3,0,0.4,0.1c0,0,0,0.1,0.1,0.3c0.1,0,0.3,0,0.4,0.1
		v0.1h0.1c0,0.8,0,1.1,0,1.2c-0.1,0.1-0.1,0.1-0.3,0.4c-0.3,0.3-0.4,0.4-0.5,0.4c-0.4,0-0.7,0-0.7,0c-0.1,0.1-0.5,0.3-0.9,0.4
		c-0.1,0-0.7,0-1.9-0.1c-0.1,0-0.4,0-0.7,0.1s-0.5,0.1-0.7,0.1c-0.3-0.1-0.5-0.1-0.8-0.3c-0.3,0-0.5,0-1.1,0
		c-0.1-0.1-0.3-0.1-0.5-0.3c0,0-0.1,0-0.4,0.1c-0.1,0.1-0.3,0.1-0.3,0.1c-0.1-0.1-0.3-0.3-0.4-0.5c-0.1,0-0.1,0-0.4-0.1
		c0.1-0.3,0.1-0.7,0-0.9c-0.1,0-0.4,0-0.7,0c-0.1,0.1-0.3,0.1-0.4,0.3c-0.1,0-0.3,0-0.4,0c-0.1,0-0.3-0.1-0.4-0.1c0,0-0.3,0-0.4,0.1
		c0.1,0.3,0.1,0.5,0.1,0.5c0,0.1-0.1,0.3-0.4,0.4c-0.1,0.1-0.3,0.1-0.4,0.3c-0.3,0-0.7,0-1.2,0.1c-0.7,0.1-0.9,0.1-0.9,0.1
		c-0.8,0-1.1,0-1.1,0s-0.1,0-0.3,0c-0.1,0-0.3,0-0.3,0c-0.1-0.1-0.4-0.1-0.7-0.3c-0.3,0-0.7,0.1-1.1,0.1c-0.3-0.1-0.5-0.1-0.9-0.3
		c-0.1,0-0.4,0-0.8,0c0,0-0.1-0.1-0.4-0.3c-0.3-0.3-0.4-0.3-0.4-0.4c-0.1-0.1-0.1-0.4-0.3-0.8c0-0.4,0-0.8,0-0.9
		c0.1-0.3,0.4-0.4,0.9-0.4c0,0,0.4,0,1.1,0c0.4,0,0.7-0.1,0.9-0.3l0.5-0.9c0-0.1-0.1-0.3-0.1-0.4c0-0.1,0.1-0.3,0.3-0.3
		c0.1-0.1,0.3-0.3,0.4-0.3c0-0.1,0-0.3,0-0.4c0-0.1-0.1-0.3,0-0.4c0.4-0.5,0.7-0.8,0.7-0.8h0.1c0,0,0-0.4,0-1.1c0,0,0,0-0.1,0
		c0,0-0.1,0-0.1-0.1s0.1-0.3,0.3-0.3c0.1-0.1,0.3-0.3,0.3-0.3c0-0.1,0-0.1,0-0.3c0.1,0,0.1,0,0.3-0.1c0-0.3,0-0.4-0.1-0.5
		c-0.1,0-0.3-0.1-0.4-0.3c0-0.1,0-0.1,0-0.3c0.1,0,0.3-0.1,0.4-0.3c0.1-0.1,0.1-0.3,0.3-0.5c0.1-0.3,0.1-0.5,0.3-0.5
		c0.1-0.1,0.1-0.1,0.3-0.3c0.3-0.4,0.4-0.7,0.4-1.1c0-0.1-0.1-0.4-0.1-0.9l0.5-0.7c0-0.1,0.1-0.3,0-0.4c0,0,0,0-0.1-0.1
		c0-0.1-0.1-0.1,0-0.3c0.1,0,0.1-0.1,0.3-0.1c0,0,0-0.1,0.1-0.4c0-0.3-0.1-0.5-0.1-1.1c0.1-0.1,0.3-0.3,0.4-0.4c0,0-0.1-0.1-0.1-0.4
		c0.1-0.1,0.4-0.3,0.7-0.5c0.1-0.3,0.1-0.5,0-0.9c0-0.4-0.1-0.8,0-0.9c0-0.1,0.1-0.3,0.3-0.4c0,0,0,0,0-0.1c0-0.1,0-0.1,0-0.1
		c0-0.1-0.1-0.3-0.3-0.4c-0.1-0.1-0.3-0.3-0.3-0.4c0-0.1,0.1-0.4,0.5-0.7c0.1,0,0.3,0,0.4-0.1c0-0.1,0-0.4,0.1-0.7L181.7,1z
		 M181,18.4c-0.3,0-0.5,0.3-0.5,0.8h-0.4c-0.1,0-0.3,0-0.4,0c0,0.1,0,0.3,0,0.5c-0.1,0-0.1,0.1-0.3,0.1c0,0,0.1,0.1,0.1,0.3
		c0.3,0,0.3,0.1,0.1,0.1c0.8,0,1.3,0.1,1.6,0.5c0,0.1,0.1,0.3,0.3,0.4c0.1,0,0.4,0,0.7,0c0,0.1,0.1,0.3,0.3,0.4c0.1,0,0.3,0,0.4,0.1
		l0.3-0.3c0-0.1,0-0.1,0.1-0.4h0.1c0,0,0.3-0.1,0.5-0.5c0.4-0.3,0.5-0.5,0.5-0.5c0-0.1-0.1-0.3-0.1-0.4c0-0.1-0.1-0.3-0.3-0.3
		c-0.1,0-0.3,0-0.4,0l-0.1-0.7c-0.1-0.1-0.5-0.1-1.1-0.3C181.7,18.4,181.3,18.4,181,18.4z M182.6,9.4c-0.1,0-0.4,0.3-0.8,0.7
		c0,0,0,0.1,0,0.3c0.1,0,0.1,0.1,0.4,0.1c-0.1,0-0.4,0.1-0.7,0.4c0,0.1,0,0.1,0,0.3c0,0.1,0.1,0.1,0.1,0.3c0,0.1-0.1,0.1-0.4,0.3
		c0,0.3-0.1,0.5-0.1,0.9c-0.4,0-0.5-0.1-0.5-0.1c0,0.3,0,0.4,0,0.3h0.5c0,0,0-0.1,0.1-0.3c0.4,0.5,0.5,1.1,0.5,1.3
		c0,0-0.1,0.1-0.3,0.1c0,0.1,0,0.1,0,0.3l0.1,0.1c0.1-0.1,0.3-0.1,0.4-0.3h0.8c0.1-0.3,0.3-0.5,0.4-1.1c-0.1-0.1-0.3-0.3-0.5-0.5
		c-0.1,0-0.3-0.1-0.5-0.1c0-0.1,0-0.1-0.1-0.3c0.3,0.1,0.5,0.1,0.7,0.1c0.3,0,0.4-0.1,0.4-0.4c0-0.1,0-0.4-0.1-0.7
		c-0.1-0.4-0.1-0.7-0.1-0.8c-0.3-0.1-0.3-0.1-0.3-0.1s0-0.3,0.1-0.7L182.6,9.4z"/>
	<path class="st0" d="M210.6,1c0.1,0.1,0.4,0.1,0.8,0.3c0.3,0,0.5-0.1,1.1-0.1c0.3,0,0.7,0,1.1,0.1l0.1,0.1c0.3,0,0.7-0.1,1.1-0.1
		l0.3,0.1c0.4,0,0.8,0,1.6,0c0.1,0,0.3,0.1,0.4,0.3c0.3,0.3,0.4,0.4,0.4,0.4c0.1,0,0.4,0.1,0.8,0.3c0,0.1,0.1,0.3,0.3,0.4
		c0.1,0,0.5,0,0.8,0.1c0.1,0,0.4,0.3,0.8,0.7s0.7,0.7,0.7,0.9c0,0.1,0.1,0.4,0.1,0.8c0.1,0.1,0.3,0.4,0.4,0.8c0.1,0.4,0.1,0.8,0,1.2
		c0,0,0,0.1-0.1,0.3c0,0.1-0.1,0.3-0.1,0.3c0.1,0,0.1,0.1,0.3,0.1c0,0.1,0,0.1,0,0.3c-0.1,0-0.1,0.1-0.3,0.4v0.1
		c0.1,0,0.3,0.3,0.1,0.7c0,0.1-0.3,0.3-0.7,0.5c0.1,0.4,0.1,0.5,0.1,0.5l-0.1,0.1c0,0.1-0.1,0.3-0.3,0.4c-0.3,0-0.5,0.1-0.8,0.4
		c0,0.1,0,0.1,0,0.4l-0.1,0.1v0.1c-0.1,0-0.4,0.1-0.8,0.1c-0.1,0.1-0.3,0.4-0.4,0.7c-0.1,0-0.3,0-0.5,0.1c0,0.3,0,0.4,0,0.4
		c0.1,0.1,0.3,0.3,0.4,0.4c0,0.1,0.1,0.4,0.1,0.8c0.3,0.1,0.5,0.4,0.8,0.8c0,0,0,0.1-0.1,0.3c0,0.1-0.1,0.1-0.1,0.1
		c-0.1,0.5,0,1.1,0.1,1.3c0.1,0.1,0.3,0.3,0.4,0.4c0,0.4,0,0.9,0.1,1.6c0.1,0.1,0.4,0.3,0.8,0.1c0.3,0.5,0.5,0.9,0.8,1.1
		c0.1,0,0.4,0,0.8,0l0.1,0.1c0.1,0,0.3,0.1,0.5,0.1c0,0.1,0.1,0.1,0.1,0.3c0.1,0,0.1,0,0.4,0.1c0.1,0.1,0.4,0.4,0.8,1.1
		c0.1,0.3,0.3,0.5,0.3,0.7c0,0.3-0.1,0.4-0.3,0.5c-0.3,0.3-0.7,0.4-0.9,0.4c-0.1,0-0.3,0-0.5,0L222,24c-0.3,0-0.7,0-1.2,0
		c-0.1,0-0.3,0.1-0.4,0.1c-0.3,0.1-0.4,0.1-0.5,0c-0.3-0.1-0.7-0.3-1.2-0.5c-0.1,0-0.3,0-0.5,0.1c-0.1-0.1-0.4-0.1-0.7-0.3
		c-0.1,0-0.4,0.1-0.7,0.1c-0.3-0.1-0.7-0.4-1.2-0.7v-0.1c-0.1,0-0.1-0.1-0.3-0.1c0-0.1,0-0.3,0-0.5c-0.1-0.1-0.3-0.3-0.4-0.5
		c0.3,0,0.7,0,0.9-0.3c0-0.1,0-0.4,0-0.7c-0.1-0.1-0.4-0.4-0.5-0.8c0-0.1,0-0.3,0.1-0.3c0.1-0.1,0.1-0.3,0.1-0.3
		c0-0.1,0-0.3-0.1-0.4c-0.1-0.1-0.1-0.3-0.1-0.3c0.1-0.4,0.1-0.5,0.1-0.5c-0.1-0.1-0.1-0.4-0.3-0.5c0-0.1,0.1-0.4,0.1-0.8
		c-0.1-0.1-0.3-0.4-0.3-0.7c0-0.3,0-0.7-0.1-1.3h-0.3c0,0-0.1-0.1-0.1-0.3c-0.1,0-0.4-0.1-0.7-0.4c0-0.1,0-0.1-0.1-0.3
		c-0.1,0-0.3,0-0.4,0c0,0,0-0.1,0-0.3h0c0,0-0.1,0-0.1-0.1c0-0.1-0.1-0.1-0.1-0.1c-0.1,0-0.4-0.1-1.1-0.1s-0.9,0-1.1,0
		c0,0-0.1,0.1-0.1,0.4c-0.5,0-0.9,0.1-1.2,0.3c0,0.1,0.3,0.5,0.5,0.8c0,0,0.1,0.1,0.3,0.1c0,0.1,0,0.5-0.1,0.9
		c-0.3,0-0.5,0.1-1.1,0.3c0,0.8,0,1.2-0.1,1.5l-0.1,0.1c0,0.1,0,0.1,0,0.3c0.1,0.1,0.1,0.4,0.3,0.9c0,0.1,0,0.3,0,0.5l0.3,0.3
		c0,0,0.1,0.1,0.1,0.3c0.1,0,0.3,0,0.5,0.1c0,0.1,0.1,0.3,0.3,0.4c0.1,0,0.4,0,0.8,0c0.1,0.1,0.3,0.3,0.5,0.4
		c0.1-0.1,0.3-0.1,0.5-0.1c0.1,0.1,0.1,0.1,0.3,0.3c0,0,0.1,0,0.3,0c0.1,0,0.3,0.1,0.4,0.4c0.1,0.3,0.3,0.4,0.3,0.4
		c0.1,0,0.1,0.1,0.3,0.1c0,0.1,0,0.4,0,0.7c0,0.1,0,0.1,0,0.3l-0.1,0.1c-0.1,0.1-0.1,0.3-0.3,0.4c-0.1,0.1-0.3,0.1-0.4,0.3
		c-0.3,0-0.5,0-1.1,0c-0.3,0.1-0.5,0.1-0.8,0.3c-0.1,0-0.4,0-0.7,0c-0.3,0-0.5,0-0.5,0c-0.1,0-0.4,0.1-0.8,0.1c0,0-0.1,0-0.4-0.1
		c-0.3,0-0.4-0.1-0.5,0c0,0-0.3,0-0.7,0.1c-0.3,0-0.5,0.1-0.8,0c-0.1-0.1-0.3-0.1-0.4-0.3c-0.3,0-0.8,0-1.5-0.1
		c-0.1-0.1-0.3-0.1-0.3-0.3c-0.1,0-0.3,0-0.4,0.1s-0.3,0.1-0.4,0.1c-0.4-0.3-0.8-0.5-1.3-0.8c0.1-0.9,0.5-1.5,0.8-1.6
		c0.3,0,0.8-0.1,1.3-0.3c0.1-0.1,0.4-0.4,0.8-0.7c0.3-0.1,0.7-0.1,1.2-0.4c0,0,0-0.1,0-0.3c0,0-0.1-0.1-0.3-0.1v-0.1
		c0.1,0,0.3,0,0.4-0.1c0-0.1-0.1-0.3-0.1-0.3c0.1,0,0.1-0.1,0.3-0.3c0,0,0,0-0.1,0c0-0.1-0.1-0.1-0.1-0.1c0-0.1,0-0.3,0-0.4h0.4
		c0-0.1,0-0.3,0.1-0.3c0-0.3-0.1-0.5-0.3-0.7c-0.1,0-0.1,0-0.4,0c0,0,0-0.1-0.1-0.3l-0.5-0.4c0,0,0-0.1,0-0.3
		c0.1-0.1,0.3-0.1,0.4-0.3c0-0.1,0-0.3,0-0.4c0.3-0.1,0.5-0.3,0.8-0.5c0,0,0-0.1,0-0.5l-0.1-0.3h-0.4c0,0,0,0.1-0.1,0.1
		s-0.3,0-0.5-0.1l0.1-0.1c0-1.1,0-1.6-0.1-1.7c-0.1-0.1-0.3-0.1-0.4-0.3V12c0.3-0.1,0.5-0.4,0.9-0.4c0-0.3,0-0.4,0-0.4
		c-0.3-0.1-0.5-0.3-0.5-0.3c0-0.1-0.1-0.4-0.1-0.5h-0.1c0,0-0.1,0-0.1-0.1s-0.1-0.1-0.1-0.1c0.1-0.4,0.4-1.1,0.9-2
		c-0.1-0.1-0.4-0.3-0.5-0.5c-0.1-0.1-0.1-0.7-0.1-1.6c0-0.8,0-1.3,0-1.6c-0.1-0.1-0.4-0.3-0.8-0.5c-0.3,0-0.5,0-1.1,0
		c0,0-0.3-0.1-0.5-0.3c-0.3-0.1-0.5-0.3-0.5-0.4c0-0.1,0-0.5-0.1-0.9c0.1,0,0.3,0,0.4,0c0.1,0,0.3-0.3,0.5-0.5
		c0.3-0.4,0.5-0.5,0.8-0.5c0.1,0,0.3,0,0.3,0c0.1,0,0.4,0.1,0.7,0.3s0.4,0.3,0.7,0.1c0.1-0.1,0.4-0.1,0.5-0.3c0.1,0,0.5,0.1,0.9,0.1
		l0.1-0.1C208.8,1.2,209.6,1,210.6,1z M212,4.2c-0.1,0.1-0.1,0.1-0.3,0.3c-0.3,0-0.8,0-1.5,0.1c0,0.4-0.1,0.8-0.5,1.1
		c0,0,0,0.1-0.1,0.4h0.1c0,0.1,0.1,0.4,0.1,0.7l0.1-0.1c0-0.3,0-0.3,0-0.3h0.1c0.1,0,0.1,0,0.3,0c0.3,0,0.4,0.1,0.1,0.1
		c-0.1,0-0.1,0.1-0.3,0.3c0,0.1,0,0.1,0,0.3c-0.1,0-0.3,0-0.4,0.1c0,0,0,0.1,0,0.3c0.1,0,0.3,0,0.4,0c0,0.1,0,0.1-0.1,0.3
		c-0.1,0-0.3,0-0.4,0.1c0,0-0.1,0.1-0.4,0.5c0.1,0.1,0.1,0.3,0.3,0.4h0.1c0,0.1,0,0.1,0,0.4h-0.3c0,0.1,0,0.1,0,0.3
		c0.1,0,0.4,0.3,0.9,0.7c0.1,0,0.3,0,0.5,0c0,0.1,0.1,0.3,0.1,0.5c0.3,0,0.5,0,0.9,0.1c0.4,0.1,0.7,0.1,0.9,0.1c0.1,0,0.4,0,0.5,0
		c0.1-0.1,0.1-0.1,0.3-0.3c0.1,0,0.3,0,0.5,0c0.1-0.1,0.3-0.1,0.4-0.3c0.1,0,0.4,0.1,0.8,0.1l0.1-0.1c0.3,0,0.7-0.1,1.1-0.4
		c0.1-0.1,0.1-0.3,0.3-0.4c0-0.3,0.1-0.4,0.1-0.4c0.1-0.1,0.4-0.3,0.5-0.4c0.1-0.3,0.1-0.5,0.1-0.8c-0.1-0.1-0.3-0.4-0.5-0.7
		c0-0.1,0-0.4-0.3-0.8c-0.1-0.1-0.5-0.3-0.8-0.5c0.1-0.1,0.1-0.1,0.1-0.3s0-0.3,0-0.3c-0.1,0-0.3,0-0.5-0.1V4.6
		c-0.1-0.1-0.4-0.3-0.7-0.4c-0.1,0-0.5,0-1.1,0.1s-0.9,0.1-1.2,0.1c0,0-0.3-0.1-0.5-0.1C212.4,4.2,212.1,4.2,212,4.2z M210.8,8.1
		c0.3,0.3,0.5,0.4,0.5,0.5c0,0,0,0.1,0,0.3c-0.1,0-0.3,0.1-0.4,0.3h-0.3c-0.1,0-0.1-0.1-0.3-0.3c0-0.1,0-0.4-0.1-0.7
		C210.5,8.2,210.6,8.1,210.8,8.1z"/>
	<path class="st0" d="M242.4,1.2c0.1,0,0.4,0,0.5,0.1c0.3,0.1,0.4,0.1,0.4,0.1c0.1,0,0.4,0,0.5-0.1c0.1-0.1,0.4-0.1,0.4-0.1
		c0.1,0.1,0.3,0.3,0.5,0.3c0.1,0,0.4,0,0.8,0c0.3,0,0.5-0.1,0.8,0c0.1,0.1,0.3,0.3,0.5,0.4c0.3,0,0.5,0,1.1,0.1
		c0.1,0.1,0.4,0.3,0.7,0.3c0.1,0,0.3,0,0.4,0c0,0.1,0.1,0.1,0.1,0.3c0.1,0,0.4,0,0.7,0.1c0,0.1,0.1,0.3,0.3,0.5
		c0.1,0.1,0.3,0.3,0.8,0.7c0,0,0,0.1,0.1,0.3c-0.1,0-0.1,0.1-0.1,0.4c0,0.4,0.1,0.7,0.4,0.8c0.1,0,0.3,0,0.5,0c0,0,0,0.1,0.1,0.4
		c-0.1,0.1-0.1,0.3-0.3,0.3c0,0,0,0,0.1,0.1c0.1,0.3,0.3,0.5,0.7,0.7c0,0.3,0,0.3,0,0.3s0,0.1-0.1,0.3c-0.1,0.1-0.1,0.1-0.1,0.3
		c0,0,0.1,0.1,0.1,0.3l0.1,0.1c-0.1,0-0.3,0.1-0.4,0.1c0,0.3-0.1,0.5-0.1,0.9c-0.1,0.1-0.3,0.4-0.4,0.5c0,0.3,0,0.4,0.3,0.5
		c0.1,0.1,0.3,0.3,0.1,0.5c-0.1,0-0.3,0.1-0.4,0.3c-0.1,0.3-0.3,0.7-0.1,1.3l0.1,0.1c0,0.3,0,0.7,0.1,1.1c0.1,0.1,0.4,0.3,0.7,0.5
		c0,0.1,0,0.4,0.1,0.8c0.1,0.1,0.3,0.3,0.4,0.4c0,0.1-0.1,0.4-0.1,0.7c0.1,0.1,0.4,0.3,0.7,0.7c0,0,0,0.3-0.1,0.7
		c-0.1,0-0.1,0-0.3,0.1c0,0,0,0.5,0,1.6c0.4,0,0.7,0.3,0.9,0.5c-0.1,0.1-0.3,0.4-0.4,0.7c0,0.1,0,0.3,0,0.5c0,0-0.3,0-0.4,0H253
		c0,0,0-0.1,0.1-0.3l-0.1-0.3c0,0.1,0.1,0.5,0.1,0.9c-0.1,0-0.1,0-0.3,0.1c0,0,0,0.1,0,0.3c0.1,0,0.4,0.1,0.7,0.1
		c0,0.1,0,0.3,0.1,0.4c-0.1,0.1-0.3,0.3-0.5,0.4c-0.1,0-0.3,0-0.4,0c0,0.3-0.3,0.5-0.5,0.9c-0.3,0-0.7,0.1-1.2,0.3
		c0,0.1-0.1,0.3-0.3,0.4c-0.1,0-0.1,0-0.3,0c0,0,0,0.1-0.1,0.3s-0.4,0.3-0.8,0.4c-0.3,0-0.5,0-0.9,0.1c-0.1,0.1-0.4,0.1-0.8,0.3
		c-0.9,0.1-1.9,0.1-2.8,0c0,0-0.1,0-0.3-0.1c-0.1,0-0.4-0.1-0.4,0l-0.1,0.1c-0.1,0-0.3,0-0.5-0.1c-0.4,0-1.1,0.1-1.9,0.1
		c-0.5,0-1.3,0-2.4,0c0,0-0.1,0-0.1-0.1c-0.1,0-0.1-0.1-0.3-0.1l-0.5,0.1c-0.1,0-0.5-0.1-0.9-0.1c0,0.1-0.1,0.1-0.1,0.3
		c-0.1,0-0.4,0-0.7,0c-0.3-0.1-0.4-0.3-0.8-0.5c-0.1,0-0.4-0.1-0.8-0.1s-0.7-0.1-0.8-0.3c0,0-0.1,0-0.1-0.1c0-0.1-0.1-0.1-0.1-0.3
		c0-0.3,0-0.5,0.3-0.8c0.1-0.3,0.1-0.4,0.3-0.7c0.1,0,0.3-0.1,0.5-0.1c0.1,0,0.4,0,0.7-0.1c0-0.1,0.1-0.1,0.3-0.3c0.1,0,0.5,0,0.9,0
		s0.8,0,0.9,0c0,0,0.4-0.1,1.2-0.4c0-0.3,0-0.5,0-0.9c0.1,0,0.1-0.1,0.3-0.1c0-0.3,0-0.4-0.1-0.7c0-0.1-0.1-0.3-0.1-0.4s0-0.4,0-0.7
		c-0.1-0.3-0.3-0.4-0.1-0.4c0.1-0.1,0.3-0.4,0.3-1.1c0-0.4,0-0.9,0-1.3c0.1-0.1,0.1-0.4,0.3-0.7c0-0.4,0.1-0.9,0.1-1.5
		c-0.1-0.3-0.1-0.4-0.1-0.5c0.1-0.1,0.1-0.1,0.1-0.3c0-0.1,0-0.3,0-0.4c0.1,0,0.1-0.1,0.3-0.1c0-0.3,0-0.4-0.3-0.7
		c-0.1-0.3-0.3-0.4-0.3-0.4c0-0.1,0-0.4,0-0.7c0-0.1,0.1-0.4,0.1-0.5c0,0.1-0.1-0.3-0.1-1.1c0-0.4,0.1-1.1,0.1-1.9
		c0-0.3-0.1-0.5-0.4-0.7c0,0,0-0.3,0.3-0.5c0-0.1-0.1-0.3-0.3-0.4c0,0-0.1-0.1-0.3,0c-0.1,0-0.3,0-0.3,0c0-0.1-0.1-0.1-0.3-0.3
		S238,5,237.7,4.8V4.1c-0.3,0-0.7,0.1-1.2,0.1c-0.9-0.1-1.5-0.3-1.7-0.5c-0.1-0.1-0.3-0.4-0.3-0.9c0-0.4,0.1-0.7,0.3-0.9
		c0,0,0.3-0.1,0.8-0.3c0.9-0.3,1.3-0.3,1.3-0.3c0.1,0,0.3,0,0.4,0.1c0.1,0,0.1,0.1,0.3,0.3c0.1,0,0.3,0,0.4,0s0.3-0.1,0.3-0.1
		c0.1,0.1,0.3,0.1,0.4,0.3c0.5,0.1,0.9,0.3,1.3,0.1c0.3-0.3,0.5-0.5,0.9-0.8c0.1,0,0.5,0,0.9,0c0.4,0.1,0.7,0.1,0.8,0.1
		C242.2,1.3,242.4,1.2,242.4,1.2z M244.8,13.7c-0.1,0-0.3,0-0.4,0.1V14c0,0-0.1,0-0.3,0s-0.3-0.1-0.3-0.1c-0.1,0-0.3,0-0.4,0.1
		c-0.1,0.1-0.3,0.1-0.3,0.1c-0.1,0-0.4,0-0.5,0c-0.1-0.1-0.3-0.1-0.4-0.1c-0.3,0-0.4,0.1-0.4,0.3c0,0.1,0.1,0.3,0.3,0.5
		c0,0-0.1,0.1-0.1,0.3h-0.4c0,0,0,0-0.1,0.1c0,0.3,0.1,0.4,0.1,0.3c0.1,0.1,0.3,0.1,0.5,0.3c-0.1,0-0.3,0-0.5,0c0,0.5,0,0.9,0.4,1.3
		l0.3-0.3c0.1,0,0.3,0,0.4,0c0,0.1,0,0.1,0,0.4c-0.1,0-0.1,0.1-0.3,0.1c-0.1,0.1-0.1,0.1-0.3,0.1c0,0,0,0-0.1-0.1s-0.1-0.1-0.3-0.1
		c0,0-0.1,0-0.3,0c0,0.1-0.1,0.1-0.3,0.3c0,0,0,0.1,0,0.4c0.1,0,0.1,0,0.3,0s0.1,0,0.3,0c0.1-0.1,0.3-0.1,0.3-0.1l0.1,0.3
		c0,0.3,0,0.5-0.1,0.7c-0.1,0-0.3,0.1-0.4,0.4c0.1,0.1,0.1,0.3,0.1,0.4s0,0.1-0.1,0.3c0.3,0.3,0.5,0.4,0.9,0.7c0.3,0,0.5,0,0.9,0.1
		c0,0.1,0.1,0.1,0.1,0.3c0.1,0,0.3,0.1,0.5,0.1c0.1,0.1,0.3,0.3,0.4,0.3c0.1,0,0.4,0.1,0.9,0.1s0.8,0,0.9,0c0.1-0.1,0.3-0.3,0.4-0.5
		c0.1,0,0.5,0,0.8,0c0-0.1,0.1-0.3,0.1-0.4c0.1-0.1,0.4-0.3,0.7-0.4c0,0,0.3,0,0.5-0.1c0.3,0,0.4-0.1,0.4-0.3c0,0,0-0.1,0-0.3
		c0-0.1,0.1-0.3,0.1-0.4c0.1-0.1,0.1-0.1,0.1-0.3c0,0-0.3-0.3-0.7-0.4c0-0.3,0-0.3,0-0.3c0.1,0,0.4,0,0.7,0c0,0,0,0.1,0.1,0.3
		c0-0.4,0.1-0.9,0.1-1.7c0,0-0.1-0.1-0.1-0.3c-0.1,0-0.4-0.1-0.5-0.1c-0.1,0-0.3-0.1-0.4-0.3c0-0.3,0-0.5,0-0.9
		c-0.1-0.1-0.3-0.3-0.3-0.4c0-0.1,0-0.1,0-0.3c0,0-0.1-0.1-0.5-0.3c0,0,0,0.1,0,0.3c0,0-0.1,0.1-0.3,0.1l-0.4-0.5
		c-0.1-0.1-0.3-0.1-0.5,0c-0.3,0-0.5,0.1-0.7,0c-0.1,0-0.3-0.1-0.7-0.3C245.2,13.7,244.9,13.7,244.8,13.7z M244,4.2
		c-0.1,0.1-0.3,0.1-0.5,0.3c-0.1,0-0.3-0.1-0.4-0.1c-0.1,0-0.3,0.1-0.5,0.3c0,0.3,0,0.4,0,0.4c-0.3,0.1-0.7,0.3-1.1,0.4
		c0,0.5,0,0.9,0.1,1.2l0.1,0.1c0,0.1,0,0.3,0,0.4c-0.1,0.1-0.3,0.1-0.4,0.3c0,0.1,0,0.3,0,0.4c0.3,0.1,0.5,0.4,0.8,0.7
		c0,0.1,0,0.4,0,0.7c0.1,0.1,0.3,0.3,0.4,0.4c0,0.1,0,0.4,0.1,0.7c0,0,0.1,0,0.3,0c0.1,0.1,0.4,0.3,0.7,0.4c0.1,0,0.3,0,0.5-0.1
		c0.3-0.1,0.4-0.1,0.4-0.1c0.3,0,0.5,0.1,1.1,0.1l0.4-0.1l0.9-0.1c0.3-0.1,0.5-0.3,0.7-0.5c0-0.1,0.1-0.3,0.1-0.4
		c0.3-0.1,0.7-0.1,1.2-0.3c0-0.1,0-0.3,0-0.5c0.1-0.1,0.3-0.3,0.4-0.4c0.1-0.3,0.1-0.7,0-0.9L249.2,7c-0.1-0.1-0.3-0.3-0.5-0.4
		c0-0.3,0-0.5-0.1-0.8c-0.1-0.1-0.3-0.1-0.5-0.3c-0.3,0-0.5-0.1-0.5-0.3s-0.1-0.4-0.3-0.5V4.6L247,4.5c-0.3,0-0.7,0-1.2,0
		c0,0-0.1,0-0.1-0.1c-0.1,0-0.1-0.1-0.3-0.1c0,0-0.1,0-0.3,0.1c-0.1,0.1-0.3,0.1-0.3,0.1C244.2,4.4,244.1,4.2,244,4.2z M244.9,4.6
		c0.1,0.1,0.1,0.3,0,0.1V4.6L244.9,4.6z M253.4,20.8c0.1,0,0.1,0.1,0.1,0.1C253.4,20.8,253.3,20.8,253.4,20.8z"/>
	<path class="st0" d="M277.8,1c0.5,0,0.9,0,1.1,0c0.1,0.1,0.3,0.3,0.5,0.5c0.4,0,1.1,0.1,1.7,0.3c0.1,0.1,0.1,0.3,0.4,0.4
		c0.1,0,0.1,0,0.3,0c0,0,0,0.4,0,1.2h0.3c0,0,0,0-0.1-0.1l0.1-0.8h-0.1c0,0,0-0.1-0.1-0.4c0.1,0,0.1,0.1,0.3,0.1c0,0,0.1,0,0.3,0.1
		c0,0.3,0,0.4,0,0.4h0.1c0.1,0,0.1,0.1,0.3,0.4s0.3,0.4,0.3,0.4s0.1,0,0.3,0c0,0.1,0.1,0.3,0.1,0.4c-0.1,0.1-0.1,0.1-0.3,0.3
		c0,0.3,0,0.5,0,0.9c0,0.1-0.3,0.3-0.8,0.5c0,0.5,0,0.8,0,0.8l-0.1,0.1c0,0.1-0.1,0.3,0,0.3c0,0,0.1,0.1,0.1,0.3c0.1,0,0.3,0,0.5,0
		c-0.1,0.3-0.3,0.5-0.3,0.9c-0.1,0-0.1,0-0.3,0.1c0,0.1,0.1,0.4,0.1,0.8c0,0-0.1,0.3-0.4,0.5s-0.4,0.4-0.4,0.4c-0.1,0-0.3,0-0.4,0
		c-0.4,0-0.8-0.1-0.8-0.4c0-0.1,0-0.3,0-0.5c-0.4-0.1-0.7-0.3-0.8-0.3c-0.1-0.1-0.3-0.3-0.3-0.5c0-0.1,0-0.3,0-0.3s0.1-0.1,0.1-0.4
		c0.1-0.3,0.1-0.4,0.1-0.4c-0.4-0.7-0.8-1.3-1.3-2c-0.3,0-0.4-0.3-0.7-0.4c0-0.1,0-0.1-0.1-0.3c0-0.1-0.3-0.3-0.5-0.4l0,0
		c-0.1,0-0.4,0-0.7,0c-0.1,0-0.4,0.1-0.5,0.1s-0.3,0-0.5,0c-0.1,0.1-0.1,0.1-0.3,0.3c-0.1,0-0.5-0.1-0.8-0.4c-0.1,0-0.3,0.1-0.3,0.1
		c-0.3,0.3-0.3,0.8-0.1,1.3c0,0-0.1,0-0.3,0.1l-0.1-0.4c-0.1,0-0.1,0-0.3,0c0,0.1-0.1,0.1-0.3,0.3c-0.3,0-0.5,0-0.9,0
		c-0.1,0-0.3,0.1-0.3,0.1c0.1,0.5,0.1,0.9,0,1.2c0,0.1-0.1,0.3-0.4,0.4c-0.1,0.1-0.3,0.3-0.3,0.3c0,0.3-0.1,0.5-0.1,0.9
		c0.1,0,0.3,0.1,0.4,0.1c0.1,0,0.1,0.1,0.3,0.1s0.3,0,0.4,0v0.1c0,0.1-0.1,0.1-0.1,0.3c-0.1,0-0.3,0-0.4,0c0,0.1,0,0.1-0.1,0.4
		c0,0-0.1,0-0.3,0c0,0.5-0.1,0.8-0.1,1.1c0,0-0.1,0.1-0.3,0.1c0.1,0.1,0.1,0.1,0.1,0.1c0.3,0,0.7,0,1.2-0.1h0.4c0,0,0.1,0,0.5,0.1
		c0,0,0-0.1,0.1-0.3h0.1c0-0.1,0-0.3,0-0.4l0.4-0.1c0-0.1,0-0.3,0.1-0.5c0.1,0,0.1-0.1,0.3-0.1c0-0.1,0-0.3,0.1-0.5
		c0.1,0,0.3-0.1,0.5-0.3c0-0.1,0.1-0.4,0.3-0.7c0.1-0.3,0.4-0.4,0.8-0.4c0.4,0,0.9,0.1,1.3,0.4c0,0,0.1,0.1,0.1,0.3L277,8.4
		c0,0.5,0,0.8,0.1,0.8s0.3,0,0.5,0.1c0,0.1,0.1,0.1,0.3,0.3c0-0.1,0.1-0.3,0.3-0.5c0.1,0.1,0.4,0.3,0.7,0.4c0,0,0,0.1,0,0.4
		c-0.3,0-0.7,0-1.1,0c0,0.1,0,0.3,0,0.5c0,0-0.1,0-0.3,0.1c0.1,0,0.1,0.1,0,0.5c0,0.4,0,0.7,0,0.7l0.1,0.1c0,0.1,0.1,0.3,0.1,0.4
		c0.1,0,0.3,0,0.4,0.1c0,0.1-0.1,0.4-0.1,0.8c0,0.1-0.1,0.3-0.1,0.4c-0.1,0-0.4,0-0.7,0.1c0,0.1-0.1,0.1-0.3,0.3
		c0,0.3,0.1,0.5,0.1,0.8c0,0.4-0.1,1.1-0.4,2c0,0.1,0,0.3-0.1,0.5l-0.4,0.3c-0.3,0-0.4,0-0.5-0.1c0-0.1-0.1-0.3-0.1-0.4
		c-0.1-0.1-0.4-0.3-0.7-0.5c0-0.3-0.1-0.7-0.3-1.2c-0.1-0.1-0.4-0.3-0.5-0.5c0-0.1-0.1-0.4-0.3-0.7c-0.1-0.1-0.4-0.1-0.8-0.1
		c-0.3,0-0.5,0.1-0.7,0.1c0,0.1-0.1,0.1-0.1,0.3c0,0-0.4,0-0.8,0c-0.1,0.3-0.3,0.4-0.3,0.4c-0.1,0.1-0.3,0.1-0.4,0.3l-0.1,0.1h-0.1
		c0,0.1,0,0.3,0,0.4c0,0.4,0.3,0.8,0.9,1.3c-0.3,0.1-0.7,0.4-1.1,0.7c0,0.3,0,0.5-0.1,0.9c0,0.1,0.1,0.1,0.1,0.3
		c0.1,0.1,0.3,0.1,0.4,0.1c0.3,0,0.4,0,0.5,0c0,0,0,0.1,0.1,0.1c0,0.3,0,0.4,0,0.4c-0.1,0-0.1,0.1-0.4,0.3h-0.1
		c-0.1,0.1-0.3,0.3-0.3,0.5c-0.1,0-0.3,0-0.4,0c0,0,0,0.4,0,1.1c0.4,0,0.9,0.1,1.6,0.3c0,0.1,0.1,0.3,0.1,0.4
		c0.1,0.3,0.3,0.3,0.4,0.3c0.1-0.1,0.4-0.3,0.7-0.4c0.1,0,0.4,0,0.5,0.1c0.1,0.1,0.4,0.1,0.5,0.1s0.3,0,0.4-0.1
		c0.3-0.1,0.4-0.1,0.7-0.1l0.7,0.1c0.3,0,0.5,0,0.7,0c0.1-0.1,0.3-0.3,0.5-0.4c0.1,0.1,0.4,0.1,0.8,0c0.1-0.1,0.3-0.3,0.4-0.5
		c0.1-0.3,0.3-0.4,0.3-0.5c0.1-0.1,0.4-0.4,0.7-0.8c0-0.1,0-0.3,0-0.5c-0.1-0.3-0.1-0.4,0-0.5c0.1-0.1,0.3-0.1,0.4-0.4
		c0-0.1,0-0.3,0.1-0.5l0.1-0.1c0-0.1-0.1-0.3-0.1-0.5c0.1-0.1,0.1-0.3,0.3-0.4c0-0.1,0-0.3,0-0.4h0.1c0.1-0.1,0.1-0.4,0.4-0.8h0.3
		c0.1,0.1,0.4,0.4,1.1,0.9l0.1,2c-0.1,0.1-0.1,0.1-0.3,0.4c0.1,0.1,0.3,0.4,0.5,0.7c-0.3,0.4-0.4,0.7-0.4,0.8l0.1,0.1
		c0,0.1,0,0.4,0.1,0.7l0.3,0.1c0,0.1,0,0.5,0,0.8c0,0.3,0.1,0.5,0.3,0.9c-0.1,0-0.3,0.1-0.5,0.3c0,0.3,0,0.4-0.1,0.8
		c0,0-0.4,0.1-0.9,0.4c-0.5,0.1-0.9,0.3-1.1,0.3c-0.5,0.1-0.9,0.1-1.5,0c0,0-0.1,0-0.3-0.1c-0.1,0-0.3-0.1-0.4,0
		c-0.1,0.1-0.3,0.1-0.5,0.3c-0.3,0-0.7,0-0.8,0l-0.1-0.1c-0.1,0-0.1,0-0.3,0.1c-0.1,0.1-0.3,0.1-0.3,0.1c-0.1,0-0.3,0-0.5,0
		c-0.1,0-0.5,0-1.1-0.1c-0.4,0-0.8-0.1-1.1,0c-0.1,0.1-0.4,0.1-0.7,0.3c-0.1,0-0.3,0-0.5-0.1c-0.3-0.1-0.4-0.1-0.5-0.1
		c-0.3,0.1-0.9,0.1-1.7,0.1c-0.4-0.1-0.9-0.1-1.6-0.3c0,0-0.1,0-0.4,0.1s-0.4,0.1-0.4,0.1c-1.6,0.1-2.8-0.1-3.5-0.5
		c0-0.1-0.1-0.1-0.1-0.3c0,0-0.1,0-0.4-0.1c0-0.1-0.1-0.3-0.1-0.3s0.1-0.4,0.3-1.1c0.9,0,1.3-0.1,1.1-0.1l0.3,0.1c0.5,0,0.9,0,1.2,0
		c0.1-0.1,0.1-0.1,0.3-0.3c0.3,0,0.7,0,1.2-0.1c0-0.1,0.1-0.1,0.1-0.3c0.1,0,0.3,0,0.4,0c0-0.1,0.1-0.1,0.1-0.3
		c0-0.3-0.1-0.7-0.1-0.9c-0.1-0.4-0.1-0.7,0-0.9c0,0,0.1-0.3,0.3-0.7c0.1-0.3,0.1-0.5,0.1-0.7c-0.1-0.3-0.3-0.5-0.4-0.9
		c0.1-0.3,0.3-0.9,0.3-1.7c0,0-0.1-0.1-0.1-0.4c-0.1-0.1-0.1-0.3-0.1-0.4c0.1-0.1,0.1-0.3,0.3-0.5c0-0.3,0-0.7,0-1.1l-0.1-0.3
		c0-0.3-0.1-0.7-0.1-1.3c0-0.1,0.1-0.4,0.1-0.7L268,11c0-0.3,0-0.5,0-1.1c-0.1-0.1-0.1-0.4-0.3-0.5c0-0.1,0-0.3,0.1-0.4
		c0.1-0.1,0.1-0.3,0.1-0.3c0-0.1,0-0.3-0.1-0.5c0,0,0-0.4,0-1.1c0,0-0.1,0-0.1-0.1c0.1-0.1,0.1-0.5,0.1-0.9c0-0.1-0.1-0.4-0.3-0.7
		c-0.1-0.4-0.3-0.5-0.4-0.7c-0.4,0-0.7,0-0.8,0c-0.5,0.1-0.8,0.1-1.1,0c0-0.1-0.1-0.3-0.3-0.3s-0.4,0-0.5,0c-0.1,0-0.4,0.1-0.5,0
		c-0.1,0-0.3-0.1-0.4-0.4c-0.1-0.3-0.3-0.5-0.3-0.8s0.1-0.5,0.3-0.7c0.1-0.1,0.5-0.3,0.9-0.3c0.1,0,0.3,0,0.5,0s0.4,0,0.5,0
		c0.3,0,0.7,0,0.8-0.1c0.1-0.1,0.3-0.3,0.4-0.4c0.1,0,0.3,0,0.5,0.1c0.3,0,0.5,0,1.1-0.1c0,0,0.4,0,0.9,0.1c0.4,0,0.8,0,1.1,0
		c0.1,0,0.4-0.1,0.8-0.3V1.3c0.3,0,0.5,0,0.8,0.1c0.1-0.1,0.4-0.1,0.7-0.3c0.3,0,0.4,0,0.8,0.1c0.3,0.1,0.4,0.1,0.4,0.1
		c0.1,0,0.3,0,0.4,0c0.1,0,0.1-0.1,0.3-0.1s0.3,0,0.4,0.1c0.1,0,0.4-0.1,0.7-0.1C276.4,1.2,277,1.2,277.8,1z M273.8,8.8l0.3,0.4
		c0,0.1-0.1,0.1-0.3,0.1c0,0,0,0,0,0.1c0,0,0,0-0.1-0.1c0,0,0-0.1-0.1-0.1C273.7,9,273.8,8.9,273.8,8.8z M279.8,12
		c0,0,0,0.1-0.1,0.3C279.8,12.1,279.8,12,279.8,12z"/>
	<path class="st0" d="M297,1c0.1,0,0.3,0,0.4,0.1s0.3,0.1,0.3,0.1c0.1,0,0.4,0,0.5,0c0.3,0,0.5,0,1.1-0.1c0.4,0,0.8-0.1,1.1-0.1
		c0.1,0,0.3,0,0.4,0s0.4,0.1,0.8,0.3s0.7,0.3,0.9,0.3c0.1-0.1,0.4-0.1,0.7-0.3c0.5,0,1.1,0,1.3,0c0.1,0.1,0.3,0.1,0.4,0.3
		s0.4,0.1,0.7,0.1c0.1,0,0.3,0,0.5,0s0.4,0,0.5,0c0.4,0,0.8,0.1,0.9,0.4c0,0,0.1,0.1,0.3,0.3c0,0.1,0,0.3,0,0.4
		c0,0.7-0.1,1.1-0.4,1.2c-0.1,0-0.4,0-0.7,0.1c0,0-0.1,0.1-0.3,0.4c-0.1,0.3-0.3,0.4-0.4,0.4c-0.3,0.1-0.7,0.1-1.1,0
		c-0.5,0-0.8,0-0.9,0c-0.1,0-0.3,0-0.7,0.1c-0.3,0-0.5,0-0.7,0c-0.1-0.1-0.1-0.1-0.3-0.3h-0.1h-0.1c0,0,0,0,0.1,0.1
		c-0.1,0-0.3,0.1-0.4,0.3c-0.1,0.1-0.1,0.3,0,0.5c0,0.3,0,0.5,0,0.7c0,0-0.1,0.1-0.3,0.1c0,0.1,0,0.1,0,0.3c0.1,0.1,0.3,0.3,0.5,0.5
		c-0.1,0.1-0.3,0.3-0.4,0.5c0,0.1,0,0.4-0.1,0.7c0,0,0,0.1-0.1,0.1h0.1c0,0.1,0,0.1,0,0.3c0,0,0.1,0.1,0.3,0.3s0.1,0.3,0.1,0.4h-0.1
		c0,0.1-0.1,0.4-0.1,0.5v0.3c0,0.1,0,0.3-0.1,0.4s-0.3,0.3-0.4,0.4c0,0.3,0,0.4,0.3,0.7c0.1,0.1,0.3,0.3,0.4,0.4c0,0,0,0.1,0,0.3
		c-0.1,0-0.3,0-0.4,0.1l-0.1,0.3c0.1,0.1,0.1,0.1,0.1,0.1l-0.3,0.3c0,0.1,0,0.4,0.1,0.5c0.1,0.3,0.3,0.4,0.3,0.4
		c0,0.1,0,0.4-0.1,0.7c-0.1,0.3-0.1,0.4-0.1,0.5c0,0.1,0,0.1,0,0.3c0,0,0.1,0.1,0.4,0.5c-0.1,0.5-0.1,1.1,0.1,1.5
		c0.1,0.1,0.3,0.1,0.5,0.4c0,0,0,0.1,0,0.4c0.1,0,0.1,0.1,0.3,0.1c0,0.3,0,0.4-0.1,0.4c-0.1,0-0.3,0-0.4,0c0,0.1,0,0.1,0,0.3
		c0.1,0.1,0.3,0.3,0.3,0.4s0,0.3,0.1,0.5h0.1c0,0.1,0.1,0.1,0.3,0.3c0.1,0,0.4,0.1,0.7,0.1s0.4,0,0.3,0c0.3,0.1,0.7,0.1,1.2,0.3
		c0.1,0,0.4-0.1,0.7-0.1c0,0,0.4,0.1,0.9,0.4s0.8,0.4,0.8,0.5c0,0,0.1,0.5,0.3,1.3c0,0.1,0,0.1,0,0.3c-0.1,0.1-0.3,0.3-0.4,0.3
		c-0.3,0.1-0.5,0.1-0.5,0.1c-0.1,0.1-0.1,0.3-0.3,0.4c-0.1,0-0.4,0-0.8,0c0,0-0.1,0-0.4,0.1s-0.4,0.1-0.5,0.1
		c-0.1,0-0.4-0.1-0.7-0.1c-0.8-0.1-1.7-0.1-2.7-0.1c0,0-0.5,0-1.6,0c-0.7,0-1.2,0-1.6,0c-0.1-0.1-0.4-0.3-0.8-0.3
		c-0.3,0-0.4,0-0.7,0.1c-0.4,0.1-0.5,0.3-0.5,0.3c-0.5,0.1-1.1,0-1.7-0.3c-0.1-0.1-0.5-0.3-1.2-0.4c-0.1-0.5-0.3-0.8-0.1-1.1
		c0-0.1,0.3-0.4,0.7-0.8c0.4-0.4,0.7-0.7,0.8-0.7c0.1,0,0.4,0,0.7,0s0.5,0,1.1,0.1c0.4,0.1,0.8,0.1,0.9,0.1c0.1,0,0.3-0.1,0.4-0.1
		c0.1,0,0.4,0.1,0.8,0.1c0.1,0,0.1-0.1,0.3-0.3c0-0.3,0.1-0.4,0.1-0.4c0.1-0.1,0.3-0.3,0.5-0.4c0-0.4,0-0.5,0-0.5c0-0.1,0-0.1,0-0.1
		v-0.1c0-0.1,0-0.1-0.1-0.3c-0.1,0-0.1-0.1-0.1-0.1c0-0.1,0-0.4,0.1-0.7c0.1-0.3,0.1-0.4,0.1-0.5c0-0.1,0-0.3-0.1-0.4
		c0-0.1-0.1-0.3-0.1-0.3c0-0.1-0.1-0.3-0.1-0.4s0.1-0.5,0.3-0.8c0.1-0.3,0.1-0.5,0.1-0.8c0,0-0.1-0.1-0.3-0.4c0-0.1,0-0.4,0.1-0.7
		c0.1-0.9,0.1-1.6,0-2.3h0.1c0-0.1,0-0.3-0.1-0.4c0.1-0.1,0.1-0.3,0.3-0.3c0,0,0-0.1-0.1-0.4c0-0.1,0-0.3,0-0.5
		c0-0.1,0.1-0.3,0.1-0.4c0-0.1-0.1-0.3-0.1-0.4c0.1-0.1,0.3-0.3,0.4-0.4c-0.3-0.4-0.4-0.9-0.4-1.6c0-0.1,0-0.3,0-0.3
		c0-0.1,0.1-0.1,0.3-0.4c0,0-0.1-0.1-0.3-0.3c-0.1-0.3-0.3-0.7-0.5-1.1h-0.1V4.5c-0.1,0-0.3,0-0.5-0.1c0,0-0.1-0.1-0.3-0.3
		c-0.1,0-0.3,0-0.5,0.1s-0.4,0.1-0.5,0.1c-0.3,0-0.5,0-0.9-0.1l-0.1-0.1c-0.5,0-1.2,0-2.3-0.1c0,0-0.1-0.1-0.3-0.3h-0.1V3.6
		c0-0.3,0.1-0.7,0.3-0.9c0.1,0,0.1-0.1,0.3-0.1c0-0.1,0-0.3,0.1-0.5l0.4-0.4c0.3-0.3,0.5-0.4,0.9-0.4c0.1,0,0.3,0,0.7,0.1
		c0.3,0,0.5,0,0.7,0C296.6,1.2,296.7,1.2,297,1z"/>
	<path class="st0" d="M326.7,1c0.1,0,0.4,0,0.8,0.1c0.3,0.1,0.5,0.1,0.7,0.1l0.4-0.1c-0.1,0,0.1,0,0.7,0.1c0.5,0,1.3,0,2.3,0.1
		c0.5,0.1,1.2,0.8,2,1.9c0.1,0,0.1,0.1,0.4,0.1c0,0,0.1-0.1,0.4-0.1c0,0,0,0.1,0,0.4c-0.3,0-0.3-0.1-0.3-0.1h-0.5v0.9h0.1l-0.1,0.1
		c0.1,0,0.1,0.1,0,0.3c0,0.1-0.1,0.3-0.1,0.3c0,0.3,0,0.4,0,0.5c0.1,0.1,0.3,0.1,0.4,0.3v0.3c-0.1,0-0.1,0-0.3,0.1
		c0,0.1,0,0.3,0,0.4s0,0.3,0,0.4c-0.1,0.5-0.1,1.2,0,2.1c0.1,0.1,0.1,0.1,0.3,0.3c0,0.1,0,0.3,0,0.4c0,0.3-0.1,0.7-0.3,0.9
		c-0.1,0.3-0.1,0.5-0.3,0.8c0,0.3-0.1,0.5-0.3,0.8c-0.3,0.1-0.5,0.1-0.9,0.1c-0.3,0-0.4-0.3-0.5-0.5c-0.1-0.3-0.3-0.5-0.3-0.8
		c-0.1-0.1-0.3-0.3-0.4-0.5c0-0.1,0-0.4-0.1-0.8c-0.1-0.1-0.3-0.3-0.5-0.4c0-0.1-0.1-0.3-0.1-0.4c0-0.3,0.3-0.5,0.7-0.8
		c0-0.1,0-0.1,0-0.3L330.3,8c0-0.3,0.1-0.5,0.1-0.5L329.9,7c0-0.1,0.1-0.5,0.1-0.9l-0.5-0.4V5.3h0.3V5.2c-0.1-0.1-0.3-0.3-0.4-0.4
		c-0.5-0.1-1.2-0.3-1.9-0.1c-0.3,0-0.5,0.1-0.4,0.3c0,0.3,0,0.4,0,0.4c-0.1,0-0.3,0-0.4,0.1c0,0,0,0.1-0.1,0.3
		c-0.1,0.1-0.3,0.3-0.5,0.4c0,0.1,0,0.3,0,0.5l0.1,0.1c0.3,0.5,0.4,0.9,0.3,1.1c0,0-0.1,0.1-0.3,0.4c-0.1,0.1-0.3,0.4-0.1,0.5
		c0,0,0.1,0.1,0.3,0.3s0.3,0.3,0.1,0.5c-0.1,0-0.1,0.1-0.3,0.1c0,0.1,0,0.3,0,0.5c0,0-0.1,0.1-0.1,0.4c-0.1,0.1-0.1,0.4-0.1,0.5
		c0.1,0.1,0.3,0.4,0.5,0.8c0,0.1,0,0.4-0.1,0.8c0.1,0,0.1,0.3,0.1,0.5c0,0.3,0,0.5,0,0.8c-0.1,0.1-0.1,0.1-0.3,0.3
		c-0.1,0.4-0.3,0.8-0.1,1.3c0,0,0,0.1,0.1,0.3c0.1,0.1,0.1,0.4,0.1,0.5l0,0v0.4c0,0-0.1,0-0.1,0.1c0,0.3,0,0.4,0.1,0.5
		c0,0,0.1,0.1,0.1,0.3c0,0.1,0,0.1,0,0.4c0.1,0,0.1,0.4,0,1.1c0,0.8-0.1,1.2,0,1.2c0,0.1,0,0.3,0,0.4l0.1,0.1c0,0-0.1,0.1-0.1,0.3
		c0.1,0.1,0.3,0.3,0.4,0.3c0.4,0,0.7,0,0.8-0.1c0,0,0.1-0.1,0.1-0.3c0.1,0,0.8,0.1,2,0.4c1.2,0.3,1.9,0.5,1.9,0.5
		c0.1,0.1,0.3,0.3,0.3,0.7c0.1,0.4,0.3,0.5,0.3,0.7c-0.1,0-0.1,0-0.4,0.1c0,0.1-0.1,0.3-0.1,0.4c-0.1,0-0.3,0-0.3,0s0,0.1,0.1,0.3
		l-0.1,0.1c-1.3,0.1-2,0.3-2.3,0.3c-0.3-0.1-0.8-0.3-1.5-0.4c-1.3-0.1-2.3-0.1-2.7,0c0,0-0.1,0.1-0.4,0.1c-0.5,0-0.9,0-1.2,0
		c-0.1-0.1-0.4-0.3-0.7-0.3c0,0-0.3,0-0.5,0c-0.1,0-0.3,0-0.4,0c-0.1,0-0.3-0.1-0.3-0.1s-0.1,0-0.3,0.1c-0.1,0-0.3,0.1-0.3,0.1
		c-0.1,0-0.4,0-0.8,0l-0.4,0.1c-0.1,0-0.3,0-0.4,0c-0.1,0-0.4-0.1-0.7-0.3c0-0.1-0.1-0.3-0.1-0.4c0,0,0.1-0.3,0.3-0.8
		c0.1,0,0.1,0,0.1,0s0,0-0.1-0.1c0,0-0.1-0.1-0.3-0.3c0,0,0-0.1,0-0.3c0.1-0.1,0.3-0.3,0.5-0.4c0.1,0,0.7,0,1.7,0.1
		c0.4,0,0.5,0.1,0.7,0.1c0.1-0.1,0.5-0.3,0.8-0.5c0.3,0,0.7,0,1.2-0.1v-0.1c0.1,0,0.1-0.1,0.3-0.1c0-0.1,0-0.3,0-0.4
		c0-0.1,0-0.3,0-0.5s0-0.5,0-0.7c0-0.1,0-0.3,0.1-0.4c0.1-0.1,0.1-0.3,0.3-0.7l0.1-0.1c-0.1-0.1-0.3-0.3-0.4-0.4
		c0-0.1-0.1-0.4-0.1-0.8c0-0.4-0.1-0.7,0-0.7c0.1-0.1,0.4-0.3,0.7-0.7c0-0.1-0.1-0.1-0.1-0.3c-0.1-0.4-0.4-1.1-0.7-1.7
		c0-0.1,0-0.1,0.1-0.3l0.1-0.1l-0.1-1.1h0.1c0,0,0-0.1-0.1-0.3c0.1,0,0.1-0.1,0.1-0.1c-0.1-0.1-0.3-0.3-0.5-0.4
		c0.1-0.3,0.3-0.5,0.5-0.8c-0.1-0.1-0.1-0.3-0.3-0.3c0-0.1,0-0.5,0-0.9c0,0,0-0.1-0.1-0.4c-0.1-0.3-0.1-0.4-0.1-0.5
		c0.1-0.1,0.3-0.1,0.3-0.3c0.1-0.3,0.1-0.5,0.1-0.8V6.8l-0.1-0.1c0-0.1,0-0.4,0-0.5c0.1-0.1,0.1-0.3,0.1-0.3c0-0.1,0-0.3-0.1-0.3
		c0,0,0-0.1-0.1-0.1c0,0-0.1,0-0.1-0.1c0,0,0.1,0,0.1-0.1c-0.3-0.1-0.3-0.3-0.4-0.4c0-0.1,0-0.1,0-0.3c-0.1,0-0.1,0-0.3,0
		c-0.3,0-0.5,0-0.8,0.1c-0.3,0.1-0.5,0.1-0.5,0.3c0,0.1,0,0.3,0,0.4c-0.1,0-0.3,0.1-0.4,0.1c0,0-0.3,0-0.4-0.1c-0.1,0-0.4,0-0.5,0
		c-0.1,0.1-0.3,0.3-0.5,0.5c-0.1,0-0.3,0.1-0.4,0.1c-0.1,0.1-0.1,0.4,0,0.8c0,0.4,0.1,0.7,0,0.9c-0.1,0.8-0.1,1.2-0.1,1.3L319,9.2
		c0,0.1,0.1,0.3,0.1,0.4c0,0.1,0.1,0.3,0.1,0.4s-0.1,0.4-0.3,0.8c-0.1,0.3-0.3,0.5-0.3,0.5c0,0.1,0,0.4,0,0.8h-0.1
		c-0.3,0.4-0.5,0.5-0.9,0.5c-0.3,0-0.5-0.3-0.7-0.5c0-0.1,0-0.1,0-0.3c-0.1-0.1-0.3-0.3-0.3-0.4c0,0,0-0.3,0.1-0.9
		c0-0.7,0.1-1.7,0.3-3.2c0.1-1.1,0.1-1.5,0.1-1.5c0-0.3-0.1-0.7-0.1-0.9c0-0.4,0-0.8,0-1.1c0,0,0.1-0.3,0.4-0.5
		c0.9-0.8,1.1-0.9,1.1-0.9h0.1c0-0.1,0.1-0.3,0.1-0.5c0,0,0.1-0.1,0.3-0.3c0.3,0.1,0.4,0.1,0.4,0.1c0.1-0.1,0.1-0.1,0.3-0.3
		s0.3-0.3,0.4-0.3c0.1,0.1,0.3,0.3,0.5,0.4c0.1,0,0.3-0.1,0.5-0.1c0.1,0,0.3,0.1,0.4,0.3c0.3,0.3,0.4,0.3,0.5,0.3
		c0-0.1,0-0.1,0.1-0.3c0.1-0.1,0.3-0.1,0.7-0.3c0.1,0,0.5-0.1,1.1-0.1c0.5,0,0.8,0,0.9,0c0,0,0.1,0,0.1,0.1c0.1,0,0.1,0.1,0.3,0
		C325.8,1.4,326.2,1.3,326.7,1z M327,4.4c0,0.1,0,0.3,0,0.4h0.1c0,0,0-0.1,0-0.3C327.3,4.5,327.1,4.4,327,4.4z M327,21.2
		c0,0,0,0.3,0,0.8c0-0.1,0-0.1,0.1-0.3c0-0.1,0-0.3,0-0.4C327.1,21.2,327.1,21.2,327,21.2z M328.1,16.9c0,0.1,0.1,0.3,0.1,0.4
		c-0.3,0.3-0.4,0.4-0.4,0.5s0,0.1,0.1,0.3h-0.4c0,0,0-0.1,0-0.3c-0.1,0-0.1-0.1-0.3-0.1c0,0,0-0.1-0.1-0.4
		C327.4,17.2,327.7,17,328.1,16.9z M327.7,8.6c0.1,0,0.1,0,0.1,0.1s0,0.1-0.1,0.1C327.7,8.8,327.7,8.8,327.7,8.6
		C327.5,8.6,327.5,8.6,327.7,8.6z M327.8,6.2c0.1,0.1,0.3,0.1,0.5,0.4c-0.1,0.1-0.3,0.3-0.1,0.3c0,0-0.3,0-0.5-0.1V6.2
		C327.7,6.2,327.7,6.2,327.8,6.2z M328.1,9.7c0.3,0,0.3,0,0.3,0.1s-0.1,0.1-0.3,0.1v0.1h-0.1c0,0,0,0,0-0.1c0-0.1,0-0.1,0-0.3
		C327.9,9.8,328.1,9.7,328.1,9.7z M328.3,18.5c0.5,0.1,0.7,0.1,0.7,0.3c0,0-0.1,0.1-0.3,0.3c-0.1,0.1-0.3,0.1-0.4,0.1
		C328.3,19.2,328.3,19,328.3,18.5C328.2,18.5,328.3,18.4,328.3,18.5z M329.4,5.3L329.4,5.3c0.1,0.1,0,0.1,0,0.1
		C329.3,5.4,329.3,5.4,329.4,5.3C329.3,5.3,329.3,5.3,329.4,5.3z M334.5,4.2c0.1,0,0.1,0,0.1,0S334.6,4.2,334.5,4.2
		C334.5,4.2,334.3,4.2,334.5,4.2C334.3,4.2,334.3,4.2,334.5,4.2z"/>
	<path class="st0" d="M7.2,39.3c0.1,0,0.4,0,0.8,0.1c0.4,0.1,0.7,0.3,0.8,0.3c0.1,0.1,0.1,0.1,0.4,0.3c0.3,0,0.4,0,0.5-0.1
		c0-0.1,0.1-0.1,0.1-0.1c0.1,0,0.3,0,0.4,0s0.3,0.1,0.4,0.1c0,0.1,0,0.3,0,0.4c0.1,0.1,0.3,0.1,0.3,0.3c0.1,0.3,0.1,0.5,0,1.1
		c0.1,0,0.4,0.1,0.7,0.3c0,0,0,0.1,0,0.3c-0.1,0-0.3,0-0.5,0.1c-0.1,0.1-0.3,0.3-0.4,0.5c0.3,0.5,0.4,0.9,0.4,1.2
		c0,0.1-0.1,0.3-0.1,0.4l0.1,0.1c-0.1,0.1-0.3,0.4-0.4,0.7c0,0,0,0.1,0.1,0.3c0.1,0.1,0.1,0.3,0.1,0.3v0.1c-0.1,0.1-0.1,0.3-0.1,0.5
		c0.1,0.1,0.3,0.3,0.5,0.4c0,0.1,0.1,0.3,0.1,0.5c-0.1,0-0.3,0.1-0.4,0.1c0.1,0.7,0.3,1.3,0.1,2c-0.1,0.1-0.1,0.3-0.3,0.5
		c0,0.3,0,0.5,0,1.1c-0.1,0.1-0.1,0.3-0.1,0.3c0.1,0.1,0.3,0.1,0.3,0.4c0,0,0,0.1,0,0.3l0.1,0.1c0,0.1,0,0.1,0,0.3
		c0.1,0.3,0.3,0.5,0.5,0.9c0,0,0,0.1-0.1,0.3c-0.1,0-0.3,0.1-0.4,0.1c0,0.4,0,0.8,0.1,1.5c0.1,0,0.3,0.1,0.4,0.1
		c0.3,0.3,0.4,0.4,0.7,0.7c0.1,0,0.3,0.1,0.3,0.1c0,0.1,0,0.4,0,0.5v0.1c0.1,0.3,0.5,0.7,1.3,1.3c0,0.1,0,0.1,0.1,0.3
		c0.1,0.1,0.3,0.1,0.5,0.1c0.1,0,0.4,0,0.7-0.1c0.3,0,0.5-0.1,0.7-0.1c0.1,0,0.3,0,0.4,0c0.1,0.1,0.4,0.3,0.5,0.4c0.1,0,0.4,0,0.7,0
		c0.1,0.1,0.1,0.4,0.3,0.7c0,0.1,0,0.3,0,0.4c0.1,0,0.3,0.1,0.4,0.3c0,0.1,0,0.3,0,0.7c0,0.4-0.1,0.5-0.1,0.7
		c-0.1,0-0.4,0.1-0.7,0.3c0,0.1-0.1,0.1-0.3,0.3c-0.4,0.3-1.2,0.4-2.3,0.4c-0.1,0-0.4,0-0.7-0.1c-0.4,0-0.5-0.1-0.8-0.1
		c0,0-0.3,0-0.5,0.1c-0.3,0-0.5,0.1-0.7,0L12,62c-0.1,0-0.5,0-0.9,0c-0.1,0-0.4-0.1-0.5-0.1C10.3,62,9.6,62,8.8,62l-0.4-0.1
		c-0.5-0.1-1.1-0.1-1.7,0.1c-1.5,0.3-2.8,0.4-3.7,0.3c0.1,0.1-0.3,0-0.5-0.1c-0.3,0-0.4-0.1-0.8-0.3c-0.3-0.4-0.3-0.9-0.1-1.7
		c0.3-0.5,0.4-0.9,0.4-0.9s0.7-0.1,1.7-0.4c1.1-0.1,1.7-0.3,2-0.3l0.1,0.1c0.1,0,0.1-0.1,0.3-0.1c0,0,0.3,0,0.5,0.1
		c0.3,0,0.4,0.1,0.7,0c0.1,0,0.3-0.1,0.4-0.5c0.1-0.3,0.3-0.4,0.4-0.5l0,0V57H7.9c0-0.3,0-0.5,0-0.9c0,0-0.1-0.3-0.1-0.5
		c-0.1-0.3-0.1-0.4-0.1-0.7l0.4,0c0-0.1,0-0.4,0-0.8c0.1-0.1,0.1-0.4,0.3-0.5c0-0.1,0-0.4,0-0.8l0.1-0.1c0-0.1,0-0.4,0-0.7
		s0-0.7-0.1-1.2S8.1,50,8.1,49.8c0-0.9,0-1.6,0.1-2.1c0.1-0.3,0.1-0.4,0.1-0.3c-0.1-0.3-0.1-0.5-0.3-0.9c0-0.3,0-0.4,0.1-0.7
		c0.1-0.3,0.1-0.3,0.3-0.3v-0.9H8.4c0-0.3,0-0.7,0-1.1c-0.1-0.1-0.3-0.3-0.3-0.4V43c0,0-0.1-0.1-0.3-0.1c-0.1,0-0.1-0.1-0.3-0.1
		c-0.4-0.3-0.7-0.5-0.9-0.7c-0.1,0-0.3,0-0.5,0.1c-0.3,0.1-0.4,0.1-0.4,0.1c-0.3-0.1-0.5,0-0.8,0l-0.3-0.1c-0.3,0-0.7,0.1-1.1,0.1
		s-0.7-0.1-1.1-0.3c-0.4-0.3-0.7-0.4-0.8-0.7c0-0.1,0-0.3-0.1-0.4c0,0,0-0.1-0.1-0.3c0-0.3,0.3-0.5,0.5-0.8v-0.1
		c0.1,0,0.3,0,0.4-0.1c0.5-0.3,0.9-0.3,1.3-0.3L4,39.6c0.3,0.1,0.7,0.1,1.1,0c0.1,0,0.1-0.1,0.3-0.1c0.1,0,0.3,0,0.4,0
		c0,0,0.1,0.1,0.3,0.3C6.1,39.8,6.3,40,6.4,40l0.1-0.3c0,0,0.1,0,0.3,0C6.8,39.6,6.9,39.4,7.2,39.3z M19.1,59.8
		c0,0.3,0.1,0.5,0.1,0.9c0,0-0.1,0.1-0.1,0.3c-0.3,0-0.4,0-0.4,0c-0.1,0-0.1-0.1-0.3-0.1c0-0.1,0.1-0.3,0.1-0.5c0.1,0,0.1,0,0.3,0
		C18.8,60.1,18.9,60,19.1,59.8z"/>
	<path class="st0" d="M51.2,39.3c0.9,0,1.6,0,1.9,0.1v0.1c0.1,0.1,0.4,0.1,0.5,0.3c0,0,0.1-0.1,0.3-0.1c0.5,0.1,0.8,0.3,0.9,0.4
		c0.1,0.1,0.4,0.4,0.5,0.5c0.1,0,0.3,0,0.4,0c0,0,0,0.1,0.1,0.1c0,0.3,0,0.5,0,0.5c0,0.1,0.1,0.3,0.3,0.4c0,0,0.1,0.1,0.3,0.1
		c0,0.1,0,0.3,0,0.4c0.1,0.1,0.3,0.4,0.4,0.7c0,0.1,0,0.1,0,0.4l0.1,0.1c0,0,0,0.1,0,0.3c0.1,0.1,0.3,0.1,0.4,0.3c0,0,0,0.1,0,0.3
		c0,0.1,0,0.3-0.1,0.3v0.1c0,0.1,0.1,0.4,0.5,0.7c-0.1,0.1-0.3,0.1-0.3,0.3c-0.1,0.3-0.1,0.7,0,1.1c0,0.3,0.3,0.5,0.8,0.7
		c0,0,0,0.1,0,0.3c-0.1,0-0.3,0-0.1,0.1c0.3,0.1,0.4,0.4,0.3,0.8c-0.1,0-0.1,0.1-0.3,0.3l0,0c0,0.1,0,0.4,0,0.7
		c-0.1,0-0.1,0.1-0.3,0.3c-0.1,0.1-0.1,0.4,0.1,0.9c0,0-0.1,0-0.4,0.1v0.1c0.1,0.7,0.1,1.3,0,1.7c-0.1,0.1-0.1,0.3-0.3,0.4
		c0,0.1,0,0.3,0,0.5c-0.1,0-0.1,0.1-0.3,0.3c-0.1,0.4-0.4,0.8-0.7,1.6H56c0,0.1,0,0.4,0.1,0.7s0.1,0.4,0.1,0.5c0,0.1,0,0.1,0,0.3
		c-0.1,0-0.1,0.1-0.3,0.1c0,0.1,0,0.3,0,0.4c-0.1,0.1-0.4,0.4-0.5,0.7c0,0.1,0,0.3,0,0.4c-0.1,0.1-0.3,0.3-0.4,0.4s-0.3,0.3-0.3,0.4
		c0,0,0,0.1,0,0.3l-0.5,0.1c0,0.1,0,0.3,0,0.5c0,0.1-0.1,0.1-0.4,0.3s-0.4,0.3-0.5,0.3c0,0-0.1,0-0.3,0c-0.1,0.1-0.3,0.3-0.5,0.5
		c-0.1,0-0.1,0-0.3,0c-0.1,0.1-0.3,0.3-0.5,0.4c-0.1,0-0.4,0-0.7,0c0,0.1-0.1,0.1-0.3,0.3c-0.3,0.1-0.7,0.1-1.2,0.1
		c-0.7,0-1.2,0.1-1.3,0.1c-0.7,0.1-1.1,0.1-1.1,0.1c-0.3,0-0.5-0.1-0.8-0.3c-0.1-0.1-0.3-0.3-0.4-0.4c-0.1,0-0.3,0-0.4,0l-0.1-0.1
		c0.3-0.1,0.5-0.3,0.7-0.5c0.3-0.4,0.7-0.7,1.3-0.8l0.1-0.1c0.1,0,0.5,0,1.1,0c0.3,0,0.8,0,1.3-0.1c0.1,0,0.3-0.1,0.5-0.3
		c0.3,0,0.5,0,0.9,0c0.3,0,0.5-0.1,0.7-0.3c0-0.1,0-0.3,0.1-0.4c0,0,0.1,0,0.3-0.1c0-0.1,0-0.1,0.1-0.3l0.4,0.1l0.7-0.4
		c0-0.4-0.1-0.5-0.1-0.5s-0.1-0.1-0.3-0.3c0.1,0,0.3,0,0.4,0c0-0.3,0-0.5,0.1-1.1c0.1-0.1,0.4-0.5,0.9-1.1c0.1,0,0.1,0,0.3,0
		c0-0.1,0-0.4,0-0.7s0.1-0.5,0.3-0.8c0.1,0,0.1-0.1,0.3-0.3c0-0.1,0-0.5-0.1-1.1c-0.1-0.5-0.1-0.8-0.3-0.9c-0.3-0.3-0.5-0.3-0.8-0.3
		c-0.1,0.1-0.4,0.4-0.7,0.7c-0.1,0-0.4,0-0.7,0.1c-0.1,0.1-0.4,0.3-0.7,0.4c-0.5,0.1-1.1,0.1-1.6,0.1c-0.1-0.1-0.3-0.1-0.5-0.3
		c-0.3,0-0.5,0-1.1,0c0-0.1-0.1-0.1-0.3-0.3c-0.1,0-0.1,0-0.3,0c-0.3,0-0.7-0.1-1.2-0.4c-0.5-0.3-0.8-0.4-1.1-0.7
		c0-0.1-0.1-0.4-0.4-0.7c-0.1-0.1-0.4-0.4-0.7-0.7c0-0.1,0-0.4-0.1-0.8h-0.1l-0.5-0.8c0-0.1,0-0.4-0.1-0.7c0-0.1-0.1-0.1-0.3-0.3
		c0-0.1,0-0.3,0-0.4c0-0.8,0.1-1.3,0.1-1.7c0,0,0.1,0,0.1-0.1c0-0.3,0-0.7,0-1.2c0.1-0.1,0.1-0.4,0.3-0.7c0-0.1,0-0.3,0.1-0.4
		c0.1-0.3,0.3-0.4,0.4-0.4c0.1,0,0.1,0,0.3,0c0-0.1,0-0.3,0.1-0.4h0.1c0-0.1,0.1-0.3,0.1-0.5c0.1,0,0.1-0.1,0.3-0.3c0,0,0-0.1,0-0.3
		c0.1-0.3,0.4-0.5,0.5-0.8V40c0.1,0,0.4,0,0.7-0.1c0.3-0.1,0.5-0.3,1.1-0.4c0.1,0,0.3,0,0.4,0.1c0.3-0.1,0.5-0.1,0.8-0.3
		c0.3,0,0.7,0.1,1.1,0.1c0,0,0.1,0,0.4-0.1C50.9,39.3,51.1,39.3,51.2,39.3z M51.1,40.8c-0.1,0-0.4,0-0.9,0.1c0,0-0.1,0.1-0.3,0.3
		c-0.1,0-0.4,0-0.7,0.1c0,0-0.1,0.1-0.3,0.3c-0.1,0-0.3,0-0.5,0L48,41.8V42c0,0.1,0,0.1,0,0.1l-0.4,0.3c0,0.1,0,0.3,0,0.5
		c-0.3,0.1-0.5,0.3-0.8,0.4v0.1c-0.1,0.1-0.1,0.1-0.3,0.3c0,0.1,0,0.3,0,0.4c-0.1,0-0.1,0.1-0.3,0.3c0,0.1,0,0.1,0,0.3
		c0,0.1,0.1,0.1,0.1,0.3h-0.3c0,0.3,0,0.7,0.1,1.1c0.1,0.1,0.1,0.1,0.3,0.3c0,0.1,0,0.4,0,0.8c0,0.3-0.1,0.5,0,0.7
		c0,0.1,0.1,0.3,0.4,0.4c0,0.1,0,0.1,0,0.3c0.1,0,0.1,0,0.3,0.1c0,0.1,0.1,0.4,0.3,0.8c0.1,0,0.1,0.1,0.4,0.1c0,0,0,0,0.1,0.1
		c0,0.1,0.1,0.1,0.1,0.1l0,0c0,0,0,0.1,0,0.3c0.1,0,0.4,0,0.7,0.1c0.1,0,0.1,0.1,0.3,0.3c0.3,0,0.5,0.1,1.1,0.4c0,0,0.1,0.1,0.1,0.3
		c0.3,0,0.7-0.1,1.2-0.3v-0.4c0.1,0,0.1-0.1,0.4-0.1c0.1-0.1,0.3-0.1,0.5,0c0.3,0,0.4,0,0.7,0c0-0.1,0.1-0.1,0.3-0.3h0.1
		c0-0.1,0-0.3,0.1-0.5c0.1-0.1,0.4-0.1,0.5-0.3c0-0.1,0.1-0.4,0.1-0.7l0.1-0.1c0-0.1,0-0.1,0-0.4c0.1-0.1,0.4-0.4,0.5-0.7
		c0-0.3,0-0.7,0-1.1l0.1-0.3c0-0.3,0-0.5,0-1.1c-0.1-0.1-0.3-0.3-0.3-0.5c0-0.1,0-0.5,0-0.9c-0.3-0.1-0.4-0.3-0.7-0.5
		c0-0.1,0-0.3,0-0.5c-0.3-0.4-0.4-0.7-0.4-0.7c-0.1,0-0.3,0-0.4,0c-0.1-0.1-0.4-0.4-0.7-0.7c-0.3-0.1-0.5-0.3-0.7-0.3
		c0-0.3,0-0.4,0-0.4h-0.3C51.2,40.5,51.2,40.6,51.1,40.8z"/>
	<path class="st0" d="M88.8,39.3c0.1,0,0.4,0,0.5,0s0.3,0.1,0.4,0.1c0.3,0,0.5,0,0.9,0.1c0,0,0.1,0.1,0.3,0.3c0.1,0,0.3,0,0.5-0.1
		s0.4-0.1,0.4-0.1c0.3,0,0.8,0,1.5,0c0.5,0,0.9,0,1.2,0c0,0.1,0,0.3,0.1,0.4c0.4,0.3,0.5,0.5,0.5,0.7s0,0.1,0,0.3c0,0-0.1,0-0.3,0.1
		L94.5,42c0,0.1,0,0.4,0,0.7c0,0.1-0.3,0.3-0.4,0.4c-0.4,0.1-0.5,0.1-0.7,0.3s-0.4,0.4-0.8,0.8v0.1c-0.1,0-0.1,0-0.3,0.1
		c0,0-0.1,0.1-0.1,0.3l0,0c-0.3-0.3-0.3,0-0.3,0.3h0.1c0,0.1,0.1,0.4,0.4,0.7c0.1,0,0.3,0.1,0.4,0.1c0,0.1,0.1,0.4,0.4,0.7
		c0.4,0,0.8,0.1,1.5,0.4c0,0.3,0.1,0.5,0.4,0.8c0.1,0,0.3,0.1,0.3,0.1v0.1c0,0,0.1,0,0.3,0c0,0,0.1,0.1,0.4,0.3
		c0.1,0.1,0.3,0.3,0.3,0.3s-0.1,0.1-0.1,0.4c0.1,0,0.3,0.1,0.3,0.3s0,0.3,0,0.4s0,0.3,0.1,0.4c0.1,0.1,0.3,0.1,0.4,0.3l0.1,0.7
		c-0.1,0.3-0.4,0.4-0.5,0.7c0,0.1,0.1,0.5,0.4,1.1c-0.1,0-0.3,0.1-0.4,0.3c0,0.1,0,0.4-0.1,0.7c0,0.1,0,0.1,0,0.3c0,0,0.1,0,0.1,0.1
		c0,0.4-0.1,0.8-0.3,1.1c0.3,0.1,0.5,0.1,0.9,0.3c-0.1,0-0.4,0.1-0.5,0.1c0,0.1,0,0.3,0,0.3s-0.1,0.1-0.4,0.4c0,0,0,0.1,0,0.3
		c0.1,0,0.3,0,0.4,0.1c0,0.3,0,0.4,0,0.4c-0.1,0-0.3,0-0.4,0v0.1c-0.1,0-0.3,0.1-0.3,0.1c0,0.1-0.1,0.4-0.3,0.8
		c-0.1,0.1-0.4,0.3-0.7,0.5c-0.1,0.4-0.3,0.8-0.5,1.2c-0.1,0-0.4,0-0.7,0.1c0,0.1,0,0.3,0,0.4l-0.7,0.7c-0.1,0-0.3,0-0.4,0
		c-0.1,0.1-0.3,0.3-0.4,0.3c-0.1,0-0.5,0-0.8,0.1c-0.3,0.1-0.7,0.3-1.1,0.5c-0.1,0-0.3,0-0.4,0c0,0-0.1,0.1-0.3,0.3
		c-0.3,0-0.7,0.1-1.2,0.3c-0.1,0.1-0.3,0.3-0.4,0.3c-0.1,0-0.3-0.1-0.4-0.1l-0.1,0.1c-0.3,0-0.8,0.1-1.5,0.1l-0.1,0.1
		c-1.1,0.3-1.7,0.3-2.1,0.1c-0.3-0.1-0.4-0.3-0.5-0.7c0,0-0.1-0.1-0.1-0.4c0.7-0.5,1.2-0.8,1.5-0.8c0,0,0.1,0,0.3,0.1
		c0.1,0,0.1,0.1,0.1,0V61c0.1-0.1,0.3-0.1,0.3-0.3c0,0,0.1,0,0.3,0c0-0.1,0.1-0.3,0.4-0.4c0.1,0,0.3,0,0.4,0c0-0.1,0.1-0.3,0.3-0.4
		c0,0,0-0.1,0-0.3c-0.5,0-0.3,0,0.1,0c0.4,0,0.7-0.1,0.8-0.1c0-0.1,0.1-0.3,0.3-0.4c0.1,0,0.3-0.1,0.4-0.1v-0.1
		c0.1-0.1,0.5-0.3,0.9-0.4c0.1-0.3,0.5-0.5,0.9-0.9c0.1,0,0.3,0,0.4,0c0-0.1,0.1-0.1,0.1-0.3c0,0,0.1,0,0.3,0
		c0.1-0.1,0.3-0.3,0.3-0.3c0-0.1,0-0.1,0-0.3c0.1-0.1,0.4-0.3,0.7-0.5c0.1-0.3,0.3-0.5,0.4-0.8c0,0,0.1-0.1,0.3-0.1
		c0-0.1,0-0.1,0-0.3c0.1-0.1,0.4-0.4,0.7-0.9c0.1-0.1,0.3-0.3,0.3-0.4s0.1-0.5,0-1.1c0-0.5-0.1-0.9-0.1-1.1c0,0-0.1,0-0.1-0.1
		s0-0.3,0-0.3S93.3,51,93.2,51c0,0,0,0,0.1-0.1c0-0.1-0.1-0.4-0.1-0.8c0-0.1,0-0.3,0-0.3c-0.3-0.5-0.7-0.8-0.9-1.1
		c-0.1,0-0.4-0.1-0.7-0.1c0-0.1-0.1-0.3-0.3-0.4c-0.3-0.1-0.5-0.3-0.9-0.3c-0.3,0-0.5,0-0.9,0.1c-0.3,0-0.5,0.1-0.8,0.3
		c-0.1,0-0.3,0-0.5,0c-0.1,0.1-0.1,0.1-0.3,0.3c-0.4,0.3-0.8,0.4-1.3,0.4c-0.1,0-0.3,0-0.3-0.1c-0.1,0-0.1-0.1-0.1-0.3
		c-0.1,0-0.3,0-0.5,0c0-0.1,0-0.1,0-0.3l-0.3-0.1c-0.1-0.3,0-0.7,0.3-0.9c0.1,0,0.3-0.1,0.3-0.3c0-0.3,0-0.3,0-0.3H86
		c0-0.1,0-0.5,0.1-0.9c0-0.1,0.3-0.3,0.4-0.3c0.3-0.1,0.4-0.1,0.4-0.1c0-0.1,0.1-0.4,0.1-0.5c0.1,0,0.3,0,0.4-0.1
		c0-0.1,0.1-0.3,0.3-0.4c0,0,0.3-0.3,0.8-0.7c0-0.1,0-0.4,0-0.7c0,0-0.1,0-0.1-0.1c0,0,0-0.3-0.3-0.5c0.1-0.1,0.4-0.3,0.8-0.4
		c0.1-0.1,0.3-0.3,0.3-0.4c0-0.1-0.1-0.3-0.1-0.4c-0.4,0-0.8,0-1.5-0.1c-0.5,0-1.1,0-1.5,0c0,0-0.1,0-0.4,0c-0.3,0-0.4,0-0.4,0v-0.1
		c0,0,0,0-0.1,0c0,0,0,0-0.1,0c0,0.1,0,0.3-0.1,0.4c0,0-0.1,0-0.1,0.1c0,0,0,0.1,0,0.3c-0.1,0-0.3,0.1-0.7,0.4
		c0,0.1-0.1,0.1-0.3,0.3c-0.1,0-0.3,0-0.4,0c-0.8,0-1.2-0.3-1.2-0.9c0-0.1,0-0.3,0.1-0.5c0,0,0.1-0.1,0.3-0.3l0.3-0.1
		c-0.1-0.4-0.1-0.5-0.1-0.5s0.1-0.1,0.1-0.3l1.3-0.1c0,0,0.1,0,0.5,0.1c0.3,0,0.4,0.1,0.5,0.1c0,0,0.1-0.1,0.4-0.1
		c0.3-0.1,0.4-0.1,0.5-0.1s0.1,0,0.3,0c0.1,0.1,0.1,0.3,0.3,0.4c0,0,0.3,0,0.8,0.1C88.1,39.7,88.4,39.3,88.8,39.3z M89.7,40.2
		c0,0,0,0.3,0,0.5c0.1,0,0.3,0,0.4,0c0-0.3,0.1-0.4,0-0.4C90,40.4,89.9,40.4,89.7,40.2z"/>
	<path class="st0" d="M128.8,39.3c0.9,0,1.6,0,1.9,0.1v0.1c0.1,0.1,0.4,0.1,0.5,0.3c0,0,0.1-0.1,0.3-0.1c0.5,0.1,0.8,0.3,0.9,0.4
		c0.1,0.1,0.4,0.4,0.5,0.5c0.1,0,0.3,0,0.4,0c0,0,0,0.1,0.1,0.1c0,0.3,0,0.5,0,0.5c0,0.1,0.1,0.3,0.3,0.4c0,0,0.1,0.1,0.3,0.1
		c0,0.1,0,0.3,0,0.4c0.1,0.1,0.3,0.4,0.4,0.7c0,0.1,0,0.1,0,0.4l0.1,0.1c0,0,0,0.1,0,0.3c0.1,0.1,0.3,0.1,0.4,0.3c0,0,0,0.1,0,0.3
		c0,0.1,0,0.3-0.1,0.3v0.1c0,0.1,0.1,0.4,0.5,0.7c-0.1,0.1-0.3,0.1-0.3,0.3c-0.1,0.3-0.1,0.7,0,1.1c0,0.3,0.3,0.5,0.8,0.7
		c0,0,0,0.1,0,0.3c-0.1,0-0.3,0-0.1,0.1c0.3,0.1,0.4,0.4,0.3,0.8c-0.1,0-0.1,0.1-0.3,0.3l0,0c0,0.1,0,0.4,0,0.7
		c-0.1,0-0.1,0.1-0.3,0.3c-0.1,0.1-0.1,0.4,0.1,0.9c0,0-0.1,0-0.4,0.1v0.1c0.1,0.7,0.1,1.3,0,1.7c-0.1,0.1-0.1,0.3-0.3,0.4
		c0,0.1,0,0.3,0,0.5c-0.1,0-0.1,0.1-0.3,0.3c-0.1,0.4-0.4,0.8-0.7,1.6h-0.1c0,0.1,0,0.4,0.1,0.7s0.1,0.4,0.1,0.5c0,0.1,0,0.1,0,0.3
		c-0.1,0-0.1,0.1-0.3,0.1c0,0.1,0,0.3,0,0.4c-0.1,0.1-0.4,0.4-0.5,0.7c0,0.1,0,0.3,0,0.4c-0.1,0.1-0.3,0.3-0.4,0.4
		c-0.1,0.1-0.3,0.3-0.3,0.4c0,0,0,0.1,0,0.3l-0.8,0.1c0,0.1,0,0.3,0,0.5c0,0.1-0.1,0.1-0.4,0.3s-0.4,0.3-0.5,0.3c0,0-0.1,0-0.3,0
		c-0.1,0.1-0.3,0.3-0.5,0.5c-0.1,0-0.1,0-0.3,0c-0.1,0.1-0.3,0.3-0.5,0.4c-0.1,0-0.4,0-0.7,0c0,0.1-0.1,0.1-0.3,0.3
		c-0.3,0.1-0.7,0.1-1.2,0.1c-0.7,0-1.2,0.1-1.3,0.1c-0.7,0.1-1.1,0.1-1.1,0.1c-0.3,0-0.5-0.1-0.8-0.3c-0.1-0.1-0.3-0.3-0.4-0.4
		c-0.1,0-0.3,0-0.4,0l-0.1-0.1c0.3-0.1,0.5-0.3,0.7-0.5c0.3-0.4,0.7-0.7,1.3-0.8l0.1-0.1c0.1,0,0.5,0,1.1,0c0.3,0,0.8,0,1.3-0.1
		c0.1,0,0.3-0.1,0.5-0.3c0.3,0,0.5,0,0.9,0c0.3,0,0.5-0.1,0.7-0.3c0-0.1,0-0.3,0.1-0.4c0,0,0.1,0,0.3-0.1c0-0.1,0-0.1,0.1-0.3
		l0.4,0.1l0.7-0.4c0-0.4-0.1-0.5-0.1-0.5s-0.1-0.1-0.3-0.3c0.1,0,0.3,0,0.4,0c0-0.3,0-0.5,0.1-1.1c0.1-0.1,0.4-0.5,0.9-1.1
		c0.1,0,0.1,0,0.3,0c0-0.1,0-0.4,0-0.7s0.1-0.5,0.3-0.8c0.1,0,0.1-0.1,0.3-0.3c0-0.1,0-0.5-0.1-1.1c-0.1-0.5-0.1-0.8-0.3-0.9
		c-0.3-0.3-0.5-0.3-0.8-0.3c-0.1,0.1-0.4,0.4-0.7,0.7c-0.1,0-0.4,0-0.7,0.1c-0.1,0.1-0.4,0.3-0.7,0.4c-1.1,0.4-1.6,0.4-2,0.3
		c-0.1-0.1-0.3-0.1-0.5-0.3c-0.3,0-0.5,0-1.1,0c0-0.1-0.1-0.1-0.3-0.3c-0.1,0-0.1,0-0.3,0c-0.3,0-0.7-0.1-1.2-0.4
		c-0.5-0.3-0.8-0.4-1.1-0.7c0-0.1-0.1-0.4-0.4-0.7c-0.1-0.1-0.4-0.4-0.7-0.7c0-0.1,0-0.4-0.1-0.8h-0.1l-0.5-0.8c0-0.1,0-0.4-0.1-0.7
		c0-0.1-0.1-0.1-0.3-0.3c0-0.1,0-0.3,0-0.4c0-0.8,0.1-1.3,0.1-1.7c0,0,0.1,0,0.1-0.1c0-0.3,0-0.7,0-1.2c0.1-0.1,0.1-0.4,0.3-0.7
		c0-0.1,0-0.3,0.1-0.4c0.1-0.3,0.3-0.4,0.4-0.4c0.1,0,0.1,0,0.3,0c0-0.1,0-0.3,0.1-0.4h0.1c0-0.1,0.1-0.3,0.1-0.5
		c0.1,0,0.1-0.1,0.3-0.3c0,0,0-0.1,0-0.3c0.1-0.3,0.4-0.5,0.5-0.8v-0.1c0.1,0,0.4,0,0.7-0.1s0.5-0.3,1.1-0.4c0.1,0,0.3,0,0.4,0.1
		c0.3-0.1,0.5-0.1,0.8-0.3c0.3,0,0.7,0.1,1.1,0.1c0,0,0.1,0,0.4-0.1C128.5,39.3,128.7,39.3,128.8,39.3z M128.7,40.8
		c-0.1,0-0.4,0-0.9,0.1c0,0-0.1,0.1-0.3,0.3c-0.1,0-0.4,0-0.7,0.1c0,0-0.1,0.1-0.3,0.3c-0.1,0-0.3,0-0.5,0l-0.7,0.4v0.1
		c0,0.1,0,0.1,0,0.1l-0.4,0.3c0,0.1,0,0.3,0,0.5c-0.3,0.1-0.5,0.3-0.8,0.4v0.1c-0.1,0.1-0.1,0.1-0.3,0.3c0,0.1,0,0.3,0,0.4
		c-0.1,0-0.1,0.1-0.3,0.3c0,0.1,0,0.1,0,0.3c0,0.1,0.1,0.1,0.1,0.3h-0.3c0,0.3,0,0.7,0.1,1.1c0.1,0.1,0.1,0.1,0.3,0.3
		c0,0.1,0,0.4,0,0.8c0,0.3-0.1,0.5,0,0.7c0,0.1,0.1,0.3,0.4,0.4c0,0.1,0,0.1,0,0.3c0.1,0,0.1,0,0.3,0.1c0,0.1,0.1,0.4,0.3,0.8
		c0.1,0,0.1,0.1,0.4,0.1c0,0,0,0,0.1,0.1c0,0.1,0.1,0.1,0.1,0.1l0,0c0,0,0,0.1,0,0.3c0.1,0,0.4,0,0.7,0.1c0.1,0,0.1,0.1,0.3,0.3
		c0.3,0,0.5,0.1,1.1,0.4c0,0,0.1,0.1,0.1,0.3c0.3,0,0.7-0.1,1.2-0.3v-0.5c0.1,0,0.1-0.1,0.4-0.1c0.1-0.1,0.3-0.1,0.5,0
		c0.3,0,0.4,0,0.7,0c0-0.1,0.1-0.1,0.3-0.3l0,0c0-0.1,0-0.3,0.1-0.5c0.1-0.1,0.4-0.1,0.5-0.3c0-0.1,0-0.4,0.1-0.7l0.1-0.1
		c0-0.1,0-0.1,0-0.4c0.1-0.1,0.4-0.4,0.5-0.7c0-0.3,0-0.7,0-1.1l0.1-0.3c0-0.3,0-0.5,0-1.1c-0.1-0.1-0.3-0.3-0.3-0.5
		c0-0.1,0-0.5,0-0.9c-0.3-0.1-0.4-0.3-0.7-0.5c0-0.1,0-0.3,0-0.5c-0.3-0.4-0.4-0.7-0.4-0.7c-0.1,0-0.3,0-0.4,0
		c-0.1-0.1-0.4-0.4-0.7-0.7c-0.3-0.1-0.5-0.3-0.7-0.3c0-0.3,0-0.4,0-0.4h-0.3C128.8,40.5,128.8,40.6,128.7,40.8z"/>
	<path class="st0" d="M165.7,47.8c0.1,0,0.3,0,0.3,0.1s0,0.3,0,0.4c0.1,0,0.1,0.1,0.3,0.1c0.1,0,0.3,0,0.4-0.1s0.3-0.1,0.4-0.1
		l0.1,0.1c0.1,0,0.3,0,0.4,0c0.1,0,0.3-0.1,0.4-0.1c0.1,0,0.3,0.1,0.5,0.1c0.3,0,0.7,0,1.2,0c0.3,0,0.4,0.1,0.4,0
		c0.1,0,0.3-0.1,0.4-0.1c0.1,0,0.3,0,0.5,0.1c0.1,0,0.4,0,0.7,0c0.1,0.1,0.1,0.3,0.3,0.3s0.4,0,0.7-0.1c0.3-0.1,0.5-0.1,0.7-0.1l0,0
		c0.1,0,0.4,0.1,0.7,0.3v0.1c0.1,0,0.3,0,0.5,0c0.3,0.4,0.4,0.8,0.7,1.2l0.1,0.1c0,0.1,0,0.1-0.1,0.4c0,0,0,0.1,0,0.3l0,0
		c0,0,0,0.1,0,0.3c0,0-0.1,0.3-0.5,0.5c-0.3,0.3-0.5,0.5-0.5,0.5c-0.3,0.1-0.5,0.1-0.9,0.1s-0.8,0-1.2,0c0,0-0.1,0-0.4,0.1
		c-0.3,0-0.4,0-0.5,0c-0.3-0.1-0.4-0.1-0.4-0.1s-0.1,0.1-0.3,0.1c0,0-0.3,0-0.8-0.1c-0.1,0.1-0.4,0.1-0.8,0.1c0,0-0.1,0-0.3-0.1
		s-0.3-0.1-0.3-0.1c-0.1,0-0.1,0-0.3,0.1c-0.1,0-0.3,0-0.4,0s-0.3-0.1-0.4-0.1c-0.1,0-0.3,0-0.4,0c-0.1,0-0.4-0.1-0.5-0.1
		c0,0-0.1,0-0.4,0.1c-0.3,0.1-0.3,0.1-0.3,0.1c-0.1,0-0.3,0-0.4-0.1c-0.3-0.1-0.4-0.1-0.4-0.1c-0.1,0-0.5,0-1.3,0
		c-0.5,0-0.9,0-1.2-0.1c0,0,0-0.1-0.1-0.1c-0.4-0.3-0.7-0.7-0.7-1.2c-0.1-1.1-0.1-1.7,0.1-1.9c0.1,0,0.1,0,0.3,0v-0.1
		c0.3-0.3,0.7-0.4,1.1-0.7c0.3,0,0.7,0.1,1.3,0.1c0,0,0.1,0,0.3-0.1c0.1,0,0.1,0,0.3,0s0.3,0.1,0.4,0.3c0.1,0.1,0.4,0.3,0.5,0.3
		l0.1-0.1c0.1,0,0.1-0.1,0.1-0.1s0,0-0.1-0.1L165.7,47.8C165.6,48,165.6,47.8,165.7,47.8C165.6,47.8,165.6,47.8,165.7,47.8z"/>
	<path class="st0" d="M206.6,39.3c0.1,0,0.4,0,0.8,0.1s0.7,0.3,0.8,0.3c0.1,0.1,0.1,0.1,0.3,0.3c0.3,0,0.4,0,0.5-0.1
		c0.1-0.1,0.3-0.1,0.3-0.1c0.1,0,0.3,0,0.4,0c0.1,0,0.3,0.1,0.4,0.1c0,0.1,0,0.3,0,0.4c0.1,0.1,0.3,0.1,0.3,0.3
		c0.1,0.3,0.1,0.5,0,1.1c0.1,0,0.4,0.1,0.7,0.3c0,0,0,0.1,0,0.3c-0.1,0-0.3,0-0.5,0.1c-0.1,0.1-0.3,0.3-0.4,0.5
		c0.3,0.5,0.4,0.9,0.4,1.2c0,0.1-0.1,0.3-0.1,0.4l0.1,0.1c-0.1,0.1-0.3,0.4-0.4,0.7c0,0,0,0.1,0.1,0.3c0.1,0.1,0.1,0.3,0.1,0.3v0.1
		c-0.1,0.1-0.1,0.3-0.1,0.5c0.1,0.1,0.3,0.3,0.5,0.4c0,0.1,0.1,0.3,0.1,0.5c-0.1,0-0.3,0.1-0.4,0.1c0.1,0.7,0.3,1.3,0.1,2
		c-0.1,0.1-0.1,0.3-0.3,0.5c0,0.3,0,0.5,0,1.1c-0.1,0.1-0.1,0.3-0.1,0.3c0.1,0.1,0.3,0.1,0.3,0.4c0,0,0,0.1,0,0.3l0.1,0.1
		c0,0.1,0,0.1,0,0.3c0.1,0.3,0.3,0.5,0.5,0.9c0,0,0,0.1-0.1,0.3c-0.1,0-0.3,0.1-0.4,0.1c0,0.4,0,0.8,0.1,1.5c0.1,0,0.3,0.1,0.4,0.1
		c0.1,0.1,0.3,0.4,0.5,0.7c0.1,0,0.3,0.1,0.3,0.1c0,0.1,0,0.4,0,0.5v0.1c0.1,0.3,0.5,0.7,1.3,1.3c0,0.1,0,0.1,0.1,0.3
		c0.1,0.1,0.3,0.1,0.5,0.1c0.1,0,0.4,0,0.7-0.1c0.3,0,0.5-0.1,0.7-0.1c0.1,0,0.3,0,0.4,0c0.1,0.1,0.4,0.3,0.5,0.4c0.1,0,0.4,0,0.7,0
		c0.1,0.1,0.1,0.4,0.3,0.7c0,0.1,0,0.3,0,0.4c0.1,0,0.3,0.1,0.4,0.3c0,0.1,0,0.3,0,0.7c0,0.4-0.1,0.5-0.1,0.7
		c-0.1,0-0.4,0.1-0.7,0.3c0,0.1-0.1,0.1-0.3,0.3c-0.4,0.3-1.2,0.4-2.3,0.4c-0.1,0-0.4,0-0.7-0.1c-0.4,0-0.5-0.1-0.8-0.1
		c0,0-0.3,0-0.5,0.1c-0.3,0-0.5,0.1-0.7,0l-0.3-0.1c-0.1,0-0.5,0-0.9,0c-0.1,0-0.4-0.1-0.5-0.1c-0.3,0.1-0.9,0.1-1.7,0.1l-0.4-0.1
		c-0.5-0.1-1.1-0.1-1.7,0.1c-1.5,0.3-2.8,0.4-3.7,0.3c-0.3-0.1-0.5-0.3-0.9-0.4c-0.3,0-0.4-0.1-0.8-0.3c-0.3-0.4-0.3-0.9-0.1-1.6
		c0.3-0.5,0.4-0.9,0.4-0.9s0.7-0.1,1.7-0.4c1.1-0.1,1.7-0.3,2-0.3l0.1,0.1c0.1,0,0.1-0.1,0.3-0.1c0,0,0.3,0,0.5,0.1
		c0.3,0,0.4,0.1,0.7,0c0.1,0,0.3-0.1,0.4-0.5c0.1-0.3,0.3-0.4,0.4-0.5l0,0v-0.5h-0.1c0-0.3,0-0.5,0-0.9c0,0-0.1-0.3-0.1-0.5
		c-0.1-0.3-0.1-0.4-0.1-0.7l0.1-0.3c0-0.1,0-0.4,0-0.8c0.1-0.1,0.1-0.4,0.3-0.5c0-0.1,0-0.4,0-0.8l0.1-0.1c0-0.1,0-0.4,0-0.7
		c0-0.3,0-0.7-0.1-1.2c-0.1-0.5-0.1-0.8-0.1-0.9c0-0.9,0-1.6,0.1-2.1C207,47,207,46.9,207,47c-0.1-0.3-0.1-0.5-0.3-0.9
		c0-0.3,0-0.4,0.1-0.7c0.1-0.3,0.1-0.3,0.3-0.3v-0.9H207c0-0.3,0-0.7,0-1.1c-0.1-0.1-0.3-0.3-0.3-0.4v-0.1c0,0-0.1-0.1-0.3-0.1
		c-0.1,0-0.1-0.1-0.3-0.1c-0.4-0.3-0.7-0.5-0.9-0.7c-0.1,0-0.3,0-0.5,0.1c-0.3,0.1-0.4,0.1-0.4,0.1c-0.3,0.1-0.5,0.1-0.8,0.1
		l-0.3-0.1c-0.3,0-0.7,0.1-1.1,0.1s-0.7-0.1-1.1-0.3c-0.4-0.3-0.7-0.4-0.8-0.7c0-0.1,0-0.3-0.1-0.4c0,0,0-0.1-0.1-0.3
		c0-0.3,0.3-0.5,0.5-0.8v-0.1c0.1,0,0.3,0,0.4-0.1c0.5-0.3,0.9-0.3,1.3-0.3l0.1,0.1c0.3,0.1,0.7,0.1,1.1,0c0.1,0,0.1-0.1,0.3-0.1
		s0.3,0,0.4,0c0,0,0.1,0.1,0.3,0.3c0.1,0.1,0.3,0.3,0.4,0.3l0.1-0.1c0,0,0.1,0,0.3,0C206.2,39.6,206.4,39.4,206.6,39.3z M218.4,59.8
		c0,0.3,0.1,0.5,0.1,0.9c0,0-0.1,0.1-0.1,0.3c-0.3,0-0.4,0-0.4,0c-0.1,0-0.1-0.1-0.3-0.1c0-0.1,0.1-0.3,0.1-0.5c0.1,0,0.1,0,0.3,0
		C218.2,60.1,218.2,60,218.4,59.8z"/>
	<path class="st0" d="M250.5,39.3c0.9,0,1.6,0,1.9,0.1v0.1c0.1,0.1,0.4,0.1,0.5,0.3c0,0,0.1-0.1,0.3-0.1c0.5,0.1,0.8,0.3,0.9,0.4
		c0.1,0.1,0.4,0.4,0.5,0.5c0.1,0,0.3,0,0.4,0c0,0,0,0.1,0.1,0.1c0,0.3,0,0.5,0,0.5c0,0.1,0.1,0.3,0.3,0.4c0,0,0.1,0.1,0.3,0.1
		c0,0.1,0,0.3,0,0.4c0.1,0.1,0.3,0.4,0.4,0.7c0,0.1,0,0.1,0,0.4l0.1,0.1c0,0,0,0.1,0,0.3c0.1,0.1,0.3,0.1,0.4,0.3c0,0,0,0.1,0,0.3
		c0,0.1,0,0.3-0.1,0.3v0.1c0,0.1,0.1,0.4,0.5,0.7c-0.1,0.1-0.3,0.1-0.3,0.3c-0.1,0.3-0.1,0.7,0,1.1c0,0.3,0.3,0.5,0.8,0.7
		c0,0,0,0.1,0,0.3c-0.1,0-0.3,0-0.1,0.1c0.3,0.1,0.4,0.4,0.3,0.8c-0.1,0-0.1,0.1-0.3,0.3l0,0c0,0.1,0,0.4,0,0.7
		c-0.1,0-0.1,0.1-0.3,0.3c-0.1,0.1-0.1,0.4,0.1,0.9c0,0-0.1,0-0.4,0.1v0.1c0.1,0.7,0.1,1.3,0,1.7c-0.1,0.1-0.1,0.3-0.3,0.4
		c0,0.1,0,0.3,0,0.5c-0.1,0-0.1,0.1-0.3,0.3c-0.1,0.4-0.4,0.8-0.7,1.6h-0.1c0,0.1,0,0.4,0.1,0.7s0.1,0.4,0.1,0.5c0,0.1,0,0.1,0,0.3
		c-0.1,0-0.1,0.1-0.3,0.1c0,0.1,0,0.3,0,0.4c-0.1,0.1-0.4,0.4-0.5,0.7c0,0.1,0,0.3,0,0.4c-0.1,0.1-0.3,0.3-0.4,0.4
		c-0.1,0.1-0.3,0.3-0.3,0.4c0,0,0,0.1,0,0.3L254,60c0,0.1,0,0.3,0,0.5c0,0.1-0.1,0.1-0.4,0.3c-0.3,0.1-0.4,0.3-0.5,0.3
		c0,0-0.1,0-0.3,0c-0.1,0.1-0.3,0.3-0.5,0.5c-0.1,0-0.1,0-0.3,0c-0.1,0.1-0.3,0.3-0.5,0.4c-0.1,0-0.4,0-0.7,0c0,0.1-0.1,0.1-0.3,0.3
		c-0.3,0.1-0.7,0.1-1.2,0.1c-0.7,0-1.2,0.1-1.3,0.1c-0.7,0.1-1.1,0.1-1.1,0.1c-0.3,0-0.5-0.1-0.8-0.3c-0.1-0.1-0.3-0.3-0.4-0.4
		c-0.1,0-0.3,0-0.4,0l-0.1-0.1c0.3-0.1,0.5-0.3,0.7-0.5c0.3-0.4,0.8-0.7,1.3-0.8l0.1-0.1c0.1,0,0.5,0,1.1,0c0.3,0,0.8,0,1.3-0.1
		c0.1,0,0.3-0.1,0.5-0.3c0.3,0,0.5,0,0.9,0c0.3,0,0.5-0.1,0.7-0.3c0-0.1,0-0.3,0.1-0.4c0,0,0.1,0,0.3-0.1c0-0.1,0-0.1,0.1-0.3
		l0.4,0.1l0.7-0.4c0-0.4-0.1-0.5-0.1-0.5s-0.1-0.1-0.3-0.3c0.1,0,0.3,0,0.4,0c0-0.3,0-0.5,0.1-1.1c0.1-0.1,0.4-0.5,0.9-1.1
		c0.1,0,0.1,0,0.3,0c0-0.1,0-0.4,0-0.7c0-0.3,0.1-0.5,0.3-0.8c0.1,0,0.1-0.1,0.3-0.3c0-0.1,0-0.5-0.1-1.1c-0.1-0.5-0.1-0.8-0.3-0.9
		c-0.3-0.3-0.5-0.3-0.8-0.3c-0.1,0.1-0.4,0.4-0.7,0.7c-0.1,0-0.4,0-0.7,0.1c-0.1,0.1-0.4,0.3-0.7,0.4c-0.5,0.1-1.1,0.1-1.6,0.1
		c-0.1-0.1-0.3-0.1-0.5-0.3c-0.3,0-0.5,0-1.1,0c0-0.1-0.1-0.1-0.3-0.3c-0.1,0-0.1,0-0.3,0c-0.3,0-0.7-0.1-1.2-0.4
		c-0.5-0.3-0.8-0.4-1.1-0.7c0-0.1-0.1-0.4-0.4-0.7c-0.1-0.1-0.4-0.4-0.7-0.7c0-0.1,0-0.4-0.1-0.8h-0.1l-0.5-0.8c0-0.1,0-0.4-0.1-0.7
		c0-0.1-0.1-0.1-0.3-0.3c0-0.1,0-0.3,0-0.4c0-0.8,0.1-1.3,0.1-1.7c0,0,0.1,0,0.1-0.1c0-0.3,0-0.7,0-1.2c0.1-0.1,0.1-0.4,0.3-0.7
		c0-0.1,0-0.3,0.1-0.4c0.1-0.3,0.3-0.4,0.4-0.4c0.1,0,0.1,0,0.3,0c0-0.1,0-0.3,0.1-0.4h0.1c0-0.1,0.1-0.3,0.1-0.5
		c0.1,0,0.1-0.1,0.3-0.3c0,0,0-0.1,0-0.3c0.1-0.3,0.4-0.5,0.5-0.8v-0.1c0.1,0,0.4,0,0.7-0.1c0.3-0.1,0.5-0.3,1.1-0.4
		c0.1,0,0.3,0,0.4,0.1c0.3-0.1,0.5-0.1,0.8-0.3c0.3,0,0.7,0.1,1.1,0.1c0,0,0.1,0,0.4-0.1C250.2,39.3,250.5,39.3,250.5,39.3z
		 M250.5,40.8c-0.1,0-0.4,0-0.9,0.1c0,0-0.1,0.1-0.3,0.3c-0.1,0-0.4,0-0.7,0.1c0,0-0.1,0.1-0.3,0.3c-0.1,0-0.3,0-0.5,0l-0.7,0.4v0.1
		c0,0.1,0,0.1,0,0.1l-0.4,0.3c0,0.1,0,0.3,0,0.5c-0.3,0.1-0.5,0.3-0.8,0.4v0.1c-0.1,0.1-0.1,0.1-0.3,0.3c0,0.1,0,0.3,0,0.4
		c-0.1,0-0.1,0.1-0.3,0.3c0,0.1,0,0.1,0,0.3c0,0.1,0.1,0.1,0.1,0.3h-0.3c0,0.3,0,0.7,0.1,1.1c0.1,0.1,0.1,0.1,0.3,0.3
		c0,0.1,0,0.4,0,0.8c0,0.3-0.1,0.5,0,0.7c0,0.1,0.1,0.3,0.4,0.4c0,0.1,0,0.1,0,0.3c0.1,0,0.1,0,0.3,0.1c0,0.1,0.1,0.4,0.3,0.8
		c0.1,0,0.1,0.1,0.4,0.1c0,0,0,0,0.1,0.1c0,0.1,0.1,0.1,0.1,0.1l0,0c0,0,0,0.1,0,0.3c0.1,0,0.4,0,0.7,0.1c0.1,0,0.1,0.1,0.3,0.3
		c0.3,0,0.5,0.1,1.1,0.4c0,0,0.1,0.1,0.1,0.3c0.3,0,0.7-0.1,1.2-0.3v-0.5c0.1,0,0.1-0.1,0.3-0.1c0.1-0.1,0.3-0.1,0.5,0
		c0.3,0,0.4,0,0.7,0c0-0.1,0.1-0.1,0.3-0.3h0.1c0-0.1,0-0.3,0.1-0.5c0.1-0.1,0.4-0.1,0.5-0.3c0-0.1,0.1-0.4,0.1-0.7l0.1-0.1
		c0-0.1,0-0.1,0-0.4c0.1-0.1,0.4-0.4,0.5-0.7c0-0.3,0-0.7,0-1.1l0.1-0.3c0-0.3,0-0.5,0-1.1c-0.1-0.1-0.3-0.3-0.3-0.5
		c0-0.1,0-0.5,0-0.9c-0.3-0.1-0.4-0.3-0.7-0.5c0-0.1,0-0.3,0-0.5c-0.3-0.4-0.4-0.7-0.4-0.7c-0.1,0-0.3,0-0.4,0
		c-0.1-0.1-0.4-0.4-0.7-0.7c-0.3-0.1-0.5-0.3-0.7-0.3c0-0.3,0-0.4,0-0.4h-0.4C250.5,40.5,250.5,40.6,250.5,40.8z"/>
	<path class="st0" d="M290.7,39.3c0.1,0,0.5,0.1,1.1,0.4c0.3,0.3,0.7,0.4,0.9,0.7v0.1c0,0,0,0-0.1,0.1h-0.3c0,0.1,0,0.1,0,0.3h-0.1
		c0,0,0,0.1,0,0.3s0,0.4,0,0.7c-0.3,0.3-0.3,0.5-0.3,0.5s0,0.1,0.1,0.4c0,0.3,0.1,0.4,0,0.5c0,0,0,0-0.1,0.1l-0.1,0.1
		c0.1,0.1,0.3,0.4,0.4,0.5c-0.1,0.1-0.1,0.4-0.1,0.7c0.1,0.1,0.3,0.3,0.3,0.4c0,0.1,0,0.4-0.1,0.5c-0.1,0.1-0.3,0.3-0.3,0.3
		c0,0.1,0,0.4,0,0.7h-0.3c0,0.3,0,0.7,0,1.2V48c0,0.1,0.1,0.1,0.3,0.3c0.1,0,0.3,0.1,0.4,0.1v0.1c0,0-0.3,0.3-0.5,0.7h-0.1
		c0,0,0,0.3,0,0.5c0.1,0.1,0.1,0.1,0.3,0.3c0,0.1,0,0.3,0,0.4c0,0,0,0.1,0.1,0.3c0.1,0.1,0.1,0.3,0.1,0.4c-0.1,0.3-0.1,0.4-0.1,0.4
		c0.1,0,0.3,0.1,0.3,0.3c0,0,0.1,0.4,0.1,1.2c0.1,0,0.3,0,0.4,0.1c0,0.1-0.1,0.4-0.3,0.8c0.1,0,0.3,0.1,0.4,0.3v0.1
		c0.1,0,0.1,0,0.3,0s0.3,0,0.4-0.1c0.1-0.1,0.3-0.1,0.3-0.1c0.1,0,0.7,0.1,1.9,0.5c0.1,0.3,0.3,0.5,0.4,0.9c0,0.3,0,0.4-0.3,0.5
		c-0.1,0.1-0.3,0.3-0.5,0.3c0,0-0.1,0.1-0.3,0.3c-0.1,0-0.4-0.1-0.8-0.1c-0.3,0.1-0.5,0.1-0.9,0.3c-0.1,0.5-0.3,0.9-0.7,1.1
		c0,0-0.4,0.1-0.9,0.1c0,0,0,0-0.1,0.1c0,0.1-0.1,0.1-0.1,0.3c0.1,0.1,0.3,0.3,0.4,0.4c0,0.1,0.1,0.3,0.1,0.5c0.1,0,0.4,0.1,0.7,0.3
		c0.1,0.1,0.1,0.4-0.1,0.7c-0.1,0-0.5,0.1-1.2,0.4c0,0.9,0.1,1.5,0.1,1.3c0,0-0.1,0-0.1,0.1c-0.1,0.1-0.3,0.4-0.3,0.5
		c-0.1,0.1-0.4,0.3-0.7,0.3c-0.1,0-0.4-0.1-0.7-0.4s-0.4-0.5-0.5-0.7c0-0.1,0.1-0.5,0.1-0.9c0,0-0.1-0.1-0.1-0.3
		c0-0.1-0.1-0.3-0.1-0.4l0.1-0.1c0.1-0.3,0.1-0.5,0.1-0.8c0,0,0-0.1-0.1-0.3c0-0.1-0.1-0.1-0.1-0.3c0-0.3,0-0.7,0-1.2
		c0,0-0.1,0-0.1-0.1v-0.4l0,0c0-0.1,0-0.1,0-0.3c-0.1,0-0.1-0.1-0.3-0.3c-0.1-0.1-0.3-0.3-0.7-0.4c-0.1,0-0.3,0-0.5,0
		c-0.4,0-0.5,0.1-0.5,0.1c-0.4,0-0.9-0.1-1.7-0.1c-0.4,0-0.8,0-1.3,0.1c-0.5,0-1.1,0-1.3,0c0-0.1-0.1-0.3-0.4-0.4
		c-0.3,0-0.5-0.1-0.8-0.3c-0.1-0.1-0.1-0.3-0.1-0.5c0-0.7,0.1-1.1,0.4-1.5c0.1,0,0.3-0.1,0.3-0.3c0-0.1,0-0.3-0.1-0.5
		c0-0.3-0.1-0.4-0.1-0.4c0.1,0,0.3-0.1,0.3-0.3v-0.1c0.4-0.3,0.7-0.4,0.7-0.7c0,0,0-0.3-0.1-0.8c0.3-0.1,0.4-0.1,0.5-0.3
		c0.1-0.1,0.3-0.3,0.4-0.4c0-0.3,0-0.7,0-1.1c0.1-0.1,0.1-0.1,0.3-0.3c0-0.1,0.1-0.4,0.4-0.8c0.3-0.3,0.7-0.7,1.1-1.2
		c0-0.1,0-0.4,0-0.7c0.1-0.1,0.4-0.3,0.5-0.4c0-0.1,0-0.4,0-0.7h0.1c0.1-0.3,0.3-0.7,0.5-1.1c0-0.1,0-0.3,0.1-0.4
		c0.1,0,0.3-0.1,0.5-0.3c0-0.1,0-0.5,0.1-0.8c0-0.1,0.3-0.4,0.5-0.9h0.1c0-0.1,0-0.3,0-0.4c0,0,0-0.1,0.1-0.3h1.3c0-0.3,0-0.4,0-0.4
		c0-0.1,0-0.3,0-0.4L290.7,39.3z M288.7,45.4c0,0.1,0,0.3,0,0.4l0,0V46c-0.1,0-0.4,0.1-0.7,0.3c0,0.1,0,0.1,0,0.3
		c0,0.1,0.1,0.1,0.1,0.3c-0.1,0.1-0.3,0.4-0.4,0.5c0,0.1,0,0.4,0,0.7h-0.1c0,0-0.1,0.1-0.3,0.3c0,0,0,0.1,0,0.3l0.4,0.3
		c0,0.1,0,0.1,0,0.3c-0.1,0.3-0.3,0.4-0.5,0.5v0.1h-0.1c0,0.1-0.1,0.4-0.4,0.9c0.1,0.1,0.3,0.3,0.4,0.4c-0.1,0.1-0.1,0.1-0.3,0.3
		c-0.1,0-0.1,0-0.3,0c0,0-0.1-0.1-0.1-0.3c-0.1,0-0.4,0.3-0.7,0.4c0.3,0.3,0.4,0.7,0.3,1.1l-0.1,0.1c0,0.1,0,0.1,0,0.3
		c0,0,0.3,0.1,0.5,0.4c0,0,0.1,0,0.3,0c0,0,0,0.1,0,0.3c0.1,0,0.1,0,0.3,0c0.1,0,0.3,0,0.4,0c-0.1,0-0.1-0.1,0-0.3
		c0.3-0.3,0.5-0.4,0.8-0.4c0.1,0,0.3,0,0.4,0.1c0,0,0.1,0.1,0.3,0.3c0.1,0,0.3,0,0.4,0c0-0.1,0-0.3,0.1-0.4c0.1-0.1,0.4-0.3,0.5-0.4
		c0-0.1,0-0.3,0-0.4s0-0.3-0.1-0.4c-0.1-0.1-0.1-0.3-0.1-0.4s0-0.4,0.1-0.5c0.1-0.1,0.1-0.3,0.1-0.4c0,0,0-0.1,0-0.3h0.1
		c0-0.1-0.1-0.3-0.3-0.4c-0.1-0.1-0.3-0.3-0.3-0.3s0-0.1,0-0.3l-0.1-0.1v-0.8v-0.1c-0.1-0.1-0.4-0.3-0.8-0.4c0.1,0,0.3,0,0.5,0V48
		c0,0,0.1,0,0.3,0c0.3-0.1,0.4-0.3,0.4-0.5c0.1-0.4,0.1-0.7,0-0.9c-0.1-0.1-0.3-0.3-0.4-0.4c0-0.1,0-0.1,0-0.3l-0.4-0.4
		C289,45.4,288.9,45.4,288.7,45.4z M291.8,57.8c0,0,0.1,0,0.3,0.1C291.9,57.8,291.9,57.8,291.8,57.8z"/>
	<path class="st0" d="M324.1,39.3c0,0,0.1,0,0.3,0.1s0.3,0.1,0.3,0.1c0.3-0.1,0.5-0.1,1.1-0.1l0.1,0.1c0.1,0,0.3,0,0.4,0
		c0.1,0,0.3-0.1,0.3-0.1c0.1,0,0.5,0,0.8,0.1c0.4,0.1,0.7,0.1,0.8,0.1c0,0,0.1,0,0.4-0.1c0.1,0,0.3-0.1,0.4-0.1
		c0.1,0.1,0.3,0.3,0.5,0.4c0.1,0,0.3,0,0.3,0c0.1,0,0.4,0,0.5-0.1c0.3-0.1,0.4-0.1,0.5-0.1c0.4,0.1,0.9,0.4,1.6,0.7
		c0,0-0.1,0.1-0.3,0.1c-0.1,0-0.3,0-0.4,0c-0.1,0.1-0.3,0.3-0.4,0.4c-0.3,0-0.5-0.1-0.9-0.1c-0.1,0.1-0.3,0.1-0.4,0.3
		c-0.3,0-0.7,0-0.9,0.1v0.1c-0.1-0.1-0.4-0.1-0.7-0.1c0,0-0.1,0-0.3,0.1c-0.3,0.1-0.7,0.1-1.1,0c-0.5,0-0.8,0-0.9,0l-0.3,0.1
		c-0.3,0-0.7,0-1.3,0c0,0-0.1,0.1-0.4,0.3l-0.1,0.1c0,0.1,0,0.4-0.1,0.8c0.1,0.1,0.3,0.1,0.3,0.3l-0.4,0.3c0,0.1-0.1,0.3,0,0.7
		c0,0.4,0,0.7,0,0.8c0,0,0,0-0.1,0.1l-0.1,0.1c0.1,0.1,0.3,0.4,0.4,0.7c0,0,0,0.1,0,0.3h0.1c0,0.1-0.1,0.4-0.3,0.4
		c0,0.1,0,0.3,0,0.4h-0.1c0,0.1,0,0.3,0.1,0.7c0,0,0.1-0.1,0.4-0.1c0-0.1,0-0.1,0-0.3c0.1-0.1,0.4-0.3,0.8-0.7
		c0.3,0,0.5,0.1,1.1,0.1l0.3-0.1c0.7-0.1,1.3-0.1,2,0.1c0.1,0,0.3,0.1,0.5,0.4s0.4,0.4,0.5,0.4c0.3,0.1,0.5,0.1,0.7,0.1
		c0.1-0.1,0.3-0.3,0.4-0.3s0.1,0.1,0.3,0.3c0.1,0,0.4,0,0.7,0c0.1,0.1,0.3,0.1,0.4,0.3c0,0,0.1,0,0.3,0c0,0.1,0,0.3,0,0.5
		c0.1,0.1,0.4,0.3,0.5,0.4c0,0.1,0,0.1,0.1,0.4c0.5-0.1,0.9-0.1,1.1,0c0.1,0,0.1,0.1,0.1,0.1c0,0.1-0.1,0.3-0.5,0.4
		c0.1,0.3,0.3,0.5,0.3,0.5c0.1,0,0.3,0,0.7,0c0,0.1,0,0.3,0,0.4c-0.1,0.3-0.4,0.5-0.7,1.1c0-0.1,0,0.1,0.1,0.7v0.1
		c0,0.1,0,0.4,0,0.7c0.1,0.4,0.1,0.5,0.1,0.5l-0.1,0.1c0,0.5,0,0.8,0,0.9c-0.1,0.1-0.3,0.3-0.4,0.5c0,0.1,0.1,0.4,0.1,0.7
		c-0.1,0-0.1,0.1-0.3,0.3c0,0.1,0,0.3,0,0.4c0.1,0.1,0.1,0.1,0.3,0.3c0,0.1,0,0.1,0,0.3c0,0-0.1,0.1-0.1,0.3
		c-0.1-0.1-0.3-0.1-0.4-0.1s-0.1,0.1-0.1,0.5h0.1c0,0,0.1-0.1,0.1-0.3c0,0,0.3,0,0.8,0.3c0,0.1,0,0.3,0,0.3c-0.3,0-0.5,0.1-0.8,0.3
		c0,0,0,0.1-0.1,0.3c-0.1,0-0.3-0.1-0.4-0.1c0,0,0,0.1-0.1,0.1l0.1,0.1c0,0.5-0.1,0.8-0.1,0.9l-0.3,0.1l-0.1,0.1
		c-0.1,0-0.1,0.1-0.3,0.1c-0.1,0-0.3,0-0.4-0.1c-0.1,0-0.3-0.1-0.4-0.1s-0.1,0-0.3,0c0,0,0,0.1,0,0.3c-0.1,0-0.3,0-0.3,0.1
		c-0.1,0.1-0.3,0.3-0.3,0.7c-0.3,0.1-0.5,0.3-0.9,0.4c-0.1,0-0.4,0-0.7,0V61c-0.3,0-0.7,0-1.2,0.1c-0.1,0.1-0.3,0.3-0.4,0.4
		c-0.1,0-0.4,0.1-0.7,0.3c-0.1,0.1-0.3,0.3-0.7,0.5c-0.4,0-0.9,0-1.7,0c-0.1,0-0.3,0.1-0.4,0.1c-0.3,0.1-0.4,0.1-0.5,0.1l-0.1-0.1
		c-0.1,0-0.4,0-0.8,0c-0.5,0-0.8,0-0.8,0c-0.1,0-0.3-0.3-0.3-0.5s0-0.4,0-0.4c0.3-0.3,0.7-0.5,1.1-0.5c0.1,0,0.5,0,0.8,0v-0.1
		c0.1,0,0.3-0.1,0.4-0.1c0.1,0,0.3,0,0.5,0c0.1-0.3,0.4-0.4,0.7-0.7c0.1,0,0.3,0.1,0.4,0.1c0,0,0.1-0.1,0.1-0.3
		c0.1,0,0.3-0.1,0.5-0.1c0-0.1,0.1-0.3,0.3-0.4c0.1,0,0.3,0,0.4-0.1c0-0.1,0.1-0.3,0.3-0.4c0.1,0,0.4-0.1,0.7-0.1s0.5,0,0.5-0.1
		c0.1-0.1,0.1-0.1,0.3-0.4c0-0.1,0.1-0.3,0.1-0.4c0.1,0,0.4-0.3,0.7-0.5l0,0h0.1c0-0.1,0.1-0.3,0.1-0.5c0.1,0,0.3-0.1,0.5-0.4
		c0-0.1,0-0.3,0-0.5c0.1,0,0.1-0.1,0.3-0.3c0.1-0.1,0.4-0.4,0.7-0.8c0.1-0.1,0.3-0.4,0.4-0.7c0.1-0.4,0.1-1.1,0-2
		c0-0.1-0.1-0.4-0.3-0.7c0-0.1,0-0.3,0-0.5c0-0.1-0.1-0.3-0.3-0.4c0-0.1,0-0.3,0-0.5c-0.1-0.1-0.3-0.1-0.3-0.3c0-0.1,0-0.1,0-0.3
		c-0.1,0-0.3-0.1-0.4-0.3c0-0.1-0.1-0.3-0.3-0.4c-0.1,0-0.4-0.1-0.7-0.3c-0.1-0.1-0.3-0.1-0.5-0.3c0,0-0.1,0-0.4,0.1
		c-0.3,0.1-0.4,0.1-0.4,0.1c-0.1,0-0.3,0-0.4,0c0,0-0.1,0.1-0.3,0.3c-0.3,0-0.5,0-0.9,0c0,0.1-0.1,0.1-0.1,0.3
		c-0.1,0.1-0.3,0.1-0.5,0.3c-0.1,0-0.3,0-0.4,0l-0.1,0.1c-0.1,0-0.4,0-0.8,0.1c0,0,0,0.1,0,0.3c-0.1,0-0.3,0-0.4,0.1
		c0,0.1-0.1,0.1-0.1,0.3v0.1c-0.1,0-0.3,0-0.4,0c-0.1-0.1-0.1-0.1-0.3-0.1c0.1,0-0.1,0-0.8,0c-0.3,0-0.5-0.1-0.7-0.4
		c0,0-0.1-0.4-0.4-1.2s-0.3-1.2-0.3-1.2s0.1-0.1,0.3-0.1c0.1-0.3,0.1-0.5,0.1-0.9c0-0.4,0-0.8,0-0.9l0.1-0.1c0-0.1,0-0.3-0.1-0.4
		s-0.1-0.3-0.1-0.3c0-0.1,0-0.4,0-0.8h-0.1c0-0.3,0-0.5,0-0.8c0.1-0.1,0.1-0.4,0.3-0.7c0-0.1,0-0.3,0-0.5s-0.1-0.5-0.1-0.5
		c0-0.1,0-0.3,0.1-0.4c0.3-0.1,0.4-0.3,0.7-0.4c0-0.1,0.1-0.3,0.1-0.5c0.4,0,0.9-0.1,1.6-0.1C323.9,39.3,323.9,39.3,324.1,39.3z"/>
</g>
<g>
	<g>
		<path class="st0" d="M1,90.7v-1.5h2.1v-9.6H1v-1.5h10.7v3.1h-1.6v-1.7H5.6v4.1h2.7v-1.1h1.5v3.6H8.3v-1H5.6v4h5v-1.9h1.6v3.4H1z"
			/>
		<path class="st0" d="M17.7,89.2h1.5v1.5h-5.4v-1.5h1.5v-9.6h-1.5v-1.5h6.2c1.8,0,2.4,0.3,2.8,0.7c0.6,0.6,1,1.4,1,2.4
			c0,2.1-1.8,3.1-2.5,3.5l3.1,4.4h1.1v1.5h-3.1l-3.7-5.2h-1V89.2z M17.7,84h0.9c1.2,0,2.5-1,2.5-2.7c0-1.7-1.3-1.7-2.2-1.7h-1.1V84z
			"/>
		<path class="st0" d="M33.1,89.2h3.8v1.5H26.8v-1.5h3.8v-9.6h-3.8v-1.5h10.1v1.5h-3.8V89.2z"/>
		<path class="st0" d="M41.8,89.2H43v1.5h-4.2v-1.5h1.3v-9.6h-1.3v-1.5h2.9l5.9,8.5v-7h-1.3v-1.5h4.2v1.5h-1.3v11.1h-1.7l-5.9-8.4
			V89.2z"/>
		<path class="st0" d="M54.3,89.2h1.3v1.5h-4.2v-1.5h1.3v-9.6h-1.3v-1.5h2.9l5.9,8.5v-7h-1.3v-1.5h4.2v1.5h-1.3v11.1h-1.7l-5.9-8.4
			V89.2z"/>
		<path class="st0" d="M63.8,90.7v-1.5h2.1v-9.6h-2.1v-1.5h10.7v3.1h-1.6v-1.7h-4.5v4.1h2.7v-1.1h1.5v3.6h-1.5v-1h-2.7v4h5v-1.9H75
			v3.4H63.8z"/>
		<path class="st0" d="M80.5,89.2H82v1.5h-5.4v-1.5H78v-9.6h-1.5v-1.5h6.2c1.8,0,2.4,0.3,2.8,0.7c0.6,0.6,1,1.4,1,2.4
			c0,2.1-1.8,3.1-2.5,3.5l3.1,4.4h1.1v1.5h-3.1l-3.7-5.2h-1V89.2z M80.5,84h0.9c1.2,0,2.5-1,2.5-2.7c0-1.7-1.3-1.7-2.2-1.7h-1.1V84z
			"/>
		<path class="st0" d="M88.8,79.6v-1.5h5v1.5h-1.3v6.3c0,1.7,0.2,2.2,0.5,2.6c0.6,0.8,1.4,1,2.2,1c0.6,0,1.5-0.2,1.9-0.7
			c0.4-0.5,0.4-0.9,0.4-2.4v-6.8h-1.3v-1.5h4.2v1.5h-1.3v6.5c0,2.2-0.2,2.8-1,3.6c-0.7,0.8-1.5,1.3-3.4,1.3c-1.3,0-2.9-0.2-3.8-1.2
			c-0.8-0.9-1-1.7-1-3.3v-6.9H88.8z"/>
		<path class="st0" d="M104.5,89.2h1.3v1.5h-4.2v-1.5h1.3v-9.6h-1.3v-1.5h2.9l5.9,8.5v-7h-1.3v-1.5h4.2v1.5h-1.3v11.1h-1.7l-5.9-8.4
			V89.2z"/>
		<path class="st0" d="M124.3,81.5h-1.5l-0.2-1.7c-1.1-0.5-2-0.5-2.2-0.5c-1.4,0-2.2,0.5-2.9,1.4c-0.5,0.7-0.9,1.6-0.9,3.6
			c0,2.8,1,5.1,4.2,5.1c0.5,0,0.7-0.1,1.3-0.3v-2.7h-1.7v-1.5h5.2v1.5h-1v3.9c-0.9,0.3-2.6,0.7-4.2,0.7c-2.6,0-3.9-0.8-4.7-1.7
			c-1.1-1.2-1.8-2.8-1.8-4.8c0-1.6,0.5-3.6,1.8-5c0.8-0.8,2-1.7,4.7-1.7c1.9,0,3.1,0.3,4,0.5V81.5z"/>
		<path class="st0" d="M126.6,90.7v-1.5h2.1v-9.6h-2.1v-1.5h10.7v3.1h-1.6v-1.7h-4.5v4.1h2.7v-1.1h1.5v3.6h-1.5v-1h-2.7v4h5v-1.9
			h1.6v3.4H126.6z"/>
		<path class="st0" d="M142.2,89.2h1.3v1.5h-4.2v-1.5h1.3v-9.6h-1.3v-1.5h2.9l5.9,8.5v-7h-1.3v-1.5h4.2v1.5h-1.3v11.1h-1.7l-5.9-8.4
			V89.2z"/>
		<path class="st0" d="M161.7,79.6v-1.5h5v1.5h-1.3v6.3c0,1.7,0.2,2.2,0.5,2.6c0.6,0.8,1.4,1,2.2,1c0.6,0,1.5-0.2,1.9-0.7
			c0.4-0.5,0.4-0.9,0.4-2.4v-6.8h-1.3v-1.5h4.2v1.5h-1.3v6.5c0,2.2-0.2,2.8-1,3.6c-0.7,0.8-1.5,1.3-3.4,1.3c-1.3,0-2.9-0.2-3.8-1.2
			c-0.8-0.9-1-1.7-1-3.3v-6.9H161.7z"/>
		<path class="st0" d="M177.5,89.2h1.3v1.5h-4.2v-1.5h1.3v-9.6h-1.3v-1.5h2.9l5.9,8.5v-7h-1.3v-1.5h4.2v1.5H185v11.1h-1.7l-5.9-8.4
			V89.2z"/>
		<path class="st0" d="M186.8,89.2h1.3v-9.6h-1.3v-1.5h5.2c2.6,0,3.8,0.5,4.8,1.5c1.3,1.4,1.6,3.1,1.6,4.5c0,1.5-0.4,3.7-1.7,5
			c-1.2,1.2-2.5,1.7-4.5,1.7h-5.4V89.2z M190.6,89.2h1.1c1.3,0,2.1-0.4,2.9-1.3c0.8-0.9,1.1-2.7,1.1-3.7c0-0.9-0.2-2.6-1.1-3.6
			c-0.9-1-2.6-1.1-3.2-1.1h-0.8V89.2z"/>
		<path class="st0" d="M219.9,81.5h-1.5l-0.2-1.7c-1.1-0.5-2-0.5-2.2-0.5c-1.4,0-2.2,0.5-2.9,1.4c-0.5,0.7-0.9,1.6-0.9,3.6
			c0,2.8,1,5.1,4.2,5.1c0.5,0,0.7-0.1,1.3-0.3v-2.7H216v-1.5h5.2v1.5h-1v3.9c-0.9,0.3-2.6,0.7-4.2,0.7c-2.6,0-3.9-0.8-4.7-1.7
			c-1.1-1.2-1.8-2.8-1.8-4.8c0-1.6,0.5-3.6,1.8-5c0.8-0.8,2-1.7,4.7-1.7c1.9,0,3.1,0.3,4,0.5V81.5z"/>
		<path class="st0" d="M222.2,90.7v-1.5h2.1v-9.6h-2.1v-1.5h10.7v3.1h-1.6v-1.7h-4.5v4.1h2.7v-1.1h1.5v3.6h-1.5v-1h-2.7v4h5v-1.9
			h1.6v3.4H222.2z"/>
		<path class="st0" d="M235.6,86.9h1.5l0.2,1.8c1.5,0.7,2.7,0.8,3.3,0.8c2.1,0,2.4-1.4,2.4-1.8c0-1.1-1.2-1.6-2.1-1.9l-1.8-0.7
			c-2-0.8-3.2-1.6-3.2-3.6c0-3,2.5-3.8,5-3.8c1.4,0,2.7,0.2,4,0.6v3.2h-1.5l-0.2-1.8c-0.8-0.3-1.6-0.5-2.5-0.5
			c-1.3,0-2.2,0.6-2.2,1.7c0,0.5,0,1,2,1.8l1.9,0.7c1.6,0.6,3.2,1.5,3.2,3.5c0,1.1-0.6,2.3-1.5,3c-1.1,0.8-2.5,1-3.8,1
			c-2.3,0-3.8-0.5-4.6-0.8V86.9z"/>
		<path class="st0" d="M258.2,82h-1.5l-0.2-2.2c-0.8-0.4-1.7-0.5-2.2-0.5c-2.7,0-3.8,2.4-3.8,5c0,0.5,0,1.9,0.6,3
			c0.7,1.6,2.2,2.1,3.4,2.1c1.7,0,3.1-0.6,3.9-1v1.8c-0.9,0.3-2.6,0.8-4.2,0.8c-2.6,0-3.9-0.8-4.7-1.7c-1.1-1.2-1.8-2.8-1.8-4.8
			c0-1.6,0.5-3.6,1.8-5c0.7-0.8,2-1.7,4.6-1.7c1.7,0,2.7,0.2,4,0.6V82z"/>
		<path class="st0" d="M263.4,89.2h1.3v1.5h-5v-1.5h1.3v-9.6h-1.3v-1.5h5v1.5h-1.3v3.9h4.4v-3.9h-1.3v-1.5h5v1.5h-1.3v9.6h1.3v1.5
			h-5v-1.5h1.3V85h-4.4V89.2z"/>
		<path class="st0" d="M279.4,89.2h3.8v1.5h-10.1v-1.5h3.8v-9.6h-3.8v-1.5h10.1v1.5h-3.8V89.2z"/>
		<path class="st0" d="M295.9,82h-1.5l-0.2-2.2c-0.8-0.4-1.7-0.5-2.2-0.5c-2.7,0-3.8,2.4-3.8,5c0,0.5,0,1.9,0.6,3
			c0.7,1.6,2.2,2.1,3.4,2.1c1.7,0,3.1-0.6,3.9-1v1.8c-0.9,0.3-2.6,0.8-4.2,0.8c-2.6,0-3.9-0.8-4.7-1.7c-1.1-1.2-1.8-2.8-1.8-4.8
			c0-1.6,0.5-3.6,1.8-5c0.7-0.8,2-1.7,4.6-1.7c1.7,0,2.7,0.2,4,0.6V82z"/>
		<path class="st0" d="M301.1,89.2h1.3v1.5h-5v-1.5h1.3v-9.6h-1.3v-1.5h5v1.5h-1.3v3.9h4.4v-3.9h-1.3v-1.5h5v1.5H308v9.6h1.3v1.5h-5
			v-1.5h1.3V85h-4.4V89.2z"/>
		<path class="st0" d="M312.1,89.2h2.5v-9.6h-2.9v2.5h-1.6v-4h11.5v4H320v-2.5h-2.9v9.6h2.5v1.5h-7.6V89.2z"/>
		<path class="st0" d="M322.7,90.7v-1.5h2.1v-9.6h-2.1v-1.5h10.7v3.1h-1.6v-1.7h-4.5v4.1h2.7v-1.1h1.5v3.6H330v-1h-2.7v4h5v-1.9h1.6
			v3.4H322.7z"/>
	</g>
</g>
<g>
</g>
<g>
</g>
<g>
</g>
<g>
</g>
<g>
</g>
<g>
</g>
<g>
</g>
<g>
</g>
<g>
</g>
<g>
</g>
<g>
</g>
<g>
</g>
<g>
</g>
<g>
</g>
<g>
</g>
</svg>
