<?xml version="1.0" encoding="utf-8"?>
<!-- Generator: Adobe Illustrator 22.0.1, SVG Export Plug-In . SVG Version: 6.00 Build 0)  -->
<svg version="1.0" xmlns="http://www.w3.org/2000/svg" xmlns:xlink="http://www.w3.org/1999/xlink" x="0px" y="0px"
	 viewBox="0 0 428.7 97.3" style="enable-background:new 0 0 428.7 97.3;" xml:space="preserve">
<style type="text/css">
	.st0{display:none;}
	.st1{display:inline;}
	.st2{fill:#0071B8;}
	.st3{fill:#FFFFFF;stroke:#FFFFFF;stroke-width:0.5;stroke-miterlimit:10;}
	.st4{fill:none;}
	.st5{fill:#0372B8;}
	.st6{font-family:'FiraSans-Medium';}
	.st7{font-size:22px;}
	.st8{display:inline;fill:none;}
	.st9{font-family:'FiraSans-Regular';}
	.st10{font-size:18px;}
</style>
<g id="Ebene_2" class="st0">
	<g id="e6E92O_1_" class="st1">
		
			<image style="overflow:visible;" width="446" height="470" id="e6E92O" xlink:href="8EA933423E18160D.jpg"  transform="matrix(0.6719 0 0 0.6719 -630.9499 519.598)">
		</image>
	</g>
</g>
<g id="Ebene_1">
</g>
<g id="Ebene_3">
	<g>
		<path class="st2" d="M6.6,36.1"/>
		<polyline class="st2" points="43.5,97.1 96.5,97.1 96.5,0 0.1,0 0.1,97.1 42.7,97.1 		"/>
		<path class="st3" d="M51.2,69.1c1.4-8.8,1.2-17.4-1.8-25.8c-0.5-1.3-0.9-2.7-1.3-4.1c-0.3-1.1,1-4.3,2-4.9c0.9-0.5,1-1.2,1-2
			c-0.1-1.2-0.3-2.3,0-3.5c0.8-3,1.3-6,1.7-9.1c0.3-2.3,0.7-4.6,0.2-6.9c-1-4.2-5-5.5-8.2-2.5c-0.8,0.7-1.2,0.8-2,0.1
			C40.1,8.2,37,7,33.5,8.9c-1.9,1-3.9,1.5-5.9,1.5c-2.7,0.1-4.8,1.1-6.3,3.4c-1,1.6-2.4,2.8-4,3.7c-0.5,0.3-1,0.6-1.4,1
			c-1.4,1.3-1.6,2-0.6,3.6c0.8,1.3,0.8,2.6,0.3,4c-0.4,0.9-0.7,1.8-1,2.8c-0.7,1.8-1.2,3.6-0.6,5.5c0.8,2.7,1.3,5.3,0.8,8.2
			c-0.5,2.4,1.4,4.1,3.8,4c1.3-0.1,2.6-0.4,3.8-0.8c0.5-0.2,0.9-0.4,1.4-0.2c2.2,1,4.6,1,7,0.8c0.3,0,0.6,0,0.9,0.1
			c1.9,0.7,3.8,0.3,5.4-0.8c3.1-2.3,6.6-3.7,9.4-6.4c0.6-0.6,0.8-0.3,1,0.3c0.2,1,0.5,1.9,0.8,2.8c3.4,8.5,3.6,17.4,2.2,26.3
			c-1.4,9.4-4.2,18.4-7.2,27.3c-0.1,0.2-0.2,0.5-0.3,0.7h0.8c0.1-0.3,0.2-0.7,0.3-1C47.1,87.1,49.8,78.3,51.2,69.1z M45.4,11.1
			c1.2-1.2,2.5-1.9,4.2-1.4c1.7,0.5,2.4,1.8,2.8,3.5c0.3,1.6,0.1,3.2-0.1,4.8c-0.4,3.1-0.8,6.2-1.6,9.2c-0.3-1.9-0.6-3.9-1-5.8
			c-0.7-3.3-2.2-6.1-4.4-8.6C44.7,12.1,44.8,11.7,45.4,11.1z M44.9,13.6c2.7,3.3,4.2,7,4.7,11.2c0.2,1.5,0.3,2.9,0.4,4.4
			c0.1,0.6-0.1,1.1-0.5,1.8c-1.1-2-2.2-4-3.8-5.5c-1.1-1-2.3-1.8-3.7-2.3c-0.7-0.2-1-0.7-0.9-1.4c0.4-2.8,1-5.5,2.4-8
			C44,12.8,44.3,12.9,44.9,13.6z M21.4,45.4c-0.8,0.2-1.5,0.5-2.3,0.5c-2.4,0.1-3.5-0.9-3.4-3.8c0.7-2.5,0.1-5.4-0.7-8.3
			c-0.4-1.5-0.2-3.2,0.5-4.7c0.5-1,0.8-2,1.1-3c0.4-1.5,0.4-3-0.4-4.4c-0.6-1.1-0.4-2,0.6-2.6c2.6-1.6,4.7-3.7,6.6-6.1
			c1.1-1.5,2.8-1.9,4.6-1.9c2.3,0,4.3-0.6,6.3-1.5c3.2-1.4,6.3-0.8,8.8,1.7c0.5,0.5,0.5,0.8,0.2,1.4c-1.5,2.7-2.3,5.5-2.6,8.5
			c-0.1,0.7-0.3,1.3-1.2,1.3c-4.9,0-8.2,2.7-10.3,6.9c-1.2,2.5-2.8,4.8-4.9,6.6c-0.8,0.7-1.5,1.5-2.1,2.2c-1.7,2-1.7,3.6-0.1,5.7
			C22.4,44.8,22.2,45.1,21.4,45.4z M34.8,44.8c-2,0.6-3.9,1-5.8-0.7c-1.1-1-2.6-0.6-4-0.1c-1,0.4-1.9,0.5-2.7-0.5
			c-0.9-1.1-1.2-2.2-0.6-3.5c0.6-1.3,1.6-2.3,2.6-3.2c2.4-1.9,4.1-4.5,5.4-7.2c1.6-3.3,4.2-5.4,7.8-6c2.2-0.4,2.5-0.2,2.8,2
			c0.1,0.5,0.2,1.1,0.3,1.6c0.1,0.5,0.6,2.9,1.1,3.1c1,1.8,2.3,3.2,4,4.3c0.4,0.3,0.5,0.6,0.1,1c-2.4,2-3.9,4.7-6.1,6.9
			C38.4,43.8,36.6,44.3,34.8,44.8z M41.9,41.3c1.1-1.4,2.3-2.7,3.4-4.1c0.4-0.4,0.8-0.8,1.3-1.2C47.3,37.8,45.6,39.8,41.9,41.3z
			 M47.5,34.1c-0.6,0.5-1.1-0.2-1.6-0.6c-3.1-2.1-4.4-5.2-4.8-8.7c-0.1-0.8,0.3-1,1-0.7c2.6,1.1,4.2,3,5.6,5.4
			c0.5,0.8,1,1.6,1.1,2.7C48.8,32.9,48.1,33.6,47.5,34.1z"/>
	</g>
	<rect x="110.7" y="47.3" class="st4" width="319" height="73.7"/>
	<text transform="matrix(1 0 0 1 110.6663 63.9432)"><tspan x="0" y="0" class="st5 st6 st7">Erinnerungen an </tspan><tspan x="0" y="26" class="st5 st6 st7">die Okkupation in Griechenland</tspan></text>
	<g id="Ebene_3_1_">
		<g>
			<path class="st2" d="M1.7,42.1"/>
			<path class="st3" d="M51,69.8c1.4-8.8,1.2-17.4-1.8-25.8c-0.5-1.3-0.9-2.7-1.3-4.1c-0.3-1.1,1-4.3,2-4.9c0.9-0.5,1-1.2,1-2
				c-0.1-1.2-0.3-2.3,0-3.5c0.8-3,1.3-6,1.7-9.1c0.3-2.3,0.7-4.6,0.2-6.9c-1-4.2-5-5.5-8.2-2.5c-0.8,0.7-1.2,0.8-2,0.1
				c-2.8-2.2-5.9-3.4-9.3-1.5c-1.9,1-3.9,1.5-5.9,1.5c-2.7,0.1-4.8,1.1-6.3,3.4c-1,1.6-2.4,2.8-4,3.7c-0.5,0.3-1,0.6-1.4,1
				c-1.4,1.3-1.6,2-0.6,3.6c0.8,1.3,0.8,2.6,0.3,4c-0.4,0.9-0.7,1.8-1,2.8c-0.7,1.8-1.2,3.6-0.6,5.5c0.8,2.7,1.3,5.3,0.8,8.2
				c-0.5,2.4,1.4,4.1,3.8,4c1.3-0.1,2.6-0.4,3.8-0.8c0.5-0.2,0.9-0.4,1.4-0.2c2.2,1,4.6,1,7,0.8c0.3,0,0.6,0,0.9,0.1
				c1.9,0.7,3.8,0.3,5.4-0.8c3.1-2.3,6.6-3.7,9.4-6.4c0.6-0.6,0.8-0.3,1,0.3c0.2,1,0.5,1.9,0.8,2.8c3.4,8.5,3.6,17.4,2.2,26.3
				c-1.4,9.4-4.2,18.4-7.2,27.3c-0.1,0.2-0.2,0.5-0.3,0.7h0.8c0.1-0.3,0.2-0.7,0.3-1C46.9,87.8,49.5,79,51,69.8z M45.2,11.8
				c1.2-1.2,2.5-1.9,4.2-1.4s2.4,1.8,2.8,3.5c0.3,1.6,0.1,3.2-0.1,4.8c-0.4,3.1-0.8,6.2-1.6,9.2c-0.3-1.9-0.6-3.9-1-5.8
				c-0.7-3.3-2.2-6.1-4.4-8.6C44.4,12.8,44.6,12.4,45.2,11.8z M44.7,14.3c2.7,3.3,4.2,7,4.7,11.2c0.2,1.5,0.3,2.9,0.4,4.4
				c0.1,0.6-0.1,1.1-0.5,1.8c-1.1-2-2.2-4-3.8-5.5c-1.1-1-2.3-1.8-3.7-2.3c-0.7-0.2-1-0.7-0.9-1.4c0.4-2.8,1-5.5,2.4-8
				C43.7,13.5,44.1,13.6,44.7,14.3z M21.1,46.1c-0.8,0.2-1.5,0.5-2.3,0.5c-2.4,0.1-3.5-0.9-3.4-3.8c0.7-2.5,0.1-5.4-0.7-8.3
				c-0.4-1.5-0.2-3.2,0.5-4.7c0.5-1,0.8-2,1.1-3c0.4-1.5,0.4-3-0.4-4.4c-0.6-1.1-0.4-2,0.6-2.6c2.6-1.6,4.7-3.7,6.6-6.1
				c1.1-1.5,2.8-1.9,4.6-1.9c2.3,0,4.3-0.6,6.3-1.5c3.2-1.4,6.3-0.8,8.8,1.7c0.5,0.5,0.5,0.8,0.2,1.4c-1.5,2.7-2.3,5.5-2.6,8.5
				c-0.1,0.7-0.3,1.3-1.2,1.3c-4.9,0-8.2,2.7-10.3,6.9c-1.2,2.5-2.8,4.8-4.9,6.6c-0.8,0.7-1.5,1.5-2.1,2.2c-1.7,2-1.7,3.6-0.1,5.7
				C22.2,45.5,22,45.8,21.1,46.1z M34.5,45.5c-2,0.6-3.9,1-5.8-0.7c-1.1-1-2.6-0.6-4-0.1c-1,0.4-1.9,0.5-2.7-0.5
				c-0.9-1.1-1.2-2.2-0.6-3.5s1.6-2.3,2.6-3.2c2.4-1.9,4.1-4.5,5.4-7.2c1.6-3.3,4.2-5.4,7.8-6c2.2-0.4,2.5-0.2,2.8,2
				c0.1,0.5,0.2,1.1,0.3,1.6s0.6,2.9,1.1,3.1c1,1.8,2.3,3.2,4,4.3c0.4,0.3,0.5,0.6,0.1,1c-2.4,2-3.9,4.7-6.1,6.9
				C38.2,44.5,36.3,45,34.5,45.5z M41.7,42c1.1-1.4,2.3-2.7,3.4-4.1c0.4-0.4,0.8-0.8,1.3-1.2C47,38.5,45.3,40.5,41.7,42z M47.3,34.8
				c-0.6,0.5-1.1-0.2-1.6-0.6c-3.1-2.1-4.4-5.2-4.8-8.7c-0.1-0.8,0.3-1,1-0.7c2.6,1.1,4.2,3,5.6,5.4c0.5,0.8,1,1.6,1.1,2.7
				C48.5,33.6,47.9,34.3,47.3,34.8z"/>
		</g>
	</g>
</g>
<g id="Ebene_4" class="st0">
	<rect x="110.8" y="49.6" class="st8" width="319" height="73.7"/>
	
		<text id="Μνήμες_από_την__Κατοχή_στην_Ελλάδα" transform="matrix(1 0 0 1 110.8195 63.1261)" class="st1"><tspan x="0" y="0" class="st5 st9 st10">Μνήμες από την </tspan><tspan x="0" y="26" class="st5 st9 st10">Κατοχή στην Ελλάδα</tspan></text>
</g>
</svg>
